STARTFONT 2.1
COMMENT
COMMENT Converted from OpenType font "OldStandard-Bold.ttf" by "otf2bdf 3.0".
COMMENT
FONT -FreeType-Old Standard TT-Bold-R-Normal--34-340-72-72-P-184-ISO10646-1
SIZE 34 72 72
FONTBOUNDINGBOX 95 44 -29 -10
STARTPROPERTIES 19
FOUNDRY "FreeType"
FAMILY_NAME "Old Standard TT"
WEIGHT_NAME "Bold"
SLANT "R"
SETWIDTH_NAME "Normal"
ADD_STYLE_NAME ""
PIXEL_SIZE 34
POINT_SIZE 340
RESOLUTION_X 72
RESOLUTION_Y 72
SPACING "P"
AVERAGE_WIDTH 184
CHARSET_REGISTRY "ISO10646"
CHARSET_ENCODING "1"
FONT_ASCENT 32
FONT_DESCENT 9
COPYRIGHT "Copyright (C) 2006-2008 Alexey Kryukov <alexios@thessalonica.org.ru>"
_OTF_FONTFILE "OldStandard-Bold.ttf"
_OTF_PSNAME "OldStandardTT-Bold"
ENDPROPERTIES
CHARS 1376
STARTCHAR 0020
ENCODING 32
SWIDTH 294 0
DWIDTH 10 0
BBX 0 0 0 0
BITMAP
ENDCHAR
STARTCHAR 0021
ENCODING 33
SWIDTH 294 0
DWIDTH 10 0
BBX 6 25 2 1
BITMAP
78
FC
FC
FC
FC
FC
78
78
78
78
30
30
30
30
30
30
30
00
00
00
78
FC
FC
FC
78
ENDCHAR
STARTCHAR 0022
ENCODING 34
SWIDTH 352 0
DWIDTH 12 0
BBX 8 8 2 18
BITMAP
E7
E7
E7
E7
E7
E7
42
42
ENDCHAR
STARTCHAR 0023
ENCODING 35
SWIDTH 705 0
DWIDTH 24 0
BBX 20 25 2 0
BITMAP
038300
038300
030300
030300
030300
030700
030700
FFFFF0
FFFFF0
060600
060600
060600
060E00
060E00
0E0C00
0C0C00
0C0C00
FFFFE0
FFFFE0
0C1C00
0C1800
1C1800
181800
181800
181800
ENDCHAR
STARTCHAR 0024
ENCODING 36
SWIDTH 588 0
DWIDTH 20 0
BBX 16 31 2 -3
BITMAP
0220
0220
0220
0FF8
1A26
3222
7223
7223
722F
7A2F
7E2E
7E2E
3FA0
3FE0
1FF0
0FF8
07FC
03FE
027E
723F
FA2F
FA2F
F227
E227
C226
6226
322C
1E38
03E0
0220
0220
ENDCHAR
STARTCHAR 0025
ENCODING 37
SWIDTH 852 0
DWIDTH 29 0
BBX 23 26 3 0
BITMAP
080030
360020
630060
6300C0
E380C0
E38180
E38100
E38300
E38200
E38600
630C00
360800
1C1800
001070
0030D8
00618C
00618C
00C38E
00838E
01838E
01038E
03038E
06038E
04018C
0C018C
0800F8
ENDCHAR
STARTCHAR 0026
ENCODING 38
SWIDTH 764 0
DWIDTH 26 0
BBX 24 25 1 1
BITMAP
01FC00
030400
030200
070200
070200
070600
078400
07C800
03F000
03E000
01F000
03F07F
06F81C
0C7C08
183C18
383E10
701F10
F00F20
F00FE0
F807C0
F803C0
FC03E1
7E07F2
7FFDFE
1FF07C
ENDCHAR
STARTCHAR 0027
ENCODING 39
SWIDTH 205 0
DWIDTH 7 0
BBX 3 8 2 18
BITMAP
E0
E0
E0
E0
E0
E0
40
40
ENDCHAR
STARTCHAR 0028
ENCODING 40
SWIDTH 352 0
DWIDTH 12 0
BBX 10 31 2 -6
BITMAP
00C0
0100
0200
0600
0C00
1800
3800
3800
7800
7000
7000
F000
F000
F000
F000
F000
F000
F000
F000
F000
7000
7000
7000
3800
3800
1800
1C00
0C00
0600
0300
0180
ENDCHAR
STARTCHAR 0029
ENCODING 41
SWIDTH 352 0
DWIDTH 12 0
BBX 9 32 1 -6
BITMAP
C000
6000
3000
1800
1C00
0C00
0E00
0600
0700
0700
0780
0780
0780
0780
0780
0780
0780
0780
0780
0780
0780
0700
0700
0700
0E00
0E00
0C00
1800
3000
6000
C000
8000
ENDCHAR
STARTCHAR 002A
ENCODING 42
SWIDTH 500 0
DWIDTH 17 0
BBX 12 14 3 11
BITMAP
0E00
0E00
0E00
C470
E4F0
F5E0
0E00
0E00
F5E0
E4F0
C470
0E00
0E00
0E00
ENDCHAR
STARTCHAR 002B
ENCODING 43
SWIDTH 911 0
DWIDTH 31 0
BBX 29 30 1 -5
BITMAP
00030000
00030000
00030000
00030000
00030000
00030000
00030000
00030000
00030000
00030000
00030000
00030000
00030000
00030000
FFFFFFF8
FFFFFFF8
00030000
00030000
00030000
00030000
00030000
00030000
00030000
00030000
00030000
00030000
00030000
00030000
00030000
00030000
ENDCHAR
STARTCHAR 002C
ENCODING 44
SWIDTH 294 0
DWIDTH 10 0
BBX 7 11 2 -7
BITMAP
78
FC
FE
FE
7E
06
04
0C
08
30
E0
ENDCHAR
STARTCHAR 002D
ENCODING 45
SWIDTH 382 0
DWIDTH 13 0
BBX 9 4 2 7
BITMAP
FF80
FF80
FF80
FF80
ENDCHAR
STARTCHAR 002E
ENCODING 46
SWIDTH 264 0
DWIDTH 9 0
BBX 5 5 2 0
BITMAP
70
F8
F8
F8
70
ENDCHAR
STARTCHAR 002F
ENCODING 47
SWIDTH 441 0
DWIDTH 15 0
BBX 12 33 2 -7
BITMAP
0070
0060
0060
00E0
00C0
00C0
01C0
01C0
0180
0180
0380
0300
0300
0700
0600
0600
0600
0E00
0C00
0C00
1C00
1800
1800
3800
3800
3000
3000
7000
6000
6000
E000
C000
C000
ENDCHAR
STARTCHAR 0030
ENCODING 48
SWIDTH 588 0
DWIDTH 20 0
BBX 16 25 2 1
BITMAP
07E0
0E70
1C38
3C3C
3C3C
7C3E
7C3E
7C3E
FC3F
FC3F
FC3F
FC3F
FC3F
FC3F
FC3F
FC3F
FC3F
7C3E
7C3E
7C3E
3C3C
3C3C
1C38
0E70
07E0
ENDCHAR
STARTCHAR 0031
ENCODING 49
SWIDTH 588 0
DWIDTH 20 0
BBX 12 25 4 0
BITMAP
0700
0700
1F00
FF00
1F00
1F00
1F00
1F00
1F00
1F00
1F00
1F00
1F00
1F00
1F00
1F00
1F00
1F00
1F00
1F00
1F00
1F00
1F00
1F00
FFF0
ENDCHAR
STARTCHAR 0032
ENCODING 50
SWIDTH 588 0
DWIDTH 20 0
BBX 15 25 2 1
BITMAP
1FF0
3078
603C
603E
E03E
F03E
F83E
FC3E
7C7C
387C
00F8
01F0
01E0
0380
0700
0C02
1802
3002
2002
4C06
7FFE
7FFC
47FC
43FC
41F8
ENDCHAR
STARTCHAR 0033
ENCODING 51
SWIDTH 588 0
DWIDTH 20 0
BBX 15 26 2 0
BITMAP
0100
0EF0
3878
303C
703E
783E
7C3E
7C3E
3C3E
183C
0078
0070
1FC0
00F0
0078
003C
003C
383E
7C3E
FC3E
FC3E
F83E
E03C
607C
6078
1FE0
ENDCHAR
STARTCHAR 0034
ENCODING 52
SWIDTH 588 0
DWIDTH 20 0
BBX 16 25 2 0
BITMAP
0078
0078
00F8
01F8
01F8
03F8
03F8
06F8
06F8
0CF8
0CF8
18F8
38F8
30F8
60F8
60F8
C0F8
FFFF
00F8
00F8
00F8
00F8
00F8
00F8
0FFF
ENDCHAR
STARTCHAR 0035
ENCODING 53
SWIDTH 588 0
DWIDTH 20 0
BBX 15 26 3 0
BITMAP
0008
3038
3FF0
3FE0
3F80
3E00
2000
2000
2000
2000
27C0
3870
3078
203C
203C
003E
003E
383E
783E
FC3E
F83E
F83C
E03C
6078
7070
1FE0
ENDCHAR
STARTCHAR 0036
ENCODING 54
SWIDTH 588 0
DWIDTH 20 0
BBX 16 25 2 1
BITMAP
07F0
0C08
1C0C
383C
387C
787C
7878
7830
F800
F800
FBE0
FC38
FC3C
F81E
F81F
F81F
F81F
F81F
781F
781F
781F
381E
1C1E
0C3C
07F0
ENDCHAR
STARTCHAR 0037
ENCODING 55
SWIDTH 588 0
DWIDTH 20 0
BBX 15 25 3 0
BITMAP
4F1C
5F9C
7FC6
7FE6
7FFE
E0F6
C004
C00C
800C
8018
0010
0030
0060
00E0
01C0
01C0
03C0
0780
0780
0F80
0F80
0F80
0F80
0F80
0700
ENDCHAR
STARTCHAR 0038
ENCODING 56
SWIDTH 588 0
DWIDTH 20 0
BBX 17 25 2 1
BITMAP
07F000
180C00
300C00
300600
700600
700600
780600
7C0400
7F0C00
7F9800
3FE000
1FF800
0FFC00
0FFE00
31FF00
607F00
401F00
C00F80
C00700
C00700
C00300
600600
600600
380C00
0EF000
ENDCHAR
STARTCHAR 0039
ENCODING 57
SWIDTH 588 0
DWIDTH 20 0
BBX 15 25 2 1
BITMAP
1FC0
3C70
7830
7838
F83C
F83C
F83C
F83E
F83E
F83E
F83E
783E
7C7E
3C7E
0FBE
003E
003E
0C3C
1E3C
3E3C
3E38
3C38
3070
1060
0FC0
ENDCHAR
STARTCHAR 003A
ENCODING 58
SWIDTH 264 0
DWIDTH 9 0
BBX 5 17 2 0
BITMAP
70
F8
F8
F8
70
00
00
00
00
00
00
00
70
F8
F8
F8
70
ENDCHAR
STARTCHAR 003B
ENCODING 59
SWIDTH 264 0
DWIDTH 9 0
BBX 6 23 2 -7
BITMAP
70
F8
F8
F8
70
00
00
00
00
00
00
00
70
F8
FC
FC
FC
0C
0C
08
10
30
C0
ENDCHAR
STARTCHAR 003C
ENCODING 60
SWIDTH 941 0
DWIDTH 32 0
BBX 26 29 3 -5
BITMAP
000001C0
000003C0
00000F00
00003E00
0000F800
0001E000
00078000
001F0000
007C0000
00F00000
03C00000
0F800000
3E000000
78000000
E0000000
78000000
3E000000
0F800000
03C00000
00F00000
007C0000
001F0000
00078000
0001E000
0000F800
00003E00
00000F00
000003C0
000001C0
ENDCHAR
STARTCHAR 003D
ENCODING 61
SWIDTH 970 0
DWIDTH 33 0
BBX 29 9 2 5
BITMAP
FFFFFFF8
FFFFFFF8
00000000
00000000
00000000
00000000
00000000
FFFFFFF8
FFFFFFF8
ENDCHAR
STARTCHAR 003E
ENCODING 62
SWIDTH 941 0
DWIDTH 32 0
BBX 26 29 3 -5
BITMAP
E0000000
F0000000
3C000000
1F000000
07C00000
01E00000
00780000
003E0000
000F8000
0003C000
0000F000
00007C00
00001F00
00000780
000001C0
00000780
00001F00
00007C00
0000F000
0003C000
000F8000
003E0000
00780000
01E00000
07C00000
1F000000
3C000000
F0000000
E0000000
ENDCHAR
STARTCHAR 003F
ENCODING 63
SWIDTH 470 0
DWIDTH 16 0
BBX 11 25 2 1
BITMAP
3F80
43C0
81E0
81E0
81E0
83E0
C3C0
43C0
0380
0700
0600
0C00
0800
1800
1100
1100
1100
0E00
0000
0000
0E00
1F00
1F00
1F00
0E00
ENDCHAR
STARTCHAR 0040
ENCODING 64
SWIDTH 794 0
DWIDTH 27 0
BBX 25 25 1 1
BITMAP
00FFC000
03003000
06001800
0C000C00
18000600
301EF300
3072F300
60E1E300
61E1E180
E3C1E180
C3C1E180
C3C1C180
C783C180
C783C180
C783C300
C783C300
E7878200
67878600
638BCC00
31F0F000
30000000
18000000
0C000000
07006000
01FFC000
ENDCHAR
STARTCHAR 0041
ENCODING 65
SWIDTH 735 0
DWIDTH 25 0
BBX 23 26 1 0
BITMAP
001000
001800
003800
003800
003C00
007C00
007C00
007E00
00FE00
00FE00
009E00
019F00
019F00
011F00
030F80
030F80
030F80
0607C0
07FFC0
0607C0
0407E0
0C03E0
0C03E0
1C03F0
1C03F0
FF9FFE
ENDCHAR
STARTCHAR 0042
ENCODING 66
SWIDTH 705 0
DWIDTH 24 0
BBX 20 25 2 0
BITMAP
FFFE00
1F0780
1F07C0
1F03C0
1F03E0
1F03E0
1F03E0
1F03E0
1F03C0
1F0780
1F0700
1FF800
1F0700
1F03C0
1F01E0
1F01E0
1F01F0
1F01F0
1F01F0
1F01F0
1F01F0
1F01E0
1F03C0
1F0780
FFFE00
ENDCHAR
STARTCHAR 0043
ENCODING 67
SWIDTH 647 0
DWIDTH 22 0
BBX 19 25 2 1
BITMAP
03F840
0E06C0
1E03C0
3C03C0
3C01C0
7C01C0
7C00C0
7C00C0
FC00C0
FC0040
FC0040
FC0000
FC0000
FC0000
FC0000
FC0000
FC0060
7C0040
7C0040
7C0040
3C00C0
1E0080
1E0100
0F0300
03FC00
ENDCHAR
STARTCHAR 0044
ENCODING 68
SWIDTH 794 0
DWIDTH 27 0
BBX 23 25 2 0
BITMAP
FFFF00
1F03C0
1F00E0
1F00F0
1F0078
1F0078
1F007C
1F007C
1F007E
1F007E
1F007E
1F007E
1F007E
1F007E
1F007E
1F007E
1F007C
1F007C
1F007C
1F0078
1F0078
1F00F0
1F00E0
1F03C0
FFFF00
ENDCHAR
STARTCHAR 0045
ENCODING 69
SWIDTH 676 0
DWIDTH 23 0
BBX 20 25 2 0
BITMAP
FFFFE0
1F01E0
1F00E0
1F00E0
1F0060
1F0060
1F0020
1F0420
1F0400
1F0C00
1F0C00
1F1C00
1FFC00
1F1C00
1F0C00
1F0C30
1F0430
1F0430
1F0030
1F0070
1F0070
1F00F0
1F01F0
1F03F0
FFFFF0
ENDCHAR
STARTCHAR 0046
ENCODING 70
SWIDTH 676 0
DWIDTH 23 0
BBX 20 25 2 0
BITMAP
FFFFF0
1F03F0
1F00F0
1F00F0
1F0070
1F0070
1F0030
1F0430
1F0430
1F0C30
1F0C00
1F1C00
1FFC00
1F1C00
1F0C00
1F0C00
1F0400
1F0400
1F0000
1F0000
1F0000
1F0000
1F0000
1F0000
FFF000
ENDCHAR
STARTCHAR 0047
ENCODING 71
SWIDTH 705 0
DWIDTH 24 0
BBX 21 26 2 0
BITMAP
002000
03DC20
070360
0E01E0
1C01E0
3C00E0
3C00E0
7C0060
7C0060
FC0020
FC0020
FC0000
FC0000
FC3FF8
FC03E0
FC03E0
FC03E0
FC03E0
7C03E0
7C03E0
7C03E0
3C03E0
3C0360
1E0660
0E0C60
03B820
ENDCHAR
STARTCHAR 0048
ENCODING 72
SWIDTH 823 0
DWIDTH 28 0
BBX 25 25 2 0
BITMAP
FFE7FF80
1F00F800
1F00F800
1F00F800
1F00F800
1F00F800
1F00F800
1F00F800
1F00F800
1F00F800
1F00F800
1FFFF800
1F00F800
1F00F800
1F00F800
1F00F800
1F00F800
1F00F800
1F00F800
1F00F800
1F00F800
1F00F800
1F00F800
1F00F800
FFE7FF80
ENDCHAR
STARTCHAR 0049
ENCODING 73
SWIDTH 411 0
DWIDTH 14 0
BBX 11 25 2 0
BITMAP
FFE0
1F00
1F00
1F00
1F00
1F00
1F00
1F00
1F00
1F00
1F00
1F00
1F00
1F00
1F00
1F00
1F00
1F00
1F00
1F00
1F00
1F00
1F00
1F00
FFE0
ENDCHAR
STARTCHAR 004A
ENCODING 74
SWIDTH 529 0
DWIDTH 18 0
BBX 16 25 1 0
BITMAP
07FF
00F8
00F8
00F8
00F8
00F8
00F8
00F8
00F8
00F8
00F8
00F8
00F8
00F8
00F8
00F8
78F8
F8F8
F8F8
F8F8
F0F8
E0F0
40F0
61E0
3FC0
ENDCHAR
STARTCHAR 004B
ENCODING 75
SWIDTH 794 0
DWIDTH 27 0
BBX 24 25 2 0
BITMAP
FFE3FC
1F00E0
1F00C0
1F0080
1F0180
1F0300
1F0600
1F0C00
1F1C00
1F1C00
1F3E00
1F7E00
1FFF00
1FBF00
1F1F80
1F1F80
1F0FC0
1F0FC0
1F07E0
1F07E0
1F03F0
1F01F0
1F01F8
1F01FC
FFE7FF
ENDCHAR
STARTCHAR 004C
ENCODING 76
SWIDTH 676 0
DWIDTH 23 0
BBX 20 25 2 0
BITMAP
FFE000
1F0000
1F0000
1F0000
1F0000
1F0000
1F0000
1F0000
1F0000
1F0000
1F0000
1F0000
1F0000
1F0000
1F0030
1F0030
1F0030
1F0030
1F0070
1F0070
1F00F0
1F00F0
1F01F0
1F03F0
FFFFF0
ENDCHAR
STARTCHAR 004D
ENCODING 77
SWIDTH 882 0
DWIDTH 30 0
BBX 27 25 2 0
BITMAP
FF003FE0
0F003F00
0F803F00
0F803F00
0F807F00
0FC05F00
0FC05F00
0BE05F00
0BE0DF00
0BE09F00
09F09F00
09F09F00
09F11F00
08F91F00
08F91F00
08F91F00
087E1F00
087E1F00
083E1F00
083E1F00
083C1F00
081C1F00
181C1F00
3C1C1F00
FF08FFE0
ENDCHAR
STARTCHAR 004E
ENCODING 78
SWIDTH 794 0
DWIDTH 27 0
BBX 24 25 2 0
BITMAP
FF03FF
1F807C
1F8038
0FC010
07E010
07F010
07F010
05F810
05FC10
04FC10
047E10
047F10
043F10
041F90
041FD0
040FD0
0407F0
0407F0
0403F0
0401F0
0401F0
0400F0
0E0070
1F0030
FFC030
ENDCHAR
STARTCHAR 004F
ENCODING 79
SWIDTH 705 0
DWIDTH 24 0
BBX 20 25 2 1
BITMAP
03FC00
060600
0E0700
1C0380
3C03C0
3C03C0
7C03E0
7C03E0
7C03E0
FC03F0
FC03F0
FC03F0
FC03F0
FC03F0
FC03F0
FC03F0
7C03E0
7C03E0
7C03E0
3C03C0
3C03C0
1C0380
0E0700
060600
03FC00
ENDCHAR
STARTCHAR 0050
ENCODING 80
SWIDTH 705 0
DWIDTH 24 0
BBX 20 25 2 0
BITMAP
FFFE00
1F0380
1F03C0
1F01E0
1F01F0
1F01F0
1F01F0
1F01F0
1F01F0
1F01E0
1F03C0
1F0780
1FFE00
1F0000
1F0000
1F0000
1F0000
1F0000
1F0000
1F0000
1F0000
1F0000
1F0000
1F0000
FFF000
ENDCHAR
STARTCHAR 0051
ENCODING 81
SWIDTH 705 0
DWIDTH 24 0
BBX 20 33 2 -7
BITMAP
03FC00
060600
0E0700
1C0380
3C03C0
3C03C0
7C03E0
7C03E0
7C03E0
FC03F0
FC03F0
FC03F0
FC03F0
FC03F0
FC03F0
FC03F0
7C03F0
7C03E0
7C03E0
3CF3C0
3D9BC0
1D0B80
0F0F80
070F10
039C10
006C10
000C10
000C30
000E30
000FF0
000FE0
0007E0
000380
ENDCHAR
STARTCHAR 0052
ENCODING 82
SWIDTH 735 0
DWIDTH 25 0
BBX 22 25 2 0
BITMAP
FFFC00
1F0780
1F07C0
1F03C0
1F03E0
1F03E0
1F03E0
1F03E0
1F03C0
1F07C0
1F0F00
1FF800
1F0E00
1F0F00
1F0780
1F07C0
1F07C0
1F07C0
1F07C0
1F07C4
1F07C4
1F07C4
1F07C4
1F03C8
FFF1F8
ENDCHAR
STARTCHAR 0053
ENCODING 83
SWIDTH 617 0
DWIDTH 21 0
BBX 16 25 3 1
BITMAP
1FC6
2076
603E
E01E
E00E
F006
F806
FC06
FF02
7F80
7FC0
3FF0
0FF8
07FC
81FE
80FE
C07F
C01F
C00F
E007
E007
F006
F806
DC0C
8778
ENDCHAR
STARTCHAR 0054
ENCODING 84
SWIDTH 735 0
DWIDTH 25 0
BBX 21 25 3 0
BITMAP
FFFFF8
F8F8F8
F0F878
E0F878
C0F838
C0F838
80F818
80F818
80F818
80F818
00F800
00F800
00F800
00F800
00F800
00F800
00F800
00F800
00F800
00F800
00F800
00F800
00F800
00F800
0FFF00
ENDCHAR
STARTCHAR 0055
ENCODING 85
SWIDTH 764 0
DWIDTH 26 0
BBX 23 25 2 0
BITMAP
FFE1FE
1F0078
1F0030
1F0010
1F0010
1F0010
1F0010
1F0010
1F0010
1F0010
1F0010
1F0010
1F0010
1F0010
1F0010
1F0010
1F0010
1F0010
1F0010
1F0010
0F0020
0F0020
078040
03C0C0
01FF00
ENDCHAR
STARTCHAR 0056
ENCODING 86
SWIDTH 794 0
DWIDTH 27 0
BBX 24 25 2 0
BITMAP
FFF1FF
1F8038
0F8030
0FC030
0FC030
07C020
07E020
07E060
03E040
03F040
01F0C0
01F080
01F880
00F980
00F980
00FD00
007D00
007F00
007E00
003E00
003E00
003C00
001C00
001C00
001800
ENDCHAR
STARTCHAR 0057
ENCODING 87
SWIDTH 1058 0
DWIDTH 36 0
BBX 34 25 1 0
BITMAP
FFE7FF7FC0
1F81F80E00
0F80F80E00
0F80FC0C00
0FC07C0C00
07C07C0C00
07C07C0800
07E0FE1800
03E0BE1800
03E0BE1800
03F19F1000
01F19F3000
01F11F3000
01F90F2000
01FB0FA000
00FA0FE000
00FE0FE000
00FE07C000
007E07C000
007C07C000
007C03C000
003C038000
0038038000
0038018000
0018018000
ENDCHAR
STARTCHAR 0058
ENCODING 88
SWIDTH 764 0
DWIDTH 26 0
BBX 23 25 2 0
BITMAP
FFE7FC
1FC1E0
0FC0C0
0FC180
07E180
07E300
03F200
03F600
01F400
01F800
00F800
00FC00
007C00
003E00
007E00
007F00
009F00
019F80
010F80
030FC0
0607E0
0407E0
0C03F0
1C07F0
FF8FFE
ENDCHAR
STARTCHAR 0059
ENCODING 89
SWIDTH 764 0
DWIDTH 26 0
BBX 23 25 2 0
BITMAP
FFE1FE
1F8070
1F8060
0F8060
0FC040
07C0C0
07E0C0
07E080
03E180
03F100
01F100
01FB00
00FA00
00FE00
00FC00
007C00
007C00
007C00
007C00
007C00
007C00
007C00
007C00
007C00
03FF80
ENDCHAR
STARTCHAR 005A
ENCODING 90
SWIDTH 647 0
DWIDTH 22 0
BBX 18 25 2 0
BITMAP
7FFFC0
7C0FC0
781F80
701F80
603F00
603F00
407E00
407E00
40FC00
00FC00
01F800
01F000
03F000
07E000
07E000
0FC040
0FC040
1F8040
1F8040
3F00C0
3F01C0
7E01C0
7E03C0
FC0FC0
FFFFC0
ENDCHAR
STARTCHAR 005B
ENCODING 91
SWIDTH 411 0
DWIDTH 14 0
BBX 8 31 3 -6
BITMAP
FF
F0
F0
F0
F0
F0
F0
F0
F0
F0
F0
F0
F0
F0
F0
F0
F0
F0
F0
F0
F0
F0
F0
F0
F0
F0
F0
F0
F0
F0
FF
ENDCHAR
STARTCHAR 005C
ENCODING 92
SWIDTH 441 0
DWIDTH 15 0
BBX 11 33 2 -7
BITMAP
C000
C000
E000
6000
6000
6000
7000
3000
3000
3800
1800
1800
1C00
0C00
0C00
0C00
0E00
0600
0600
0700
0300
0300
0300
0380
0180
0180
01C0
00C0
00C0
00E0
0060
0060
0060
ENDCHAR
STARTCHAR 005D
ENCODING 93
SWIDTH 382 0
DWIDTH 13 0
BBX 8 31 2 -6
BITMAP
FF
0F
0F
0F
0F
0F
0F
0F
0F
0F
0F
0F
0F
0F
0F
0F
0F
0F
0F
0F
0F
0F
0F
0F
0F
0F
0F
0F
0F
0F
FF
ENDCHAR
STARTCHAR 005E
ENCODING 94
SWIDTH 588 0
DWIDTH 20 0
BBX 16 12 2 14
BITMAP
0180
0380
03C0
07E0
0E60
0E70
1C38
1838
381C
700C
600E
E007
ENDCHAR
STARTCHAR 005F
ENCODING 95
SWIDTH 529 0
DWIDTH 18 0
BBX 18 2 0 -6
BITMAP
FFFFC0
FFFFC0
ENDCHAR
STARTCHAR 0060
ENCODING 96
SWIDTH 441 0
DWIDTH 15 0
BBX 6 7 3 18
BITMAP
E0
E0
F0
78
18
0C
04
ENDCHAR
STARTCHAR 0061
ENCODING 97
SWIDTH 529 0
DWIDTH 18 0
BBX 15 17 2 0
BITMAP
0F80
31E0
60F0
70F0
78F0
78F0
20F0
07F0
1CF0
38F0
78F0
F0F0
F0F2
F0F2
F0F2
79FC
3E78
ENDCHAR
STARTCHAR 0062
ENCODING 98
SWIDTH 529 0
DWIDTH 18 0
BBX 15 25 1 0
BITMAP
FC00
3C00
3C00
3C00
3C00
3C00
3C00
3C00
3CF0
3D38
3E3C
3E1C
3E1E
3E1E
3C1E
3C1E
3C1E
3C1E
3C1E
3E1E
3E1E
3E1C
323C
2338
21E0
ENDCHAR
STARTCHAR 0063
ENCODING 99
SWIDTH 470 0
DWIDTH 16 0
BBX 13 17 2 0
BITMAP
0780
1C60
3820
7870
78F0
F8F0
F0E0
F040
F000
F000
F000
F008
7810
7810
3810
1C20
07C0
ENDCHAR
STARTCHAR 0064
ENCODING 100
SWIDTH 588 0
DWIDTH 20 0
BBX 17 25 2 0
BITMAP
01FC00
003C00
003C00
003C00
003C00
003C00
003C00
003C00
0F3C00
1CBC00
387C00
787C00
783C00
F03C00
F03C00
F03C00
F03C00
F03C00
F03C00
F03C00
783C00
787C00
387C00
1CBC00
0F3F80
ENDCHAR
STARTCHAR 0065
ENCODING 101
SWIDTH 500 0
DWIDTH 17 0
BBX 13 17 2 0
BITMAP
0780
18E0
38F0
78F0
78F0
F078
F078
F078
FFF8
F000
F000
F008
7808
7818
3810
1C20
07C0
ENDCHAR
STARTCHAR 0066
ENCODING 102
SWIDTH 352 0
DWIDTH 12 0
BBX 12 25 1 0
BITMAP
03C0
0E70
1E70
1CF0
3CF0
3CF0
3C00
3C00
FF80
3C00
3C00
3C00
3C00
3C00
3C00
3C00
3C00
3C00
3C00
3C00
3C00
3C00
3C00
3C00
FF80
ENDCHAR
STARTCHAR 0067
ENCODING 103
SWIDTH 558 0
DWIDTH 19 0
BBX 17 25 1 -8
BITMAP
07C700
1CF980
3C7380
787B80
787B00
787800
787800
787800
3C7000
1CE000
07C000
380000
600000
7FC000
7FF800
7FFC00
3FFE00
3FFE00
400E00
800600
800600
800400
400C00
203800
1FE000
ENDCHAR
STARTCHAR 0068
ENCODING 104
SWIDTH 558 0
DWIDTH 19 0
BBX 17 25 1 0
BITMAP
FC0000
3C0000
3C0000
3C0000
3C0000
3C0000
3C0000
3C0000
3C7800
3DBC00
3D1C00
3E1E00
3E1E00
3E1E00
3C1E00
3C1E00
3C1E00
3C1E00
3C1E00
3C1E00
3C1E00
3C1E00
3C1E00
3C1E00
FF7F80
ENDCHAR
STARTCHAR 0069
ENCODING 105
SWIDTH 323 0
DWIDTH 11 0
BBX 8 25 2 0
BITMAP
38
7C
7C
7C
38
00
00
00
FC
3C
3C
3C
3C
3C
3C
3C
3C
3C
3C
3C
3C
3C
3C
3C
FF
ENDCHAR
STARTCHAR 006A
ENCODING 106
SWIDTH 294 0
DWIDTH 10 0
BBX 10 33 -2 -8
BITMAP
0380
07C0
07C0
07C0
0380
0000
0000
0000
1FC0
03C0
03C0
03C0
03C0
03C0
03C0
03C0
03C0
03C0
03C0
03C0
03C0
03C0
03C0
03C0
03C0
03C0
63C0
F3C0
F3C0
F380
E780
6700
3E00
ENDCHAR
STARTCHAR 006B
ENCODING 107
SWIDTH 558 0
DWIDTH 19 0
BBX 17 25 1 0
BITMAP
FC0000
3C0000
3C0000
3C0000
3C0000
3C0000
3C0000
3C0000
3C7F00
3C1800
3C1000
3C3000
3C2000
3C4000
3CC000
3CE000
3DE000
3EF000
3EF000
3C7800
3C7C00
3C3C00
3C3E00
3C3E00
FF7F80
ENDCHAR
STARTCHAR 006C
ENCODING 108
SWIDTH 323 0
DWIDTH 11 0
BBX 9 25 1 0
BITMAP
FC00
3C00
3C00
3C00
3C00
3C00
3C00
3C00
3C00
3C00
3C00
3C00
3C00
3C00
3C00
3C00
3C00
3C00
3C00
3C00
3C00
3C00
3C00
3C00
FF80
ENDCHAR
STARTCHAR 006D
ENCODING 109
SWIDTH 823 0
DWIDTH 28 0
BBX 25 17 1 0
BITMAP
FC787800
3DBC9E00
3D1F1E00
3E1F1E00
3E1E1F00
3E1E1F00
3C1E1F00
3C1E1F00
3C1E1F00
3C1E1F00
3C1E1F00
3C1E1F00
3C1E1F00
3C1E1F00
3C1E1F00
3C1E1F00
FF7FBF80
ENDCHAR
STARTCHAR 006E
ENCODING 110
SWIDTH 558 0
DWIDTH 19 0
BBX 17 17 1 0
BITMAP
FC7800
3DBC00
3D1C00
3E1E00
3E1E00
3E1E00
3C1E00
3C1E00
3C1E00
3C1E00
3C1E00
3C1E00
3C1E00
3C1E00
3C1E00
3C1E00
FF7F80
ENDCHAR
STARTCHAR 006F
ENCODING 111
SWIDTH 529 0
DWIDTH 18 0
BBX 14 17 2 0
BITMAP
0780
1CE0
3870
7878
7878
F03C
F03C
F03C
F03C
F03C
F03C
F03C
7878
7878
3870
18E0
0780
ENDCHAR
STARTCHAR 0070
ENCODING 112
SWIDTH 529 0
DWIDTH 18 0
BBX 15 25 1 -8
BITMAP
FCF0
3D38
3E3C
3E1C
3E1E
3E1E
3C1E
3C1E
3C1E
3C1E
3C1E
3E1E
3E1E
3E1C
3E3C
3D38
3CF0
3C00
3C00
3C00
3C00
3C00
3C00
3C00
FF80
ENDCHAR
STARTCHAR 0071
ENCODING 113
SWIDTH 558 0
DWIDTH 19 0
BBX 16 25 2 -8
BITMAP
0F84
1CC4
3864
787C
783C
F03C
F03C
F03C
F03C
F03C
F03C
F03C
787C
787C
387C
1CBC
0F3C
003C
003C
003C
003C
003C
003C
003C
01FF
ENDCHAR
STARTCHAR 0072
ENCODING 114
SWIDTH 411 0
DWIDTH 14 0
BBX 12 17 1 0
BITMAP
FCE0
3D70
3EF0
3EF0
3EF0
3E60
3C00
3C00
3C00
3C00
3C00
3C00
3C00
3C00
3C00
3C00
FF00
ENDCHAR
STARTCHAR 0073
ENCODING 115
SWIDTH 411 0
DWIDTH 14 0
BBX 11 17 2 0
BITMAP
3C40
6340
C1C0
C0C0
E0C0
F040
FC00
7F00
3F80
1FC0
87E0
81E0
C0E0
E060
E060
90C0
8F80
ENDCHAR
STARTCHAR 0074
ENCODING 116
SWIDTH 382 0
DWIDTH 13 0
BBX 11 24 1 0
BITMAP
0C00
0C00
0C00
0C00
0C00
1C00
3C00
FFC0
3C00
3C00
3C00
3C00
3C00
3C00
3C00
3C00
3C20
3C20
3C20
3C20
3C60
3C40
1FC0
0F80
ENDCHAR
STARTCHAR 0075
ENCODING 117
SWIDTH 558 0
DWIDTH 19 0
BBX 17 17 1 0
BITMAP
FC7E00
3C1E00
3C1E00
3C1E00
3C1E00
3C1E00
3C1E00
3C1E00
3C1E00
3C1E00
3C1E00
3C3E00
3C3E00
3C3E00
3C5E00
1E9E00
0F1F80
ENDCHAR
STARTCHAR 0076
ENCODING 118
SWIDTH 529 0
DWIDTH 18 0
BBX 17 17 0 0
BITMAP
FF9F80
1E0600
1E0400
1E0400
0F0C00
0F0800
0F0800
079800
079000
03D000
03F000
03E000
01E000
01C000
01C000
00C000
008000
ENDCHAR
STARTCHAR 0077
ENCODING 119
SWIDTH 764 0
DWIDTH 26 0
BBX 25 17 0 0
BITMAP
FF3FCF80
1E0F0600
1E0F0600
1E0F0400
0F078400
0F0F8400
078F8800
078BC800
0793C800
03D3D000
03D1F000
03E1F000
01E1E000
01E0E000
01C0E000
00C0C000
00C04000
ENDCHAR
STARTCHAR 0078
ENCODING 120
SWIDTH 529 0
DWIDTH 18 0
BBX 16 17 1 0
BITMAP
FF7E
3E18
1E10
1F10
0F20
0FC0
07C0
03C0
03C0
01E0
03F0
02F0
04F8
0878
087C
187E
FE7F
ENDCHAR
STARTCHAR 0079
ENCODING 121
SWIDTH 529 0
DWIDTH 18 0
BBX 17 25 0 -8
BITMAP
FF9F80
3E0600
1E0400
1F0400
0F0800
0F0800
0F8800
078800
079000
03D000
03D000
03E000
01E000
01E000
00E000
00C000
004000
004000
008000
1C8000
3C8000
3C8000
390000
3B0000
1E0000
ENDCHAR
STARTCHAR 007A
ENCODING 122
SWIDTH 470 0
DWIDTH 16 0
BBX 13 17 1 0
BITMAP
7FF8
70F8
60F0
61E0
43E0
43C0
07C0
0780
0F80
0F00
1F08
1E08
3C18
7C18
7838
F878
FFF8
ENDCHAR
STARTCHAR 007B
ENCODING 123
SWIDTH 441 0
DWIDTH 15 0
BBX 11 33 2 -7
BITMAP
0020
03C0
0700
0F00
1E00
1E00
1E00
1E00
1E00
1E00
1E00
1E00
1E00
1E00
1E00
3800
E000
3800
1C00
1E00
1E00
1E00
1E00
1E00
1E00
1E00
1E00
1E00
1E00
0E00
0700
03C0
0020
ENDCHAR
STARTCHAR 007C
ENCODING 124
SWIDTH 294 0
DWIDTH 10 0
BBX 2 32 4 -7
BITMAP
C0
C0
C0
C0
C0
C0
C0
C0
C0
C0
C0
C0
C0
C0
C0
C0
C0
C0
C0
C0
C0
C0
C0
C0
C0
C0
C0
C0
C0
C0
C0
C0
ENDCHAR
STARTCHAR 007D
ENCODING 125
SWIDTH 441 0
DWIDTH 15 0
BBX 11 33 3 -7
BITMAP
8000
F000
3C00
1E00
1E00
1E00
1E00
1E00
1E00
1E00
1E00
1E00
1E00
1E00
0F00
0700
01E0
0700
0F00
1E00
1E00
1E00
1E00
1E00
1E00
1E00
1E00
1E00
1E00
1E00
3C00
F000
8000
ENDCHAR
STARTCHAR 007E
ENCODING 126
SWIDTH 676 0
DWIDTH 23 0
BBX 19 7 2 6
BITMAP
3E0040
7F8020
FFF020
87FC20
81FFE0
803FC0
400F80
ENDCHAR
STARTCHAR 00A0
ENCODING 160
SWIDTH 294 0
DWIDTH 10 0
BBX 0 0 0 0
BITMAP
ENDCHAR
STARTCHAR 00A1
ENCODING 161
SWIDTH 294 0
DWIDTH 10 0
BBX 6 26 2 -8
BITMAP
78
FC
FC
FC
78
00
00
00
20
30
30
30
30
30
30
78
78
78
78
FC
FC
FC
FC
FC
FC
78
ENDCHAR
STARTCHAR 00A2
ENCODING 162
SWIDTH 558 0
DWIDTH 19 0
BBX 13 25 3 -4
BITMAP
0100
0100
0100
0100
0FC0
1D20
3930
7970
7970
F970
F160
F100
F100
F100
F100
F108
7910
7910
3910
1D20
0FC0
0100
0100
0100
0100
ENDCHAR
STARTCHAR 00A3
ENCODING 163
SWIDTH 705 0
DWIDTH 24 0
BBX 21 26 2 0
BITMAP
000200
003DC0
007060
00F070
01E070
01E0F0
03E0F0
03E0E0
03E000
03E000
03E000
1FE000
23E100
01FE00
01F000
01F000
00F000
00F000
00F000
00E000
00E008
3CC010
C7C030
83FFE0
83FFC0
7C3F80
ENDCHAR
STARTCHAR 00A4
ENCODING 164
SWIDTH 588 0
DWIDTH 20 0
BBX 18 17 1 3
BITMAP
400080
E3F1C0
7FFF80
3C0F00
380700
300300
700380
600180
600180
600180
600180
700380
300300
380700
3E1F00
7FFF80
63F180
ENDCHAR
STARTCHAR 00A5
ENCODING 165
SWIDTH 588 0
DWIDTH 20 0
BBX 18 25 1 0
BITMAP
FF8FC0
3F0380
3F0300
1F0300
1F8200
0F8200
0FC400
0FC400
07C400
07E800
03E800
03F800
03F000
3FFF80
01F000
01F000
3FFF80
01F000
01F000
01F000
01F000
01F000
01F000
01F000
1FFE00
ENDCHAR
STARTCHAR 00A6
ENCODING 166
SWIDTH 294 0
DWIDTH 10 0
BBX 2 32 4 -6
BITMAP
C0
C0
C0
C0
C0
C0
C0
C0
C0
C0
C0
C0
C0
00
00
00
00
00
00
C0
C0
C0
C0
C0
C0
C0
C0
C0
C0
C0
C0
C0
ENDCHAR
STARTCHAR 00A7
ENCODING 167
SWIDTH 647 0
DWIDTH 22 0
BBX 15 32 2 -7
BITMAP
07E0
1C18
3818
301C
707C
707C
707C
7838
7C00
3F00
1FE0
7FF0
47FC
C1FC
C07E
E01E
F80E
FE06
7F86
3FE4
1FF8
07F8
01F8
007C
3C3C
3C1C
7C1C
7C1C
7018
3038
1870
0FC0
ENDCHAR
STARTCHAR 00A8
ENCODING 168
SWIDTH 441 0
DWIDTH 15 0
BBX 11 4 2 19
BITMAP
71C0
F1E0
F1E0
71C0
ENDCHAR
STARTCHAR 00A9
ENCODING 169
SWIDTH 823 0
DWIDTH 28 0
BBX 24 25 2 1
BITMAP
01FF80
060040
0C0030
180018
303C88
20E384
41C186
41C182
C3C082
83C083
83C081
83C001
83C001
83C001
83C041
83C083
C3C082
41C082
41C186
20E304
303C08
100018
0C0030
060040
01FF80
ENDCHAR
STARTCHAR 00AA
ENCODING 170
SWIDTH 382 0
DWIDTH 13 0
BBX 10 13 1 12
BITMAP
3C00
4600
C700
E700
4700
3F00
6700
E700
E740
E740
7B80
0000
FF80
ENDCHAR
STARTCHAR 00AB
ENCODING 171
SWIDTH 500 0
DWIDTH 17 0
BBX 9 15 4 1
BITMAP
0800
1880
3080
6100
6300
E300
E300
E300
E300
E300
E300
6100
3180
3080
0800
ENDCHAR
STARTCHAR 00AC
ENCODING 172
SWIDTH 588 0
DWIDTH 20 0
BBX 16 9 2 5
BITMAP
FFFF
FFFF
0003
0003
0003
0003
0003
0003
0003
ENDCHAR
STARTCHAR 00AD
ENCODING 173
SWIDTH 382 0
DWIDTH 13 0
BBX 9 4 2 7
BITMAP
FF80
FF80
FF80
FF80
ENDCHAR
STARTCHAR 00AE
ENCODING 174
SWIDTH 823 0
DWIDTH 28 0
BBX 24 25 2 1
BITMAP
01FF80
060040
0C0030
180018
37FE08
21E384
41E3C6
41E3C2
C1E3C2
81E3C3
81E781
81FC01
81E701
81E381
81E3C1
81E3C3
C1E3D2
41E3D2
41E3D6
21E3D4
37F9E8
100018
0C0030
060040
01FF80
ENDCHAR
STARTCHAR 00AF
ENCODING 175
SWIDTH 441 0
DWIDTH 15 0
BBX 9 2 3 20
BITMAP
FF80
FF80
ENDCHAR
STARTCHAR 00B0
ENCODING 176
SWIDTH 558 0
DWIDTH 19 0
BBX 11 10 4 16
BITMAP
3F80
7BC0
E0C0
C060
C060
C060
C0E0
61C0
3F80
1F00
ENDCHAR
STARTCHAR 00B1
ENCODING 177
SWIDTH 970 0
DWIDTH 33 0
BBX 29 26 2 -2
BITMAP
00060000
00060000
00060000
00060000
00060000
00060000
00060000
00060000
00060000
00060000
FFFFFFF8
FFFFFFF8
00060000
00060000
00060000
00060000
00060000
00060000
00060000
00060000
00060000
00060000
00000000
00000000
FFFFFFF0
FFFFFFF0
ENDCHAR
STARTCHAR 00B2
ENCODING 178
SWIDTH 441 0
DWIDTH 15 0
BBX 10 16 3 9
BITMAP
1F00
6780
C3C0
C3C0
E3C0
F380
0780
0E00
1C00
3040
4040
4040
FFC0
FFC0
9F80
8700
ENDCHAR
STARTCHAR 00B3
ENCODING 179
SWIDTH 441 0
DWIDTH 15 0
BBX 11 16 2 9
BITMAP
1F00
2380
63C0
73C0
73C0
3380
0300
1C00
0380
03C0
61E0
F1E0
F1E0
E3E0
63C0
3F00
ENDCHAR
STARTCHAR 00B4
ENCODING 180
SWIDTH 441 0
DWIDTH 15 0
BBX 6 7 6 18
BITMAP
1C
1C
3C
78
60
C0
80
ENDCHAR
STARTCHAR 00B5
ENCODING 181
SWIDTH 588 0
DWIDTH 20 0
BBX 17 27 2 -10
BITMAP
603000
707800
F07800
F07800
F07800
F07800
F07800
F07800
F07800
603800
603080
603080
607180
207F80
30FF80
5FCF00
478F00
400000
600000
600000
700000
700000
780000
780000
780000
780000
300000
ENDCHAR
STARTCHAR 00B6
ENCODING 182
SWIDTH 588 0
DWIDTH 20 0
BBX 17 30 2 -5
BITMAP
0FFF80
3F8C00
7F8C00
7F8C00
FF8C00
FF8C00
FF8C00
FF8C00
FF8C00
7F8C00
7F8C00
3F8C00
1F8C00
018C00
018C00
018C00
018C00
018C00
018C00
018C00
018C00
018C00
018C00
018C00
018C00
018C00
018C00
018C00
018C00
018C00
ENDCHAR
STARTCHAR 00B7
ENCODING 183
SWIDTH 264 0
DWIDTH 9 0
BBX 5 5 2 9
BITMAP
70
F8
F8
F8
70
ENDCHAR
STARTCHAR 00B8
ENCODING 184
SWIDTH 441 0
DWIDTH 15 0
BBX 7 7 4 -7
BITMAP
20
20
18
0E
0E
0E
FC
ENDCHAR
STARTCHAR 00B9
ENCODING 185
SWIDTH 470 0
DWIDTH 16 0
BBX 8 15 4 10
BITMAP
0C
1C
FC
3C
3C
3C
3C
3C
3C
3C
3C
3C
3C
3C
FF
ENDCHAR
STARTCHAR 00BA
ENCODING 186
SWIDTH 382 0
DWIDTH 13 0
BBX 9 13 2 12
BITMAP
1C00
6700
6300
E380
E380
E380
E380
E380
6300
6700
1C00
0000
FF80
ENDCHAR
STARTCHAR 00BB
ENCODING 187
SWIDTH 500 0
DWIDTH 17 0
BBX 9 14 4 2
BITMAP
8400
C600
6300
6300
7380
7380
7380
7380
7380
6380
6300
C300
8600
0C00
ENDCHAR
STARTCHAR 00BC
ENCODING 188
SWIDTH 911 0
DWIDTH 31 0
BBX 25 26 4 0
BITMAP
00003000
0C003000
1C006000
FC006000
3C00C000
3C008000
3C018000
3C030000
3C030000
3C060000
3C060000
3C0C0E00
3C0C1E00
3C181E00
3C103E00
FF303E00
00605E00
00609E00
00C09E00
00C11E00
01831E00
0183FF80
03001E00
02001E00
06001E00
0C00FF80
ENDCHAR
STARTCHAR 00BD
ENCODING 189
SWIDTH 911 0
DWIDTH 31 0
BBX 25 26 4 0
BITMAP
00003000
1C002000
FC006000
3C004000
3C00C000
3C018000
3C018000
3C030000
3C030000
3C060000
3C043E00
3C0CCF00
3C098780
3C198780
3C31C780
FF31E700
0060CF00
00601C00
00C03800
00806000
01804080
03008080
0301FF80
0601FF80
06013F00
0C010E00
ENDCHAR
STARTCHAR 00BE
ENCODING 190
SWIDTH 882 0
DWIDTH 30 0
BBX 26 26 2 0
BITMAP
00001800
1F001800
23803000
63C03000
73C06000
73C04000
3380C000
03008000
1C018000
03830000
03C30000
71E60700
F1E40F00
E3EC0F00
63C81F00
3F181F00
00102F00
00304F00
00604F00
00608F00
00C08F00
0081FFC0
01800F00
01000F00
03000F00
02007FC0
ENDCHAR
STARTCHAR 00BF
ENCODING 191
SWIDTH 470 0
DWIDTH 16 0
BBX 11 26 2 -8
BITMAP
1C00
3E00
3E00
3E00
1C00
0000
0000
1E00
3100
2100
2100
0100
0200
0600
0E00
1C00
3C00
78C0
7840
F820
F020
F020
F020
7840
7840
1F80
ENDCHAR
STARTCHAR 00C0
ENCODING 192
SWIDTH 735 0
DWIDTH 25 0
BBX 23 33 1 0
BITMAP
018000
01C000
00E000
006000
003000
001000
000000
001000
001800
003800
003800
003C00
007C00
007C00
007E00
00FE00
00FE00
009E00
019F00
019F00
011F00
030F80
030F80
030F80
0607C0
07FFC0
0607C0
0407E0
0C03E0
0C03E0
1C03F0
1C03F0
FF9FFE
ENDCHAR
STARTCHAR 00C1
ENCODING 193
SWIDTH 735 0
DWIDTH 25 0
BBX 23 33 1 0
BITMAP
000300
000780
000700
000E00
001C00
001000
000000
001000
001800
003800
003800
003C00
007C00
007C00
007E00
00FE00
00FE00
009F00
019F00
019F00
011F80
030F80
030F80
030F80
0607C0
07FFC0
0607C0
0C07E0
0C03E0
0C03E0
1C03F0
3C03F8
FF9FFE
ENDCHAR
STARTCHAR 00C2
ENCODING 194
SWIDTH 735 0
DWIDTH 25 0
BBX 23 33 1 0
BITMAP
001000
003800
003800
007C00
00C700
018180
000000
001000
001800
003800
003800
003C00
007C00
007C00
007E00
00FE00
00FE00
009E00
019F00
019F00
011F00
030F80
030F80
030F80
0607C0
07FFC0
0607C0
0407E0
0C03E0
0C03E0
1C03F0
1C03F0
FF9FFE
ENDCHAR
STARTCHAR 00C3
ENCODING 195
SWIDTH 735 0
DWIDTH 25 0
BBX 23 32 1 0
BITMAP
007080
00F900
01BF00
010E00
000000
000000
000000
001800
003800
003800
003C00
007C00
007C00
007E00
00FE00
00FE00
009F00
019F00
019F00
011F80
030F80
030F80
030F80
0607C0
07FFC0
0607C0
0C07E0
0C03E0
0C03E0
1C03F0
3C03F8
FF9FFE
ENDCHAR
STARTCHAR 00C4
ENCODING 196
SWIDTH 735 0
DWIDTH 25 0
BBX 23 32 1 0
BITMAP
01C380
03C780
03C780
01C380
000000
000000
001800
003800
003800
003800
003C00
007C00
007C00
007E00
00FE00
00FE00
009F00
019F00
019F00
010F80
030F80
020F80
020FC0
0607C0
07FFC0
0407C0
0403E0
0803E0
0803E0
1801F0
1803F0
FF9FFE
ENDCHAR
STARTCHAR 00C5
ENCODING 197
SWIDTH 735 0
DWIDTH 25 0
BBX 23 33 1 0
BITMAP
003C00
007E00
00C300
00C300
00C700
007E00
003C00
000000
001800
003800
003800
003C00
007C00
007C00
007E00
00FE00
00FE00
009F00
019F00
019F00
010F00
030F80
030F80
020F80
0207C0
07FFC0
0407C0
0403E0
0C03E0
0803E0
1801F0
1C01F0
FF9FFE
ENDCHAR
STARTCHAR 00C6
ENCODING 198
SWIDTH 1000 0
DWIDTH 34 0
BBX 32 25 1 0
BITMAP
000FFFFF
0003F01F
0007F00F
0007F007
0005F007
000DF003
0009F003
0019F023
0019F020
0031F060
0031F060
0061F0E0
0061FFE0
00C1F0E0
00C1F060
0181F060
0181F021
03FFF021
0301F003
0601F003
0601F007
0C01F007
0C01F00F
3E01F03F
FF8FFFFF
ENDCHAR
STARTCHAR 00C7
ENCODING 199
SWIDTH 647 0
DWIDTH 22 0
BBX 19 33 2 -7
BITMAP
03F8C0
0E06C0
1E03C0
3C03C0
3C01C0
7C01C0
7C00C0
7C00C0
FC00C0
FC0040
FC0040
FC0000
FC0000
FC0000
FC0000
FC0000
FC0060
7C0040
7C0040
7C0040
3C00C0
3E0080
1E0100
0F0200
039C00
00E000
008000
00F000
003800
003800
003800
023000
01E000
ENDCHAR
STARTCHAR 00C8
ENCODING 200
SWIDTH 676 0
DWIDTH 23 0
BBX 20 33 2 0
BITMAP
030000
078000
038000
01C000
00E000
002000
000000
000000
FFFFE0
1F01E0
1F00E0
1F00E0
1F0060
1F0060
1F0020
1F0420
1F0400
1F0C00
1F0C00
1F1C00
1FFC00
1F1C00
1F0C00
1F0C30
1F0430
1F0430
1F0030
1F0070
1F0070
1F00F0
1F01F0
1F03F0
FFFFF0
ENDCHAR
STARTCHAR 00C9
ENCODING 201
SWIDTH 676 0
DWIDTH 23 0
BBX 20 33 2 0
BITMAP
000600
000E00
001E00
001C00
003000
006000
000000
000000
FFFFE0
1F01E0
1F00E0
1F00E0
1F0060
1F0060
1F0020
1F0420
1F0400
1F0C00
1F0C00
1F1C00
1FFC00
1F1C00
1F0C00
1F0C30
1F0430
1F0430
1F0030
1F0070
1F0070
1F00F0
1F00F0
1F03F0
FFFFF0
ENDCHAR
STARTCHAR 00CA
ENCODING 202
SWIDTH 676 0
DWIDTH 23 0
BBX 20 33 2 0
BITMAP
002000
006000
00F000
01F800
038C00
060300
000000
000000
FFFFE0
1F01E0
1F00E0
1F00E0
1F0060
1F0060
1F0020
1F0420
1F0400
1F0C00
1F0C00
1F1C00
1FFC00
1F1C00
1F0C00
1F0C30
1F0430
1F0430
1F0030
1F0070
1F0070
1F00F0
1F01F0
1F03F0
FFFFF0
ENDCHAR
STARTCHAR 00CB
ENCODING 203
SWIDTH 676 0
DWIDTH 23 0
BBX 20 32 2 0
BITMAP
070E00
078F00
078F00
070E00
000000
000000
000000
FFFFE0
1F01E0
1F00E0
1F00E0
1F0060
1F0060
1F0020
1F0420
1F0400
1F0C00
1F0C00
1F1C00
1FFC00
1F1C00
1F0C00
1F0C30
1F0430
1F0430
1F0030
1F0070
1F0070
1F00F0
1F00F0
1F03F0
FFFFF0
ENDCHAR
STARTCHAR 00CC
ENCODING 204
SWIDTH 411 0
DWIDTH 14 0
BBX 11 33 2 0
BITMAP
6000
7000
7800
3800
1C00
0400
0000
0000
FFE0
1F00
1F00
1F00
1F00
1F00
1F00
1F00
1F00
1F00
1F00
1F00
1F00
1F00
1F00
1F00
1F00
1F00
1F00
1F00
1F00
1F00
1F00
1F00
FFE0
ENDCHAR
STARTCHAR 00CD
ENCODING 205
SWIDTH 411 0
DWIDTH 14 0
BBX 11 33 2 0
BITMAP
00C0
01C0
03C0
0380
0700
0400
0000
0000
FFE0
1F00
1F00
1F00
1F00
1F00
1F00
1F00
1F00
1F00
1F00
1F00
1F00
1F00
1F00
1F00
1F00
1F00
1F00
1F00
1F00
1F00
1F00
1F00
FFE0
ENDCHAR
STARTCHAR 00CE
ENCODING 206
SWIDTH 411 0
DWIDTH 14 0
BBX 11 33 2 0
BITMAP
0400
0E00
0E00
1F00
7180
C060
0000
0000
FFE0
1F00
1F00
1F00
1F00
1F00
1F00
1F00
1F00
1F00
1F00
1F00
1F00
1F00
1F00
1F00
1F00
1F00
1F00
1F00
1F00
1F00
1F00
1F00
FFE0
ENDCHAR
STARTCHAR 00CF
ENCODING 207
SWIDTH 441 0
DWIDTH 15 0
BBX 11 32 2 0
BITMAP
70E0
F1E0
F1E0
70E0
0000
0000
0000
FFE0
1F00
1F00
1F00
1F00
1F00
1F00
1F00
1F00
1F00
1F00
1F00
1F00
1F00
1F00
1F00
1F00
1F00
1F00
1F00
1F00
1F00
1F00
1F00
FFE0
ENDCHAR
STARTCHAR 00D0
ENCODING 208
SWIDTH 794 0
DWIDTH 27 0
BBX 23 25 2 0
BITMAP
FFFF00
1F03C0
1F00E0
1F00F0
1F0078
1F0078
1F007C
1F007C
1F007E
1F007E
1F007E
FFE07E
1F007E
1F007E
1F007E
1F007E
1F007C
1F007C
1F007C
1F0078
1F0078
1F00F0
1F00E0
1F03C0
FFFF00
ENDCHAR
STARTCHAR 00D1
ENCODING 209
SWIDTH 794 0
DWIDTH 27 0
BBX 24 32 2 0
BITMAP
007040
00FCC0
009F80
008700
000000
000000
000000
FF03FF
1F807C
1F8038
0FC010
07E010
07F010
07F010
05F810
05FC10
04FC10
047E10
047F10
043F10
041F90
041FD0
040FD0
0407F0
0407F0
0403F0
0401F0
0401F0
0400F0
0E0070
1F0030
FFC030
ENDCHAR
STARTCHAR 00D2
ENCODING 210
SWIDTH 705 0
DWIDTH 24 0
BBX 20 33 2 1
BITMAP
070000
078000
038000
01C000
00C000
006000
000000
000000
03FC00
060600
0E0700
1C0380
3C03C0
3C03C0
7C03E0
7C03E0
7C03E0
FC03F0
FC03F0
FC03F0
FC03F0
FC03F0
FC03F0
FC03F0
7C03E0
7C03E0
7C03E0
3C03C0
3C03C0
1C0380
0E0700
060600
03FC00
ENDCHAR
STARTCHAR 00D3
ENCODING 211
SWIDTH 705 0
DWIDTH 24 0
BBX 20 33 2 1
BITMAP
000E00
001E00
001C00
003800
003000
006000
000000
000000
03FC00
060600
0E0700
1C0380
3C03C0
3C03C0
7C03E0
7C03E0
7C03E0
FC03F0
FC03F0
FC03F0
FC03F0
FC03F0
FC03F0
FC03F0
7C03E0
7C03E0
7C03E0
3C03C0
3C03C0
1C0380
0E0700
060600
03FC00
ENDCHAR
STARTCHAR 00D4
ENCODING 212
SWIDTH 705 0
DWIDTH 24 0
BBX 20 33 2 0
BITMAP
006000
006000
00F000
01F800
039C00
060600
000000
000000
03FC00
060600
0E0700
1C0380
3C03C0
3C03C0
7C03E0
7C03E0
7C03E0
FC03F0
FC03F0
FC03F0
FC03F0
FC03F0
FC03F0
FC03F0
7C03E0
7C03E0
7C03E0
3C03C0
3C03C0
1C0380
0E0700
060600
03FC00
ENDCHAR
STARTCHAR 00D5
ENCODING 213
SWIDTH 705 0
DWIDTH 24 0
BBX 20 32 2 0
BITMAP
01C200
03E600
067C00
043800
000000
000000
000000
03FC00
060600
0E0700
1C0380
3C03C0
3C03C0
7C03E0
7C03E0
7C03E0
FC03F0
FC03F0
FC03F0
FC03F0
FC03F0
FC03F0
FC03F0
7C03E0
7C03E0
7C03E0
3C03C0
3C03C0
1C0380
0E0700
060600
03FC00
ENDCHAR
STARTCHAR 00D6
ENCODING 214
SWIDTH 705 0
DWIDTH 24 0
BBX 20 32 2 0
BITMAP
070E00
078F00
078F00
070E00
000000
000000
000000
03FC00
060600
0E0700
1C0380
3C03C0
3C03C0
7C03E0
7C03E0
7C03E0
FC03F0
FC03F0
FC03F0
FC03F0
FC03F0
FC03F0
FC03F0
7C03E0
7C03E0
7C03E0
3C03C0
3C03C0
1C0380
0E0700
060600
03FC00
ENDCHAR
STARTCHAR 00D7
ENCODING 215
SWIDTH 941 0
DWIDTH 32 0
BBX 22 23 5 -2
BITMAP
400008
E0001C
F0003C
780078
3800F0
1C00E0
0E01C0
070380
038700
01CE00
00FC00
007800
007800
00FC00
01CE00
038700
070380
0E01C0
1C00E0
380070
700038
E0001C
400008
ENDCHAR
STARTCHAR 00D8
ENCODING 216
SWIDTH 705 0
DWIDTH 24 0
BBX 20 25 2 1
BITMAP
03FC30
060660
0E03C0
1C0380
3C03C0
3C03C0
7C03E0
7C07E0
7C0FE0
FC0BF0
FC13F0
FC23F0
FC63F0
FC43F0
FC83F0
FD03F0
7F03E0
7E03E0
7C03E0
3C03C0
3C03C0
1C0380
3C0700
660600
C3FC00
ENDCHAR
STARTCHAR 00D9
ENCODING 217
SWIDTH 764 0
DWIDTH 26 0
BBX 23 33 2 1
BITMAP
01C000
01E000
00E000
007000
003800
000800
000000
000000
FFE1FE
1F0078
1F0030
1F0010
1F0010
1F0010
1F0010
1F0010
1F0010
1F0010
1F0010
1F0010
1F0010
1F0010
1F0010
1F0010
1F0010
1F0010
1F0010
1F0010
0F0020
0F0020
078040
03C0C0
01FF00
ENDCHAR
STARTCHAR 00DA
ENCODING 218
SWIDTH 764 0
DWIDTH 26 0
BBX 23 33 2 1
BITMAP
000380
000380
000780
000E00
000C00
001800
000000
000000
FFE1FE
1F0078
1F0030
1F0010
1F0010
1F0010
1F0010
1F0010
1F0010
1F0010
1F0010
1F0010
1F0010
1F0010
1F0010
1F0010
1F0010
1F0010
1F0010
1F0010
0F0020
0F0020
078040
03C0C0
01FF00
ENDCHAR
STARTCHAR 00DB
ENCODING 219
SWIDTH 764 0
DWIDTH 26 0
BBX 23 33 2 0
BITMAP
000800
001800
003C00
007E00
00E300
0180C0
000000
000000
FFE1FE
1F0078
1F0030
1F0010
1F0010
1F0010
1F0010
1F0010
1F0010
1F0010
1F0010
1F0010
1F0010
1F0010
1F0010
1F0010
1F0010
1F0010
1F0010
1F0010
0F0030
0F8020
078040
03C0C0
01FF00
ENDCHAR
STARTCHAR 00DC
ENCODING 220
SWIDTH 764 0
DWIDTH 26 0
BBX 23 32 2 0
BITMAP
01C380
01E3C0
01E3C0
01C380
000000
000000
000000
FFE1FE
1F0078
1F0030
1F0010
1F0010
1F0010
1F0010
1F0010
1F0010
1F0010
1F0010
1F0010
1F0010
1F0010
1F0010
1F0010
1F0010
1F0010
1F0010
1F0010
0F0020
0F0020
078040
03C0C0
01FF00
ENDCHAR
STARTCHAR 00DD
ENCODING 221
SWIDTH 764 0
DWIDTH 26 0
BBX 23 33 2 0
BITMAP
000180
000380
000780
000700
000C00
000800
000000
000000
FFE1FE
1F8070
1F8060
0F8060
0FC040
07C0C0
07E0C0
07E080
03E180
03F100
01F100
01FB00
00FA00
00FE00
00FC00
007C00
007C00
007C00
007C00
007C00
007C00
007C00
007C00
007C00
03FF80
ENDCHAR
STARTCHAR 00DE
ENCODING 222
SWIDTH 705 0
DWIDTH 24 0
BBX 20 25 2 0
BITMAP
FFF000
1F0000
1F0000
1F0000
1F0000
1FFE00
1F0780
1F03C0
1F01E0
1F01F0
1F01F0
1F01F0
1F01F0
1F01F0
1F01E0
1F03C0
1F0780
1FFE00
1F0000
1F0000
1F0000
1F0000
1F0000
1F0000
FFF000
ENDCHAR
STARTCHAR 00DF
ENCODING 223
SWIDTH 558 0
DWIDTH 19 0
BBX 16 25 1 0
BITMAP
03E0
0678
0E3C
1E3C
1C3C
3C3C
3C3C
3C38
3C70
3DC0
3C30
3C1C
3C1E
3C1E
3C0F
3C0F
3C0F
3C0F
3C0F
3C0F
3DCF
3FDE
3F9E
3D9C
FCF8
ENDCHAR
STARTCHAR 00E0
ENCODING 224
SWIDTH 529 0
DWIDTH 18 0
BBX 15 25 2 0
BITMAP
3000
3800
3C00
1C00
0E00
0200
0000
0000
0F80
31E0
60F0
70F0
78F0
78F0
30F0
03F0
1CF0
38F0
78F0
F0F0
F0F2
F0F2
F0F2
79FC
3E78
ENDCHAR
STARTCHAR 00E1
ENCODING 225
SWIDTH 529 0
DWIDTH 18 0
BBX 15 25 2 0
BITMAP
00E0
00E0
01E0
01C0
0300
0600
0400
0000
0F80
31E0
60F0
70F0
78F0
78F0
20F0
07F0
1CF0
38F0
78F0
F0F0
F0F2
F0F2
F0F2
79FC
3E78
ENDCHAR
STARTCHAR 00E2
ENCODING 226
SWIDTH 529 0
DWIDTH 18 0
BBX 15 25 2 0
BITMAP
0700
0700
0F00
0D80
18C0
7060
0000
0000
0F80
31E0
60F0
70F0
78F0
78F0
20F0
07F0
1CF0
38F0
78F0
F0F0
F0F2
F0F2
F0F2
79FC
3E78
ENDCHAR
STARTCHAR 00E3
ENCODING 227
SWIDTH 529 0
DWIDTH 18 0
BBX 15 24 2 0
BITMAP
1C20
3F20
67E0
41C0
0000
0000
0000
0F80
31E0
60F0
70F0
78F0
78F0
30F0
07F0
1CF0
38F0
78F0
F0F0
F0F2
F0F2
F0F2
79FC
3E78
ENDCHAR
STARTCHAR 00E4
ENCODING 228
SWIDTH 529 0
DWIDTH 18 0
BBX 15 24 2 0
BITMAP
70E0
78F0
78F0
70E0
0000
0000
0000
0F80
31E0
60F0
70F0
78F0
78F0
20F0
07F0
1CF0
38F0
78F0
F0F0
F0F2
F0F2
F0F2
79FC
3E78
ENDCHAR
STARTCHAR 00E5
ENCODING 229
SWIDTH 529 0
DWIDTH 18 0
BBX 15 25 2 1
BITMAP
0F80
19C0
10C0
10C0
18C0
0F80
0700
0000
0F80
31E0
60F0
70F0
78F0
78F0
20F0
07F0
18F0
38F0
70F0
F0F0
F0F2
F0F2
F0F2
79FC
3E78
ENDCHAR
STARTCHAR 00E6
ENCODING 230
SWIDTH 735 0
DWIDTH 25 0
BBX 21 17 2 0
BITMAP
1F8F80
31F8E0
60F8F0
70F870
78F878
78F078
30F078
03F078
1CFFF8
38F000
78F000
F0F008
F0F808
F0F808
F0F810
79BC30
3E0FC0
ENDCHAR
STARTCHAR 00E7
ENCODING 231
SWIDTH 470 0
DWIDTH 16 0
BBX 13 24 2 -7
BITMAP
0780
1C60
3820
7870
78F0
F8F0
F0E0
F040
F000
F000
F000
F008
7810
7810
3810
1C20
0FC0
0200
0400
0380
01C0
01C0
11C0
0F80
ENDCHAR
STARTCHAR 00E8
ENCODING 232
SWIDTH 500 0
DWIDTH 17 0
BBX 13 25 2 0
BITMAP
3000
3800
3C00
1C00
0600
0300
0000
0000
0780
18E0
38F0
78F0
78F0
F078
F078
F078
FFF8
F000
F000
F008
7808
7818
3810
1C20
07C0
ENDCHAR
STARTCHAR 00E9
ENCODING 233
SWIDTH 500 0
DWIDTH 17 0
BBX 13 25 2 0
BITMAP
0060
00E0
01E0
01C0
0380
0600
0000
0000
0780
18E0
38F0
78F0
78F0
F078
F078
F078
FFF8
F000
F000
F008
7808
7818
3810
1C20
07C0
ENDCHAR
STARTCHAR 00EA
ENCODING 234
SWIDTH 500 0
DWIDTH 17 0
BBX 13 25 2 0
BITMAP
0700
0700
0F80
0D80
18C0
3070
0000
0000
0780
18E0
38F0
78F0
78F0
F078
F078
F078
FFF8
F000
F000
F008
7808
7818
3810
1C20
07C0
ENDCHAR
STARTCHAR 00EB
ENCODING 235
SWIDTH 500 0
DWIDTH 17 0
BBX 13 24 2 0
BITMAP
38E0
78F0
78F0
38E0
0000
0000
0000
0780
18E0
38F0
78F0
78F0
F078
F078
F078
FFF8
F000
F000
F008
7808
7818
3810
1C20
07C0
ENDCHAR
STARTCHAR 00EC
ENCODING 236
SWIDTH 294 0
DWIDTH 10 0
BBX 8 25 1 0
BITMAP
C0
E0
F0
70
18
0C
00
00
FC
3C
3C
3C
3C
3C
3C
3C
3C
3C
3C
3C
3C
3C
3C
3C
FF
ENDCHAR
STARTCHAR 00ED
ENCODING 237
SWIDTH 294 0
DWIDTH 10 0
BBX 8 25 1 0
BITMAP
03
07
07
0E
1C
10
00
00
FC
3C
3C
3C
3C
3C
3C
3C
3C
3C
3C
3C
3C
3C
3C
3C
FF
ENDCHAR
STARTCHAR 00EE
ENCODING 238
SWIDTH 294 0
DWIDTH 10 0
BBX 10 25 0 0
BITMAP
1C00
1E00
1E00
3700
6180
C0C0
0000
0000
7E00
1E00
1E00
1E00
1E00
1E00
1E00
1E00
1E00
1E00
1E00
1E00
1E00
1E00
1E00
1E00
7F80
ENDCHAR
STARTCHAR 00EF
ENCODING 239
SWIDTH 323 0
DWIDTH 11 0
BBX 10 24 1 0
BITMAP
7380
F3C0
F3C0
7380
0000
0000
0000
7E00
1E00
1E00
1E00
1E00
1E00
1E00
1E00
1E00
1E00
1E00
1E00
1E00
1E00
1E00
1E00
7F80
ENDCHAR
STARTCHAR 00F0
ENCODING 240
SWIDTH 529 0
DWIDTH 18 0
BBX 14 25 2 0
BITMAP
1E30
0F60
0F80
0780
0FC0
31E0
01E0
00F0
0FF8
1CF8
3878
7878
787C
F07C
F03C
F03C
F03C
F03C
F03C
F07C
7878
7878
3870
1CE0
07C0
ENDCHAR
STARTCHAR 00F1
ENCODING 241
SWIDTH 558 0
DWIDTH 19 0
BBX 17 23 1 1
BITMAP
078800
0FF800
10F000
000000
000000
000000
FC7800
3DBC00
3D1C00
3E1E00
3E1E00
3E1E00
3C1E00
3C1E00
3C1E00
3C1E00
3C1E00
3C1E00
3C1E00
3C1E00
3C1E00
3C1E00
FF7F80
ENDCHAR
STARTCHAR 00F2
ENCODING 242
SWIDTH 529 0
DWIDTH 18 0
BBX 14 25 2 0
BITMAP
1800
3C00
1C00
0E00
0700
0300
0000
0000
0780
1CE0
3870
7878
7878
F03C
F03C
F03C
F03C
F03C
F03C
F03C
7878
7878
3870
18E0
0780
ENDCHAR
STARTCHAR 00F3
ENCODING 243
SWIDTH 529 0
DWIDTH 18 0
BBX 14 25 2 0
BITMAP
0060
00F0
00E0
01C0
0380
0300
0000
0000
0780
1CE0
3870
7878
7878
F03C
F03C
F03C
F03C
F03C
F03C
F03C
7878
7878
3870
18E0
0780
ENDCHAR
STARTCHAR 00F4
ENCODING 244
SWIDTH 529 0
DWIDTH 18 0
BBX 14 25 2 0
BITMAP
0300
0780
0780
0FC0
1CE0
3030
2010
0000
0780
1CE0
3870
7878
7878
F03C
F03C
F03C
F03C
F03C
F03C
F03C
7878
7878
3870
18E0
0780
ENDCHAR
STARTCHAR 00F5
ENCODING 245
SWIDTH 529 0
DWIDTH 18 0
BBX 14 24 2 0
BITMAP
0E10
1F90
27E0
21E0
0000
0000
0000
0780
1CE0
3870
7878
7878
F03C
F03C
F03C
F03C
F03C
F03C
F03C
7878
7878
3870
18E0
0780
ENDCHAR
STARTCHAR 00F6
ENCODING 246
SWIDTH 529 0
DWIDTH 18 0
BBX 14 24 2 0
BITMAP
3870
3CF0
3CF0
3870
0000
0000
0000
0780
1CE0
3870
7878
7878
F03C
F03C
F03C
F03C
F03C
F03C
F03C
7878
7878
3870
18E0
0780
ENDCHAR
STARTCHAR 00F7
ENCODING 247
SWIDTH 911 0
DWIDTH 31 0
BBX 29 23 1 -2
BITMAP
00070000
000F8000
000F8000
000F8000
00070000
00000000
00000000
00000000
00000000
00000000
FFFFFFF8
FFFFFFF8
00000000
00000000
00000000
00000000
00000000
00000000
00070000
000F8000
000F8000
000F8000
00070000
ENDCHAR
STARTCHAR 00F8
ENCODING 248
SWIDTH 529 0
DWIDTH 18 0
BBX 14 17 2 0
BITMAP
0784
18E8
3878
7878
7878
F07C
F0BC
F1BC
F33C
F63C
F43C
F83C
7878
7878
7870
5C60
8780
ENDCHAR
STARTCHAR 00F9
ENCODING 249
SWIDTH 558 0
DWIDTH 19 0
BBX 17 25 1 0
BITMAP
0C0000
1E0000
0E0000
070000
030000
008000
000000
000000
FC7E00
3C1E00
3C1E00
3C1E00
3C1E00
3C1E00
3C1E00
3C1E00
3C1E00
3C1E00
3C1E00
3C3E00
3C3E00
3C3E00
3C5E00
1E9E00
0F1F80
ENDCHAR
STARTCHAR 00FA
ENCODING 250
SWIDTH 558 0
DWIDTH 19 0
BBX 17 25 1 0
BITMAP
003000
007000
007000
00E000
01C000
010000
000000
000000
FC7E00
3C1E00
3C1E00
3C1E00
3C1E00
3C1E00
3C1E00
3C1E00
3C1E00
3C1E00
3C1E00
3C3E00
3C3E00
3C3E00
3C5E00
1E9E00
0F1F80
ENDCHAR
STARTCHAR 00FB
ENCODING 251
SWIDTH 558 0
DWIDTH 19 0
BBX 17 25 1 0
BITMAP
018000
03C000
03C000
07E000
0C3000
181800
000000
000000
FC7E00
3C1E00
3C1E00
3C1E00
3C1E00
3C1E00
3C1E00
3C1E00
3C1E00
3C1E00
3C1E00
3C3E00
3C3E00
3C3E00
3C5E00
1E9E00
0F1F80
ENDCHAR
STARTCHAR 00FC
ENCODING 252
SWIDTH 558 0
DWIDTH 19 0
BBX 17 24 1 0
BITMAP
1C7000
1E7800
1E7800
1C7000
000000
000000
000000
FC7E00
3C1E00
3C1E00
3C1E00
3C1E00
3C1E00
3C1E00
3C1E00
3C1E00
3C1E00
3C1E00
3C3E00
3C3E00
3C3E00
3C5E00
1E9E00
0F1F80
ENDCHAR
STARTCHAR 00FD
ENCODING 253
SWIDTH 529 0
DWIDTH 18 0
BBX 17 33 0 -8
BITMAP
001C00
001C00
003C00
007000
006000
00C000
000000
000000
FF9F80
3E0600
1E0400
1F0400
0F0400
0F0800
0F8800
078800
079800
03D000
03D000
03F000
01E000
01E000
00E000
00C000
004000
004000
004000
1C8000
3C8000
3C8000
390000
3B0000
1E0000
ENDCHAR
STARTCHAR 00FE
ENCODING 254
SWIDTH 529 0
DWIDTH 18 0
BBX 15 32 1 -9
BITMAP
0C00
1C00
7C00
BC00
3C00
3C00
3C00
3C78
3CFC
3D1E
3F1E
3E1E
3E1E
3E1E
3C1E
3C1C
3C1C
3C38
3C38
3C30
3C60
3CC0
3D00
3E00
3C00
3C00
3C00
3C00
3C00
3C00
3000
C000
ENDCHAR
STARTCHAR 00FF
ENCODING 255
SWIDTH 529 0
DWIDTH 18 0
BBX 17 32 0 -8
BITMAP
0E1C00
0F3C00
0F3C00
0E1C00
000000
000000
000000
FF9F80
3E0600
1E0400
1E0400
0F0800
0F0800
0F0800
078800
079000
03D000
03D000
03E000
01E000
01E000
00E000
00C000
00C000
004000
008000
1C8000
3C8000
3D0000
390000
3B0000
1E0000
ENDCHAR
STARTCHAR 0100
ENCODING 256
SWIDTH 735 0
DWIDTH 25 0
BBX 23 30 1 0
BITMAP
01FF80
01FF80
000000
000000
000000
001800
003800
003800
003C00
007C00
007C00
007E00
00FE00
00FE00
009F00
019F00
019F00
010F80
030F80
030F80
020F80
0207C0
07FFC0
0407C0
0403E0
0C03E0
0803E0
1801F0
1C01F0
FF9FFE
ENDCHAR
STARTCHAR 0101
ENCODING 257
SWIDTH 529 0
DWIDTH 18 0
BBX 15 23 2 0
BITMAP
3FE0
3FE0
0000
0000
0000
0000
0F80
31E0
60F0
70F0
78F0
78F0
20F0
07F0
1CF0
38F0
78F0
F0F0
F0F2
F0F2
F0F2
79FC
3E78
ENDCHAR
STARTCHAR 0102
ENCODING 258
SWIDTH 735 0
DWIDTH 25 0
BBX 23 32 1 0
BITMAP
030080
030180
018300
01FF00
007C00
000000
001000
003800
003800
003800
003C00
007C00
007C00
007E00
00FE00
00FE00
009F00
019F00
011F00
011F80
030F80
020F80
020F80
0407C0
07FFC0
0407C0
0803E0
0803E0
0803E0
1803F0
1803F0
FF9FFE
ENDCHAR
STARTCHAR 0103
ENCODING 259
SWIDTH 529 0
DWIDTH 18 0
BBX 15 25 2 0
BITMAP
2020
2020
2060
38C0
1FC0
0F00
0000
0000
1F80
31E0
60F0
78F0
78F0
70F0
03F0
0CF0
38F0
78F0
78F0
F0F0
F0F2
F0F2
F8F2
79FC
3E78
ENDCHAR
STARTCHAR 0104
ENCODING 260
SWIDTH 735 0
DWIDTH 25 0
BBX 23 34 1 -8
BITMAP
001800
003800
003800
003C00
007C00
007C00
007E00
007E00
00FE00
00FE00
009F00
019F00
019F00
010F80
030F80
030F80
0307C0
0607C0
07FFC0
0603E0
0403E0
0C03E0
0C03E0
1C01F0
1C01F0
FF9FFE
000060
0000C0
000180
000380
000380
000388
0003F0
0001E0
ENDCHAR
STARTCHAR 0105
ENCODING 261
SWIDTH 500 0
DWIDTH 17 0
BBX 15 25 1 -8
BITMAP
0F80
31E0
60E0
70F0
78F0
78F0
30F0
03F0
1CF0
38F0
78F0
F0F0
F0F2
F0F2
F0F2
79F6
3E7C
0038
0060
0040
00C0
00C0
00C4
00F8
0070
ENDCHAR
STARTCHAR 0106
ENCODING 262
SWIDTH 647 0
DWIDTH 22 0
BBX 19 33 2 1
BITMAP
000C00
001C00
003C00
003800
006000
004000
000000
000000
03F8C0
0E06C0
1E03C0
3C03C0
3C01C0
7C01C0
7C00C0
7C00C0
FC00C0
FC0040
FC0040
FC0000
FC0000
FC0000
FC0000
FC0000
FC0060
7C0040
7C0040
7C0040
3C00C0
1E0080
1E0100
0F0300
03FC00
ENDCHAR
STARTCHAR 0107
ENCODING 263
SWIDTH 470 0
DWIDTH 16 0
BBX 13 25 2 0
BITMAP
0060
00E0
01E0
01C0
0380
0200
0000
0000
0780
1C60
3860
7870
7870
F8F0
F0F0
F0E0
F000
F000
F000
F008
7810
7810
3810
1C20
07C0
ENDCHAR
STARTCHAR 0108
ENCODING 264
SWIDTH 647 0
DWIDTH 22 0
BBX 19 33 2 0
BITMAP
004000
00E000
00F000
01F800
031C00
0C0600
000000
000000
03F840
0E06C0
1E03C0
3C03C0
3C01C0
7C01C0
7C00C0
7C00C0
FC00C0
FC0040
FC0040
FC0000
FC0000
FC0000
FC0000
FC0000
FC0060
7C0040
7C0040
7C0040
3C00C0
1E0080
1E0100
0F0300
03FC00
ENDCHAR
STARTCHAR 0109
ENCODING 265
SWIDTH 470 0
DWIDTH 16 0
BBX 13 25 2 0
BITMAP
0700
0700
0780
0D80
18C0
3060
2000
0000
0780
1C60
3820
7870
78F0
F8F0
F0E0
F040
F000
F000
F000
F008
7810
7810
3810
1C20
07C0
ENDCHAR
STARTCHAR 010A
ENCODING 266
SWIDTH 647 0
DWIDTH 22 0
BBX 19 32 2 0
BITMAP
00E000
01E000
01E000
01E000
00E000
000000
000000
03F8C0
0E06C0
1E03C0
3C03C0
3C01C0
7C01C0
7C00C0
7C00C0
FC00C0
FC0040
FC0040
FC0000
FC0000
FC0000
FC0000
FC0000
FC0060
7C0040
7C0040
7C0040
3C00C0
1E0080
1E0100
0F0300
03FC00
ENDCHAR
STARTCHAR 010B
ENCODING 267
SWIDTH 470 0
DWIDTH 16 0
BBX 13 25 2 0
BITMAP
0700
0F80
0F80
0F80
0700
0000
0000
0000
0780
1C60
3860
7870
78F0
F8F0
F0E0
F040
F000
F000
F000
F008
7810
7810
3810
1C20
07C0
ENDCHAR
STARTCHAR 010C
ENCODING 268
SWIDTH 647 0
DWIDTH 22 0
BBX 19 32 2 1
BITMAP
0C0600
071C00
03F800
01F000
00E000
000000
000000
03F840
0E06C0
1E03C0
3C03C0
3C01C0
7C01C0
7C00C0
7C00C0
FC00C0
FC0040
FC0040
FC0000
FC0000
FC0000
FC0000
FC0000
FC0060
7C0040
7C0040
7C0040
3C00C0
1E0080
1E0100
0F0300
03FC00
ENDCHAR
STARTCHAR 010D
ENCODING 269
SWIDTH 470 0
DWIDTH 16 0
BBX 13 25 2 0
BITMAP
2010
1060
18C0
0F80
0780
0300
0000
0000
0780
1C60
3820
7870
78F0
F8F0
F0E0
F040
F000
F000
F000
F008
7810
7810
3810
1C20
07C0
ENDCHAR
STARTCHAR 010E
ENCODING 270
SWIDTH 794 0
DWIDTH 27 0
BBX 23 32 2 0
BITMAP
0C0200
060E00
03BC00
01F800
00E000
004000
000000
FFFF00
1F03C0
1F00E0
1F00F0
1F0078
1F0078
1F007C
1F007C
1F007E
1F007E
1F007E
1F007E
1F007E
1F007E
1F007E
1F007E
1F007C
1F007C
1F007C
1F0078
1F0078
1F00F0
1F00E0
1F03C0
FFFF00
ENDCHAR
STARTCHAR 010F
ENCODING 271
SWIDTH 617 0
DWIDTH 21 0
BBX 19 25 2 1
BITMAP
01FDC0
003DE0
003CE0
003C60
003C60
003C40
003C80
003D00
0F3C00
1CBC00
387C00
787C00
783C00
F03C00
F03C00
F03C00
F03C00
F03C00
F03C00
F03C00
783C00
787C00
387C00
1CBC00
0F3F00
ENDCHAR
STARTCHAR 0110
ENCODING 272
SWIDTH 794 0
DWIDTH 27 0
BBX 23 25 2 0
BITMAP
FFFF00
1F03C0
1F00E0
1F00F0
1F0078
1F0078
1F007C
1F007C
1F007E
1F007E
1F007E
FFE07E
1F007E
1F007E
1F007E
1F007E
1F007C
1F007C
1F007C
1F0078
1F0078
1F00F0
1F00E0
1F03C0
FFFF00
ENDCHAR
STARTCHAR 0111
ENCODING 273
SWIDTH 588 0
DWIDTH 20 0
BBX 17 25 2 0
BITMAP
01FC00
003C00
003C00
003C00
0FFF80
003C00
003C00
003C00
0F3C00
1CBC00
387C00
787C00
783C00
F03C00
F03C00
F03C00
F03C00
F03C00
F03C00
F03C00
783C00
787C00
387C00
1CBC00
0F3F80
ENDCHAR
STARTCHAR 0112
ENCODING 274
SWIDTH 676 0
DWIDTH 23 0
BBX 20 30 2 0
BITMAP
07FE00
07FE00
000000
000000
000000
FFFFE0
1F01E0
1F00E0
1F00E0
1F0060
1F0060
1F0020
1F0420
1F0400
1F0C00
1F0C00
1F1C00
1FFC00
1F1C00
1F0C00
1F0C30
1F0430
1F0430
1F0030
1F0070
1F0070
1F00F0
1F00F0
1F03F0
FFFFF0
ENDCHAR
STARTCHAR 0113
ENCODING 275
SWIDTH 500 0
DWIDTH 17 0
BBX 13 23 2 0
BITMAP
3FE0
3FE0
0000
0000
0000
0000
0780
18E0
38F0
78F0
78F0
F078
F078
F078
FFF8
F000
F000
F008
7808
7818
3810
1C20
07C0
ENDCHAR
STARTCHAR 0114
ENCODING 276
SWIDTH 676 0
DWIDTH 23 0
BBX 20 32 2 0
BITMAP
040300
060300
030600
03FE00
00F800
000000
000000
FFFFE0
1F01E0
1F00E0
1F00E0
1F0060
1F0060
1F0020
1F0420
1F0400
1F0C00
1F0C00
1F1C00
1FFC00
1F1C00
1F0C00
1F0C30
1F0430
1F0430
1F0030
1F0070
1F0070
1F00F0
1F00F0
1F03F0
FFFFF0
ENDCHAR
STARTCHAR 0115
ENCODING 277
SWIDTH 500 0
DWIDTH 17 0
BBX 13 25 2 0
BITMAP
2030
2020
3020
18E0
1FC0
0780
0000
0000
0780
18E0
38F0
78F0
78F0
F078
F078
F078
FFF8
F000
F000
F008
7808
7818
3810
1C20
07C0
ENDCHAR
STARTCHAR 0116
ENCODING 278
SWIDTH 676 0
DWIDTH 23 0
BBX 20 32 2 0
BITMAP
007000
00F000
00F000
00F000
007000
000000
000000
FFFFE0
1F01E0
1F00E0
1F00E0
1F0060
1F0060
1F0020
1F0420
1F0400
1F0C00
1F0C00
1F1C00
1FFC00
1F1C00
1F0C00
1F0C30
1F0430
1F0430
1F0030
1F0070
1F0070
1F00F0
1F01F0
1F03F0
FFFFF0
ENDCHAR
STARTCHAR 0117
ENCODING 279
SWIDTH 500 0
DWIDTH 17 0
BBX 13 25 2 0
BITMAP
0700
0F80
0F80
0F80
0700
0000
0000
0000
0780
18E0
38F0
78F0
78F0
F078
F078
F078
FFF8
F000
F000
F008
7808
7818
3810
1C20
07C0
ENDCHAR
STARTCHAR 0118
ENCODING 280
SWIDTH 676 0
DWIDTH 23 0
BBX 20 33 2 -8
BITMAP
FFFFE0
1F01E0
1F00E0
1F00E0
1F0060
1F0060
1F0020
1F0420
1F0400
1F0C00
1F0C00
1F1C00
1FFC00
1F1C00
1F0C00
1F0C30
1F0430
1F0430
1F0030
1F0070
1F0070
1F00F0
1F00F0
1F01F0
FFFFF0
000600
000C00
001800
003800
003800
003800
003F00
001E00
ENDCHAR
STARTCHAR 0119
ENCODING 281
SWIDTH 500 0
DWIDTH 17 0
BBX 13 25 2 -8
BITMAP
0780
18E0
38F0
78F0
78F0
F078
F078
F078
FFF8
F000
F000
F008
7808
7818
3810
1C30
07E0
0180
0300
0200
0600
0600
0660
07C0
0380
ENDCHAR
STARTCHAR 011A
ENCODING 282
SWIDTH 676 0
DWIDTH 23 0
BBX 20 32 2 0
BITMAP
040300
070600
039C00
01F800
00F000
006000
000000
FFFFE0
1F01E0
1F00E0
1F00E0
1F0060
1F0060
1F0020
1F0420
1F0400
1F0C00
1F0C00
1F1C00
1FFC00
1F1C00
1F0C00
1F0C30
1F0430
1F0430
1F0030
1F0070
1F0070
1F00F0
1F01F0
1F03F0
FFFFF0
ENDCHAR
STARTCHAR 011B
ENCODING 283
SWIDTH 500 0
DWIDTH 17 0
BBX 13 25 2 0
BITMAP
2010
3060
18C0
0F80
0780
0700
0000
0000
0780
18E0
38F0
78F0
78F0
F078
F078
F078
FFF8
F000
F000
F008
7808
7818
3810
1C20
07C0
ENDCHAR
STARTCHAR 011C
ENCODING 284
SWIDTH 705 0
DWIDTH 24 0
BBX 21 33 2 0
BITMAP
002000
007000
00F000
01F800
038C00
060300
000000
002000
03DC20
070360
0E01E0
1C01E0
3C00E0
3C00E0
7C0060
7C0060
FC0020
FC0020
FC0000
FC0000
FC3FF8
FC03E0
FC03E0
FC03E0
FC03E0
7C03E0
7C03E0
7C03E0
3C03E0
3C0360
1E0660
0E0C60
03B820
ENDCHAR
STARTCHAR 011D
ENCODING 285
SWIDTH 558 0
DWIDTH 19 0
BBX 17 33 1 -8
BITMAP
030000
038000
078000
07C000
0C6000
183000
000000
000000
07C700
1CF980
3C7380
787B80
787B00
787800
787800
787800
3C7000
1CE000
07C000
380000
600000
7FC000
7FF800
7FFC00
3FFE00
3FFE00
400E00
800600
800600
800400
400C00
203800
1FE000
ENDCHAR
STARTCHAR 011E
ENCODING 286
SWIDTH 705 0
DWIDTH 24 0
BBX 21 32 2 0
BITMAP
040100
060300
030600
03FE00
00F800
000000
002000
03DC20
0703E0
0E01E0
1C01E0
3C00E0
3C00E0
7C0060
7C0060
FC0020
FC0020
FC0000
FC0000
FC3FF8
FC03E0
FC03E0
FC03E0
FC03E0
7C03E0
7C03E0
7C03E0
3C03E0
1C0360
1E0660
0E0C20
03F820
ENDCHAR
STARTCHAR 011F
ENCODING 287
SWIDTH 558 0
DWIDTH 19 0
BBX 17 33 1 -8
BITMAP
101000
101000
183000
0C6000
0FE000
038000
000000
000000
07C700
1CF980
3C7380
787B80
787B00
787800
787800
787800
3C7000
1CE000
07C000
380000
600000
7FC000
7FF800
7FFC00
3FFE00
3FFE00
400E00
800600
800600
800400
400C00
203800
1FE000
ENDCHAR
STARTCHAR 0120
ENCODING 288
SWIDTH 705 0
DWIDTH 24 0
BBX 21 32 2 0
BITMAP
007000
00F000
00F000
00F000
007000
000000
002000
03DC20
070360
0E01E0
1C01E0
3C00E0
3C00E0
7C0060
7C0060
FC0020
FC0020
FC0000
FC0000
FC3FF8
FC03E0
FC03E0
FC03E0
FC03E0
7C03E0
7C03E0
7C03E0
3C03E0
3C0360
1E0660
0E0C60
03B820
ENDCHAR
STARTCHAR 0121
ENCODING 289
SWIDTH 558 0
DWIDTH 19 0
BBX 17 32 1 -8
BITMAP
038000
07C000
07C000
07C000
038000
000000
000000
07C700
1CF980
3C7B80
787B80
787B00
787800
787800
787800
3C7000
1CE000
07C000
380000
600000
7FC000
7FF800
7FFC00
3FFE00
3FFE00
400E00
800600
800600
800400
400C00
203800
1FE000
ENDCHAR
STARTCHAR 0122
ENCODING 290
SWIDTH 705 0
DWIDTH 24 0
BBX 21 35 2 -9
BITMAP
002000
03DC20
070360
0E01E0
1C01E0
3C00E0
3C00E0
7C0060
7C0060
FC0020
FC0020
FC0000
FC0000
FC3FF8
FC03E0
FC03E0
FC03E0
FC03E0
7C03E0
7C03E0
7C03E0
3C03E0
3C0360
1E0660
0E0C60
03B820
004000
00E000
00F000
00F000
00F000
003000
002000
004000
008000
ENDCHAR
STARTCHAR 0123
ENCODING 291
SWIDTH 558 0
DWIDTH 19 0
BBX 17 35 1 -8
BITMAP
018000
030000
060000
040000
0C0000
0F8000
0F8000
078000
078000
000000
07C700
1CF980
3C7380
787B80
787B00
787800
787800
787800
3C7000
1CE000
0FC000
300000
600000
7FC000
7FF800
7FFC00
3FFE00
3FFE00
400E00
800600
800600
800400
400C00
203800
1FE000
ENDCHAR
STARTCHAR 0124
ENCODING 292
SWIDTH 823 0
DWIDTH 28 0
BBX 25 33 2 0
BITMAP
00180000
00180000
003C0000
007E0000
00C30000
0381C000
00000000
00000000
FFE7FF80
1F00F800
1F00F800
1F00F800
1F00F800
1F00F800
1F00F800
1F00F800
1F00F800
1F00F800
1F00F800
1FFFF800
1F00F800
1F00F800
1F00F800
1F00F800
1F00F800
1F00F800
1F00F800
1F00F800
1F00F800
1F00F800
1F00F800
1F00F800
FFE7FF80
ENDCHAR
STARTCHAR 0125
ENCODING 293
SWIDTH 558 0
DWIDTH 19 0
BBX 17 32 1 0
BITMAP
018000
03C000
03C000
07E000
0C3000
181800
000000
FC0000
3C0000
3C0000
3C0000
3C0000
3C0000
3C0000
3C0000
3C7800
3DBC00
3D1C00
3E1E00
3E1E00
3E1E00
3C1E00
3C1E00
3C1E00
3C1E00
3C1E00
3C1E00
3C1E00
3C1E00
3C1E00
3C1E00
FF7F80
ENDCHAR
STARTCHAR 0126
ENCODING 294
SWIDTH 823 0
DWIDTH 28 0
BBX 25 25 2 0
BITMAP
7FF7FF80
0F807C00
0F807C00
0F807C00
0F807C00
0F807C00
FFFFFF80
0F807C00
0F807C00
0F807C00
0F807C00
0FFFFC00
0F807C00
0F807C00
0F807C00
0F807C00
0F807C00
0F807C00
0F807C00
0F807C00
0F807C00
0F807C00
0F807C00
0F807C00
7FF7FF80
ENDCHAR
STARTCHAR 0127
ENCODING 295
SWIDTH 558 0
DWIDTH 19 0
BBX 17 25 1 0
BITMAP
FC0000
3C0000
3C0000
3C0000
FFF000
3C0000
3C0000
3C0000
3C7800
3DBC00
3D1C00
3E1E00
3E1E00
3E1E00
3C1E00
3C1E00
3C1E00
3C1E00
3C1E00
3C1E00
3C1E00
3C1E00
3C1E00
3C1E00
FF7F80
ENDCHAR
STARTCHAR 0128
ENCODING 296
SWIDTH 411 0
DWIDTH 14 0
BBX 11 32 2 0
BITMAP
3840
7E40
4FC0
8380
0000
0000
0000
FFE0
1F00
1F00
1F00
1F00
1F00
1F00
1F00
1F00
1F00
1F00
1F00
1F00
1F00
1F00
1F00
1F00
1F00
1F00
1F00
1F00
1F00
1F00
1F00
FFE0
ENDCHAR
STARTCHAR 0129
ENCODING 297
SWIDTH 323 0
DWIDTH 11 0
BBX 10 24 1 0
BITMAP
0040
7C40
FF80
8F00
0000
0000
0000
7E00
1E00
1E00
1E00
1E00
1E00
1E00
1E00
1E00
1E00
1E00
1E00
1E00
1E00
1E00
1E00
7F80
ENDCHAR
STARTCHAR 012A
ENCODING 298
SWIDTH 411 0
DWIDTH 14 0
BBX 11 30 2 0
BITMAP
7FE0
7FE0
0000
0000
0000
FFE0
1F00
1F00
1F00
1F00
1F00
1F00
1F00
1F00
1F00
1F00
1F00
1F00
1F00
1F00
1F00
1F00
1F00
1F00
1F00
1F00
1F00
1F00
1F00
FFE0
ENDCHAR
STARTCHAR 012B
ENCODING 299
SWIDTH 323 0
DWIDTH 11 0
BBX 9 23 1 0
BITMAP
FF80
FF80
0000
0000
0000
0000
7E00
1E00
1E00
1E00
1E00
1E00
1E00
1E00
1E00
1E00
1E00
1E00
1E00
1E00
1E00
1E00
7F80
ENDCHAR
STARTCHAR 012C
ENCODING 300
SWIDTH 411 0
DWIDTH 14 0
BBX 11 32 2 0
BITMAP
8020
C060
60C0
7FC0
1F00
0000
0000
FFE0
1F00
1F00
1F00
1F00
1F00
1F00
1F00
1F00
1F00
1F00
1F00
1F00
1F00
1F00
1F00
1F00
1F00
1F00
1F00
1F00
1F00
1F00
1F00
FFE0
ENDCHAR
STARTCHAR 012D
ENCODING 301
SWIDTH 294 0
DWIDTH 10 0
BBX 10 25 0 0
BITMAP
8040
8040
C0C0
6180
3F00
1E00
0000
0000
7E00
1E00
1E00
1E00
1E00
1E00
1E00
1E00
1E00
1E00
1E00
1E00
1E00
1E00
1E00
1E00
7F80
ENDCHAR
STARTCHAR 012E
ENCODING 302
SWIDTH 411 0
DWIDTH 14 0
BBX 11 33 2 -8
BITMAP
FFE0
1F00
1F00
1F00
1F00
1F00
1F00
1F00
1F00
1F00
1F00
1F00
1F00
1F00
1F00
1F00
1F00
1F00
1F00
1F00
1F00
1F00
1F00
1F00
FFE0
00C0
0180
0300
0700
0700
0700
03E0
01C0
ENDCHAR
STARTCHAR 012F
ENCODING 303
SWIDTH 294 0
DWIDTH 10 0
BBX 8 33 2 -8
BITMAP
38
7C
7C
7C
38
00
00
00
FC
7C
7C
7C
7C
7C
7C
7C
7C
7C
7C
7C
7C
7C
7C
7C
FE
04
18
30
30
70
71
7E
3C
ENDCHAR
STARTCHAR 0130
ENCODING 304
SWIDTH 411 0
DWIDTH 14 0
BBX 11 32 2 0
BITMAP
0E00
1F00
1F00
1F00
0E00
0000
0000
FFE0
1F00
1F00
1F00
1F00
1F00
1F00
1F00
1F00
1F00
1F00
1F00
1F00
1F00
1F00
1F00
1F00
1F00
1F00
1F00
1F00
1F00
1F00
1F00
FFE0
ENDCHAR
STARTCHAR 0131
ENCODING 305
SWIDTH 294 0
DWIDTH 10 0
BBX 8 17 1 0
BITMAP
FC
3C
3C
3C
3C
3C
3C
3C
3C
3C
3C
3C
3C
3C
3C
3C
FF
ENDCHAR
STARTCHAR 0132
ENCODING 306
SWIDTH 911 0
DWIDTH 31 0
BBX 28 25 2 0
BITMAP
FFE07FF0
1F0007C0
1F0007C0
1F0007C0
1F0007C0
1F0007C0
1F0007C0
1F0007C0
1F0007C0
1F0007C0
1F0007C0
1F0007C0
1F0007C0
1F0007C0
1F0007C0
1F0007C0
1F03C7C0
1F07C7C0
1F07C7C0
1F07C7C0
1F0787C0
1F060780
1F020780
1F020F00
FFE1FE00
ENDCHAR
STARTCHAR 0133
ENCODING 307
SWIDTH 617 0
DWIDTH 21 0
BBX 17 33 2 -8
BITMAP
380700
7C0F80
7C0F80
7C0F80
380700
000000
000000
000000
FC3F00
3C0F00
3C0F00
3C0F00
3C0F00
3C0F00
3C0F00
3C0F00
3C0F00
3C0F00
3C0F00
3C0F00
3C0F00
3C0F00
3C0F00
3C0F00
FE0F00
000F00
000F00
01EF00
01EF00
01EF00
01CE00
01DC00
007800
ENDCHAR
STARTCHAR 0134
ENCODING 308
SWIDTH 529 0
DWIDTH 18 0
BBX 16 33 1 0
BITMAP
0020
0070
00F0
00F8
038E
0603
0000
0000
07FF
00F8
00F8
00F8
00F8
00F8
00F8
00F8
00F8
00F8
00F8
00F8
00F8
00F8
00F8
00F8
78F8
F8F8
F8F8
F8F8
F0F8
E0F0
40F0
61E0
3FC0
ENDCHAR
STARTCHAR 0135
ENCODING 309
SWIDTH 323 0
DWIDTH 11 0
BBX 13 33 -2 -8
BITMAP
0380
0780
07C0
0EC0
1C60
3018
0000
0000
1FC0
03C0
03C0
03C0
03C0
03C0
03C0
03C0
03C0
03C0
03C0
03C0
03C0
03C0
03C0
03C0
03C0
03C0
63C0
F3C0
F3C0
F380
E780
6700
3E00
ENDCHAR
STARTCHAR 0136
ENCODING 310
SWIDTH 794 0
DWIDTH 27 0
BBX 24 34 2 -9
BITMAP
FFE3FC
1F01E0
1F00C0
1F0180
1F0180
1F0300
1F0600
1F0C00
1F1C00
1F3C00
1F3E00
1F7E00
1FFF00
1FBF00
1F1F80
1F1F80
1F0FC0
1F0FC0
1F07E0
1F07E0
1F03F0
1F03F0
1F01F8
1F01FC
FFE7FF
000000
003800
003C00
003C00
003C00
000C00
000800
001000
002000
ENDCHAR
STARTCHAR 0137
ENCODING 311
SWIDTH 558 0
DWIDTH 19 0
BBX 17 33 1 -9
BITMAP
FC0000
3C0000
3C0000
3C0000
3C0000
3C0000
3C0000
3C0000
3C7F00
3C1800
3C1000
3C2000
3C2000
3C4000
3CC000
3CE000
3DE000
3EF000
3EF000
3C7800
3C7C00
3C3C00
3C3E00
3C3E00
FF7F80
000000
018000
03C000
03C000
01C000
004000
00C000
018000
ENDCHAR
STARTCHAR 0138
ENCODING 312
SWIDTH 558 0
DWIDTH 19 0
BBX 17 17 1 0
BITMAP
FC7F00
3C1800
3C1000
3C3000
3C2000
3C4000
3CC000
3CE000
3DE000
3EF000
3EF000
3C7800
3C7C00
3C3C00
3C3E00
3C3E00
FF7F80
ENDCHAR
STARTCHAR 0139
ENCODING 313
SWIDTH 676 0
DWIDTH 23 0
BBX 20 33 2 0
BITMAP
00C000
01C000
03C000
038000
070000
040000
000000
000000
FFE000
1F0000
1F0000
1F0000
1F0000
1F0000
1F0000
1F0000
1F0000
1F0000
1F0000
1F0000
1F0000
1F0000
1F0030
1F0030
1F0030
1F0030
1F0070
1F0070
1F00F0
1F00F0
1F01F0
1F03F0
FFFFF0
ENDCHAR
STARTCHAR 013A
ENCODING 314
SWIDTH 294 0
DWIDTH 10 0
BBX 8 33 1 0
BITMAP
03
07
07
0E
1C
10
00
00
FC
3C
3C
3C
3C
3C
3C
3C
3C
3C
3C
3C
3C
3C
3C
3C
3C
3C
3C
3C
3C
3C
3C
3C
FF
ENDCHAR
STARTCHAR 013B
ENCODING 315
SWIDTH 676 0
DWIDTH 23 0
BBX 20 34 2 -9
BITMAP
FFE000
1F0000
1F0000
1F0000
1F0000
1F0000
1F0000
1F0000
1F0000
1F0000
1F0000
1F0000
1F0000
1F0000
1F0030
1F0030
1F0030
1F0030
1F0070
1F0070
1F00F0
1F00F0
1F01F0
1F03F0
FFFFF0
000000
006000
00F000
00F000
00F000
003000
003000
006000
008000
ENDCHAR
STARTCHAR 013C
ENCODING 316
SWIDTH 323 0
DWIDTH 11 0
BBX 9 34 1 -9
BITMAP
FC00
3C00
3C00
3C00
3C00
3C00
3C00
3C00
3C00
3C00
3C00
3C00
3C00
3C00
3C00
3C00
3C00
3C00
3C00
3C00
3C00
3C00
3C00
3C00
FF80
0000
1800
3C00
3C00
3C00
0C00
0800
1800
2000
ENDCHAR
STARTCHAR 013D
ENCODING 317
SWIDTH 705 0
DWIDTH 24 0
BBX 21 25 2 1
BITMAP
FFE0F0
1F00F8
1F00F8
1F0078
1F0018
1F0010
1F0020
1F00C0
1F0000
1F0000
1F0000
1F0000
1F0000
1F0000
1F0020
1F0020
1F0020
1F0020
1F0060
1F0060
1F00E0
1F00E0
1F01E0
1F03E0
FFFFE0
ENDCHAR
STARTCHAR 013E
ENCODING 318
SWIDTH 352 0
DWIDTH 12 0
BBX 12 25 1 1
BITMAP
FCE0
3DF0
3C70
3C30
3C20
3C60
3CC0
3C00
3C00
3C00
3C00
3C00
3C00
3C00
3C00
3C00
3C00
3C00
3C00
3C00
3C00
3C00
3C00
3C00
FF80
ENDCHAR
STARTCHAR 013F
ENCODING 319
SWIDTH 676 0
DWIDTH 23 0
BBX 19 25 2 0
BITMAP
FFE000
1F0000
1F0000
1F0000
1F0000
1F0000
1F0000
1F00E0
1F01E0
1F01E0
1F01E0
1F00E0
1F0000
1F0000
1F0020
1F0020
1F0020
1F0020
1F0060
1F0060
1F00E0
1F00E0
1F01E0
1F03E0
FFFFE0
ENDCHAR
STARTCHAR 0140
ENCODING 320
SWIDTH 382 0
DWIDTH 13 0
BBX 13 25 1 0
BITMAP
FC00
3C00
3C00
3C00
3C00
3C00
3C00
3C00
3C00
3C00
3C70
3CF8
3CF8
3CF8
3C70
3C00
3C00
3C00
3C00
3C00
3C00
3C00
3C00
3C00
FF00
ENDCHAR
STARTCHAR 0141
ENCODING 321
SWIDTH 676 0
DWIDTH 23 0
BBX 20 25 2 0
BITMAP
FFE000
1F0000
1F0000
1F0000
1F0000
1F0000
1F0000
1F0000
1F1800
1F7000
1FC000
1F0000
1F0000
3F0000
DF0030
1F0030
1F0030
1F0030
1F0070
1F0070
1F00F0
1F00F0
1F01F0
1F03F0
FFFFF0
ENDCHAR
STARTCHAR 0142
ENCODING 322
SWIDTH 323 0
DWIDTH 11 0
BBX 9 25 1 0
BITMAP
FC00
3C00
3C00
3C00
3C00
3C00
3C00
3C00
3C00
3C80
3F00
3C00
3C00
FC00
3C00
3C00
3C00
3C00
3C00
3C00
3C00
3C00
3C00
3C00
FF80
ENDCHAR
STARTCHAR 0143
ENCODING 323
SWIDTH 794 0
DWIDTH 27 0
BBX 24 33 2 0
BITMAP
0001C0
0003C0
000380
000700
000E00
000800
000000
000000
FF03FF
1F807C
1F8038
0FC010
07E010
07F010
07F010
05F810
05FC10
04FC10
047E10
047F10
043F10
041F90
041FD0
040FD0
0407F0
0407F0
0403F0
0401F0
0401F0
0400F0
0E0070
1F0030
FFC030
ENDCHAR
STARTCHAR 0144
ENCODING 324
SWIDTH 558 0
DWIDTH 19 0
BBX 17 25 1 0
BITMAP
003800
003800
007800
007000
00C000
018000
000000
000000
FC7800
3DBC00
3D1C00
3E1E00
3E1E00
3E1E00
3C1E00
3C1E00
3C1E00
3C1E00
3C1E00
3C1E00
3C1E00
3C1E00
3C1E00
3C1E00
FF7F80
ENDCHAR
STARTCHAR 0145
ENCODING 325
SWIDTH 794 0
DWIDTH 27 0
BBX 24 34 2 -9
BITMAP
FF03FF
1F807C
1F8038
0FC010
07E010
07F010
07F010
05F810
05FC10
04FC10
047E10
047F10
043F10
041F90
041FD0
040FD0
0407F0
0407F0
0403F0
0401F0
0401F0
0400F0
0E0070
1F0070
FFC030
000010
001800
003C00
003C00
003C00
000400
000C00
001800
002000
ENDCHAR
STARTCHAR 0146
ENCODING 326
SWIDTH 558 0
DWIDTH 19 0
BBX 17 25 1 -9
BITMAP
FC7800
3DBC00
3D1C00
3E1E00
3E1E00
3E1E00
3C1E00
3C1E00
3C1E00
3C1E00
3C1E00
3C1E00
3C1E00
3C1E00
3C1E00
3C1E00
FF7F80
000000
018000
03C000
03C000
03C000
004000
00C000
018000
ENDCHAR
STARTCHAR 0147
ENCODING 327
SWIDTH 794 0
DWIDTH 27 0
BBX 24 32 2 0
BITMAP
018040
00C1C0
007780
003F00
001C00
000800
000000
FF03FF
1F807C
1F8038
0FC010
07E010
07F010
07F010
05F810
05FC10
04FC10
047E10
047F10
043F10
041F90
041FD0
040FD0
0407F0
0407F0
0403F0
0401F0
0401F0
0400F0
0E0070
1F0030
FFC030
ENDCHAR
STARTCHAR 0148
ENCODING 328
SWIDTH 558 0
DWIDTH 19 0
BBX 17 24 1 0
BITMAP
081800
043000
076000
03E000
01C000
008000
000000
FC7800
3DBC00
3D1C00
3E1E00
3E1E00
3E1E00
3C1E00
3C1E00
3C1E00
3C1E00
3C1E00
3C1E00
3C1E00
3C1E00
3C1E00
3C1E00
FF7F80
ENDCHAR
STARTCHAR 0149
ENCODING 329
SWIDTH 676 0
DWIDTH 23 0
BBX 22 25 1 1
BITMAP
F00000
F80000
F80000
780000
180000
100000
200000
C00000
07E3C0
01EDE0
01F0E0
01F0F0
01F0F0
01E0F0
01E0F0
01E0F0
01E0F0
01E0F0
01E0F0
01E0F0
01E0F0
01E0F0
01E0F0
01E0F0
07FBFC
ENDCHAR
STARTCHAR 014A
ENCODING 330
SWIDTH 794 0
DWIDTH 27 0
BBX 24 33 2 -8
BITMAP
FF03FF
1F807C
1F8038
0FC010
07E010
07F010
07F010
05F810
05FC10
04FC10
047E10
047F10
043F10
041F90
041FD0
040FD0
0407F0
0407F0
0403F0
0401F0
0401F0
0400F0
0E0070
1F0070
FFC030
000010
000010
000010
000C10
001E10
001E30
000FE0
0007C0
ENDCHAR
STARTCHAR 014B
ENCODING 331
SWIDTH 529 0
DWIDTH 18 0
BBX 15 25 1 -8
BITMAP
FC78
3DBC
3D1E
3E1E
3E1E
3E1E
3C1E
3C1E
3C1E
3C1E
3C1E
3C1E
3C1E
3C1E
3C1E
3C1E
FF1E
001E
001E
001E
041E
0E1C
0E3C
0738
03E0
ENDCHAR
STARTCHAR 014C
ENCODING 332
SWIDTH 705 0
DWIDTH 24 0
BBX 20 31 2 0
BITMAP
07FE00
07FE00
000000
000000
000000
000000
03FC00
060600
0E0700
1C0380
3C03C0
3C03C0
7C03E0
7C03E0
7C03E0
FC03F0
FC03F0
FC03F0
FC03F0
FC03F0
FC03F0
FC03F0
7C03E0
7C03E0
7C03E0
3C03C0
3C03C0
1C0380
0E0700
060600
03FC00
ENDCHAR
STARTCHAR 014D
ENCODING 333
SWIDTH 529 0
DWIDTH 18 0
BBX 14 23 2 0
BITMAP
3FE0
3FE0
0000
0000
0000
0000
0780
1CE0
3870
7878
7878
F03C
F03C
F03C
F03C
F03C
F03C
F03C
7878
7878
3870
18E0
0780
ENDCHAR
STARTCHAR 014E
ENCODING 334
SWIDTH 705 0
DWIDTH 24 0
BBX 20 32 2 0
BITMAP
040300
060700
030E00
03FE00
00F800
000000
000000
03FC00
060600
0E0700
1C0380
3C03C0
3C03C0
7C03E0
7C03E0
7C03E0
FC03F0
FC03F0
FC03F0
FC03F0
FC03F0
FC03F0
FC03F0
7C03E0
7C03E0
7C03E0
3C03C0
3C03C0
1C0380
0E0700
060600
03FC00
ENDCHAR
STARTCHAR 014F
ENCODING 335
SWIDTH 529 0
DWIDTH 18 0
BBX 14 25 2 0
BITMAP
2010
2010
1020
1860
0FC0
0780
0000
0000
0780
1CE0
3870
7878
7878
F03C
F03C
F03C
F03C
F03C
F03C
F03C
7878
7878
3870
18E0
0780
ENDCHAR
STARTCHAR 0150
ENCODING 336
SWIDTH 705 0
DWIDTH 24 0
BBX 20 33 2 1
BITMAP
003380
007380
007700
00EE00
00CC00
019800
000000
000000
03FC00
060600
0E0700
1C0380
3C03C0
3C03C0
7C03E0
7C03E0
7C03E0
FC03F0
FC03F0
FC03F0
FC03F0
FC03F0
FC03F0
FC03F0
7C03E0
7C03E0
7C03E0
3C03C0
3C03C0
1C0380
0E0700
060600
03FC00
ENDCHAR
STARTCHAR 0151
ENCODING 337
SWIDTH 529 0
DWIDTH 18 0
BBX 14 25 2 0
BITMAP
018C
03DC
03BC
0738
0660
0C40
0800
0000
0780
1CE0
3870
7878
7878
F03C
F03C
F03C
F03C
F03C
F03C
F03C
7878
7878
3870
18E0
0780
ENDCHAR
STARTCHAR 0152
ENCODING 338
SWIDTH 1000 0
DWIDTH 34 0
BBX 30 25 2 1
BITMAP
03FFFFFC
0607E03C
0E07E01C
1C03E01C
3C03E00C
3C03E00C
7C03E004
7C03E084
7C03E080
FC03E180
FC03E180
FC03E380
FC03FF80
FC03E380
FC03E180
FC03E184
7C03E084
7C03E084
7C03E004
3C03E00C
3C03E00C
1C03E01C
0E07E03C
0607E07C
03BFFFFC
ENDCHAR
STARTCHAR 0153
ENCODING 339
SWIDTH 764 0
DWIDTH 26 0
BBX 22 17 2 0
BITMAP
0F87C0
18EC70
38FC70
787C78
707C78
F0783C
F0783C
F0783C
F07FFC
F07800
F07800
F07804
707C04
787C0C
38FC08
18EE10
0F83E0
ENDCHAR
STARTCHAR 0154
ENCODING 340
SWIDTH 735 0
DWIDTH 25 0
BBX 22 33 2 1
BITMAP
001C00
001C00
003C00
007000
006000
00C000
000000
000000
FFFC00
1F0780
1F07C0
1F03C0
1F03E0
1F03E0
1F03E0
1F03E0
1F03C0
1F07C0
1F0F00
1FF800
1F0E00
1F0F00
1F0780
1F07C0
1F07C0
1F07C0
1F07C0
1F07C4
1F07C4
1F07C4
1F07C4
1F03C8
FFF1F8
ENDCHAR
STARTCHAR 0155
ENCODING 341
SWIDTH 411 0
DWIDTH 14 0
BBX 12 25 1 0
BITMAP
0060
00E0
00E0
01C0
0180
0300
0200
0000
FCE0
3D70
3EF0
3EF0
3EF0
3E60
3C00
3C00
3C00
3C00
3C00
3C00
3C00
3C00
3C00
3C00
FF00
ENDCHAR
STARTCHAR 0156
ENCODING 342
SWIDTH 735 0
DWIDTH 25 0
BBX 22 34 2 -9
BITMAP
FFFC00
1F0780
1F07C0
1F03C0
1F03E0
1F03E0
1F03E0
1F03E0
1F03C0
1F07C0
1F0F00
1FF800
1F0E00
1F0F00
1F0780
1F07C0
1F07C0
1F07C0
1F07C0
1F07C4
1F07C4
1F07C4
1F07C4
1F03C8
FFF1F8
000000
003000
007800
007800
007800
000800
001800
003000
004000
ENDCHAR
STARTCHAR 0157
ENCODING 343
SWIDTH 441 0
DWIDTH 15 0
BBX 12 26 2 -9
BITMAP
F8E0
7B70
7AF0
7CF0
7CF0
7CE0
7800
7800
7800
7800
7800
7800
7800
7800
7800
7800
FE00
0000
3000
7800
7800
7800
1800
1000
3000
4000
ENDCHAR
STARTCHAR 0158
ENCODING 344
SWIDTH 735 0
DWIDTH 25 0
BBX 22 32 2 1
BITMAP
0C0600
061C00
03F800
01E000
00C000
000000
000000
FFFC00
1F0780
1F07C0
1F03C0
1F03E0
1F03E0
1F03E0
1F03E0
1F03C0
1F07C0
1F0F00
1FF800
1F0E00
1F0F00
1F0780
1F07C0
1F07C0
1F07C0
1F07C0
1F07C4
1F07C4
1F07C4
1F07C4
1F03C8
FFF1F8
ENDCHAR
STARTCHAR 0159
ENCODING 345
SWIDTH 411 0
DWIDTH 14 0
BBX 12 24 1 0
BITMAP
3020
1860
0CC0
0780
0380
0300
0000
FCE0
3D70
3EF0
3EF0
3EF0
3E60
3C00
3C00
3C00
3C00
3C00
3C00
3C00
3C00
3C00
3C00
FF00
ENDCHAR
STARTCHAR 015A
ENCODING 346
SWIDTH 617 0
DWIDTH 21 0
BBX 16 33 3 1
BITMAP
0070
00F0
00E0
01C0
0180
0300
0000
0000
1FC6
2076
603E
E01E
E00E
F006
F806
FC06
FF02
7F80
7FC0
3FF0
0FF8
07FC
81FE
80FE
C03F
C01F
C00F
E007
E007
F006
F806
9C0C
87F8
ENDCHAR
STARTCHAR 015B
ENCODING 347
SWIDTH 411 0
DWIDTH 14 0
BBX 11 25 2 0
BITMAP
0180
0380
0380
0700
0E00
0C00
0000
0000
3C40
6340
C1C0
C0C0
E0C0
F040
FC00
7F00
3F80
1FC0
87E0
81E0
C0E0
E060
E060
90C0
8F80
ENDCHAR
STARTCHAR 015C
ENCODING 348
SWIDTH 617 0
DWIDTH 21 0
BBX 16 33 3 0
BITMAP
0300
0300
0780
0FC0
18E0
7030
0000
0000
1FC6
2076
603E
E01E
E00E
F006
F806
FC06
FF02
7F80
7FC0
3FF0
0FF8
07FC
81FE
80FE
C07F
C01F
C00F
E007
E007
F006
F806
DC0C
8778
ENDCHAR
STARTCHAR 015D
ENCODING 349
SWIDTH 411 0
DWIDTH 14 0
BBX 11 25 2 0
BITMAP
0C00
1E00
1E00
3F00
3380
C0C0
0000
0000
3C40
6340
C1C0
C0C0
E0C0
F040
FC00
7F00
3F80
1FC0
87E0
81E0
C0E0
E060
E060
90C0
8F80
ENDCHAR
STARTCHAR 015E
ENCODING 350
SWIDTH 617 0
DWIDTH 21 0
BBX 16 33 3 -7
BITMAP
1FC6
2076
601E
E01E
E00E
F006
F806
FC06
FF02
7F80
7FC0
3FF0
0FF8
07FC
81FE
80FE
C03F
C01F
C00F
E007
E007
F006
F806
DC0C
8738
01C0
0100
01E0
0070
0070
0070
0860
07C0
ENDCHAR
STARTCHAR 015F
ENCODING 351
SWIDTH 411 0
DWIDTH 14 0
BBX 11 24 2 -7
BITMAP
3C40
6340
C1C0
C0C0
E0C0
F040
FC00
7F00
3F80
1FC0
87E0
81E0
C0E0
E060
E060
90C0
8F80
0400
0800
0700
0380
0380
0380
1F00
ENDCHAR
STARTCHAR 0160
ENCODING 352
SWIDTH 617 0
DWIDTH 21 0
BBX 16 32 3 1
BITMAP
3030
18E0
0FC0
0780
0300
0000
0000
1FC6
2076
603E
E01E
E00E
F006
F806
FC06
FF02
7F80
7FC0
3FF0
0FF8
07FC
81FE
80FE
C07F
C01F
C00F
E007
E007
F006
F806
DC0C
8778
ENDCHAR
STARTCHAR 0161
ENCODING 353
SWIDTH 411 0
DWIDTH 14 0
BBX 11 25 2 0
BITMAP
8040
6180
3300
3F00
1E00
0C00
0000
0000
3C40
6340
C1C0
C0C0
E0C0
F040
FC00
7F00
3F80
1FC0
87E0
81E0
C0E0
E060
E060
90C0
8F80
ENDCHAR
STARTCHAR 0162
ENCODING 354
SWIDTH 735 0
DWIDTH 25 0
BBX 21 33 3 -8
BITMAP
FFFFF8
F8F8F8
F0F878
E0F878
C0F838
C0F838
80F818
80F818
80F818
80F818
00F800
00F800
00F800
00F800
00F800
00F800
00F800
00F800
00F800
00F800
00F800
00F800
00F800
00F800
0FFF00
004000
004000
007800
001C00
001C00
001C00
031800
00F000
ENDCHAR
STARTCHAR 0163
ENCODING 355
SWIDTH 382 0
DWIDTH 13 0
BBX 11 31 1 -7
BITMAP
0C00
0C00
0C00
0C00
0C00
1C00
3C00
FFC0
3C00
3C00
3C00
3C00
3C00
3C00
3C00
3C00
3C20
3C20
3C20
3C20
3C60
3C40
1FC0
0F80
0400
0400
0380
01C0
01C0
01C0
1F80
ENDCHAR
STARTCHAR 0164
ENCODING 356
SWIDTH 735 0
DWIDTH 25 0
BBX 21 32 3 0
BITMAP
040200
070600
03DC00
01F800
007000
002000
000000
FFFFF8
F8F8F8
F0F878
E0F878
C0F838
C0F838
80F818
80F818
80F818
80F818
00F800
00F800
00F800
00F800
00F800
00F800
00F800
00F800
00F800
00F800
00F800
00F800
00F800
00F800
0FFF00
ENDCHAR
STARTCHAR 0165
ENCODING 357
SWIDTH 411 0
DWIDTH 14 0
BBX 13 26 1 0
BITMAP
0020
0070
0C78
0C38
0C18
0C10
0C30
1C60
3C00
FFC0
3C00
3C00
3C00
3C00
3C00
3C00
3C00
3C00
3C20
3C20
3C20
3C20
3C60
3C40
1FC0
0F80
ENDCHAR
STARTCHAR 0166
ENCODING 358
SWIDTH 705 0
DWIDTH 24 0
BBX 21 25 2 0
BITMAP
FFFFF8
F8F8F8
F0F878
E0F878
E0F838
C0F838
C0F818
C0F818
80F818
80F818
00F800
1FFF80
00F800
00F800
00F800
00F800
00F800
00F800
00F800
00F800
00F800
00F800
00F800
00F800
0FFF00
ENDCHAR
STARTCHAR 0167
ENCODING 359
SWIDTH 382 0
DWIDTH 13 0
BBX 11 24 1 0
BITMAP
0C00
0C00
0C00
0C00
0C00
1C00
3C00
FFC0
3C00
3C00
3C00
FFC0
3C00
3C00
3C00
3C00
3C20
3C20
3C20
3C20
3C60
3C40
1FC0
0F80
ENDCHAR
STARTCHAR 0168
ENCODING 360
SWIDTH 764 0
DWIDTH 26 0
BBX 23 32 2 0
BITMAP
007080
00FC80
019F80
010F00
000000
000000
000000
FFE1FE
1F0078
1F0030
1F0010
1F0010
1F0010
1F0010
1F0010
1F0010
1F0010
1F0010
1F0010
1F0010
1F0010
1F0010
1F0010
1F0010
1F0010
1F0010
1F0010
0F0020
0F0020
078040
03C0C0
01FF00
ENDCHAR
STARTCHAR 0169
ENCODING 361
SWIDTH 558 0
DWIDTH 19 0
BBX 17 24 1 0
BITMAP
0F0800
0F9800
13F000
10E000
000000
000000
000000
FC7E00
3C1E00
3C1E00
3C1E00
3C1E00
3C1E00
3C1E00
3C1E00
3C1E00
3C1E00
3C1E00
3C3E00
3C3E00
3C3E00
3C5E00
1E9E00
0F1F80
ENDCHAR
STARTCHAR 016A
ENCODING 362
SWIDTH 764 0
DWIDTH 26 0
BBX 23 31 2 0
BITMAP
01FF80
01FF80
000000
000000
000000
000000
FFE1FE
1F0078
1F0030
1F0010
1F0010
1F0010
1F0010
1F0010
1F0010
1F0010
1F0010
1F0010
1F0010
1F0010
1F0010
1F0010
1F0010
1F0010
1F0010
1F0010
0F0020
0F0020
078040
03C0C0
01FF00
ENDCHAR
STARTCHAR 016B
ENCODING 363
SWIDTH 558 0
DWIDTH 19 0
BBX 17 23 1 0
BITMAP
1FF000
1FF000
000000
000000
000000
000000
FC7E00
3C1E00
3C1E00
3C1E00
3C1E00
3C1E00
3C1E00
3C1E00
3C1E00
3C1E00
3C1E00
3C3E00
3C3E00
3C3E00
3C5E00
1E9E00
0F1F80
ENDCHAR
STARTCHAR 016C
ENCODING 364
SWIDTH 764 0
DWIDTH 26 0
BBX 23 32 2 0
BITMAP
0100C0
0180C0
00C180
00FF80
003E00
000000
000000
FFE1FE
1F0078
1F0030
1F0010
1F0010
1F0010
1F0010
1F0010
1F0010
1F0010
1F0010
1F0010
1F0010
1F0010
1F0010
1F0010
1F0010
1F0010
1F0010
1F0010
0F0020
0F0020
078040
03C0C0
01FF00
ENDCHAR
STARTCHAR 016D
ENCODING 365
SWIDTH 558 0
DWIDTH 19 0
BBX 17 25 1 0
BITMAP
101800
101000
181000
0C7000
07E000
03C000
000000
000000
FC7E00
3C1E00
3C1E00
3C1E00
3C1E00
3C1E00
3C1E00
3C1E00
3C1E00
3C1E00
3C1E00
3C3E00
3C3E00
3C3E00
3C5E00
1E9E00
0F1F80
ENDCHAR
STARTCHAR 016E
ENCODING 366
SWIDTH 764 0
DWIDTH 26 0
BBX 23 33 2 0
BITMAP
003C00
007E00
00C300
00C300
00E300
007E00
003C00
000000
FFE1FE
1F0078
1F0030
1F0010
1F0010
1F0010
1F0010
1F0010
1F0010
1F0010
1F0010
1F0010
1F0010
1F0010
1F0010
1F0010
1F0010
1F0010
1F0010
1F0010
0F0020
0F0020
078040
03C0C0
01FF00
ENDCHAR
STARTCHAR 016F
ENCODING 367
SWIDTH 558 0
DWIDTH 19 0
BBX 17 25 1 1
BITMAP
07E000
0C6000
083000
083000
0C7000
07E000
03C000
000000
FC7E00
3C1E00
3C1E00
3C1E00
3C1E00
3C1E00
3C1E00
3C1E00
3C1E00
3C1E00
3C1E00
3C3E00
3C3E00
3C3E00
3C5E00
1E9E00
0F1F80
ENDCHAR
STARTCHAR 0170
ENCODING 368
SWIDTH 764 0
DWIDTH 26 0
BBX 23 33 2 1
BITMAP
000E60
000EE0
001CE0
0039C0
003300
006200
000000
000000
FFE1FE
1F0038
1F0030
1F0010
1F0010
1F0010
1F0010
1F0010
1F0010
1F0010
1F0010
1F0010
1F0010
1F0010
1F0010
1F0010
1F0010
1F0010
1F0010
1F0010
0F0030
0F8020
078040
03C0C0
01FF00
ENDCHAR
STARTCHAR 0171
ENCODING 369
SWIDTH 558 0
DWIDTH 19 0
BBX 17 25 1 0
BITMAP
00CE00
01CE00
01DC00
039800
033000
066000
000000
000000
FC7E00
3C1E00
3C1E00
3C1E00
3C1E00
3C1E00
3C1E00
3C1E00
3C1E00
3C1E00
3C1E00
3C3E00
3C3E00
3C3E00
3C5E00
1E9E00
0F1F80
ENDCHAR
STARTCHAR 0172
ENCODING 370
SWIDTH 764 0
DWIDTH 26 0
BBX 23 33 2 -8
BITMAP
FFE1FE
1F0078
1F0030
1F0010
1F0010
1F0010
1F0010
1F0010
1F0010
1F0010
1F0010
1F0010
1F0010
1F0010
1F0010
1F0010
1F0010
1F0010
1F0010
1F0010
0F0020
0F0020
078040
03C080
01F300
001E00
000C00
001800
003800
003800
003880
003F00
001E00
ENDCHAR
STARTCHAR 0173
ENCODING 371
SWIDTH 558 0
DWIDTH 19 0
BBX 18 25 1 -8
BITMAP
FC7E00
3C1E00
3C1E00
3C1E00
3C1E00
3C1E00
3C1E00
3C1E00
3C1E00
3C1E00
3C1E00
3C1E00
3C3E00
3C3E00
1C5E00
1E5E00
0F9F80
000100
000600
000C00
001C00
001C00
001C40
001F80
000F00
ENDCHAR
STARTCHAR 0174
ENCODING 372
SWIDTH 1058 0
DWIDTH 36 0
BBX 34 33 1 0
BITMAP
0000600000
0000700000
0000F00000
0001F80000
00038C0000
0006030000
0000000000
0000000000
FFE7FF7FC0
1F81F80E00
0F80F80E00
0F80FC0C00
0FC07C0C00
07C07C0C00
07C07C0800
07E0FE1800
03E0BE1800
03E0BE1800
03F19F1000
01F19F3000
01F11F3000
01F90F2000
01FB0FA000
00FA0FE000
00FE0FE000
00FE07C000
007E07C000
007C07C000
007C03C000
003C038000
0038038000
0038018000
0018018000
ENDCHAR
STARTCHAR 0175
ENCODING 373
SWIDTH 764 0
DWIDTH 26 0
BBX 25 25 0 0
BITMAP
000E0000
000E0000
001F0000
001B8000
0031C000
00606000
00000000
00000000
FF3FCF80
1E0F0600
1E0F0600
1E0F0400
0F078400
0F0F8400
078F8800
078BC800
0793C800
03D3D000
03D1F000
03E1F000
01E1E000
01E0E000
01C0E000
00C0C000
00C04000
ENDCHAR
STARTCHAR 0176
ENCODING 374
SWIDTH 764 0
DWIDTH 26 0
BBX 23 33 2 0
BITMAP
000800
001C00
003C00
007E00
00E300
0380C0
000000
000000
FFE1FE
1F8070
1F8060
0F8060
0FC040
07C0C0
07E0C0
07E080
03E180
03F100
01F100
01FA00
00FA00
00FE00
007C00
007C00
007C00
007C00
007C00
007C00
007C00
007C00
007C00
007C00
03FF80
ENDCHAR
STARTCHAR 0177
ENCODING 375
SWIDTH 529 0
DWIDTH 18 0
BBX 17 33 0 -8
BITMAP
00C000
01E000
01E000
03B000
061800
0C0C00
000000
000000
FF9F80
3E0600
1E0400
1F0400
0F0800
0F0800
0F8800
078800
079000
03D000
03D000
03E000
01E000
01E000
00E000
00C000
004000
004000
008000
1C8000
3C8000
3C8000
390000
3B0000
1E0000
ENDCHAR
STARTCHAR 0178
ENCODING 376
SWIDTH 764 0
DWIDTH 26 0
BBX 23 32 2 0
BITMAP
01C380
01E3C0
01E3C0
01C380
000000
000000
000000
FFE1FE
1F8070
1F8060
0F8060
0FC040
07C0C0
07E0C0
07E080
03E180
03F100
01F100
01FB00
00FA00
00FE00
00FC00
007C00
007C00
007C00
007C00
007C00
007C00
007C00
007C00
007C00
03FF80
ENDCHAR
STARTCHAR 0179
ENCODING 377
SWIDTH 647 0
DWIDTH 22 0
BBX 18 33 2 0
BITMAP
000C00
001E00
001C00
003800
007000
004000
000000
000000
7FFFC0
7C0FC0
781F80
701F80
603F00
603F00
407E00
407E00
40FC00
00FC00
01F800
01F000
03F000
07E000
07E000
0FC040
0FC040
1F8040
1F8040
3F00C0
3F01C0
7E01C0
7E03C0
FC0FC0
FFFFC0
ENDCHAR
STARTCHAR 017A
ENCODING 378
SWIDTH 470 0
DWIDTH 16 0
BBX 13 25 1 0
BITMAP
0060
00F0
00E0
01C0
0380
0200
0000
0000
7FF8
70F8
60F0
61E0
43E0
43C0
07C0
0780
0F80
0F00
1F08
1E08
3C18
7C18
7838
F878
FFF8
ENDCHAR
STARTCHAR 017B
ENCODING 379
SWIDTH 647 0
DWIDTH 22 0
BBX 18 32 2 0
BITMAP
00E000
01E000
01E000
01E000
00E000
000000
000000
7FFFC0
7C1FC0
781F80
703F80
603F00
607F00
407E00
40FC00
40FC00
01F800
01F800
03F000
03F000
07E000
07E000
0FC040
0FC040
1F8040
1F80C0
3F00C0
3E01C0
7E01C0
7C03C0
FC0FC0
FFFFC0
ENDCHAR
STARTCHAR 017C
ENCODING 380
SWIDTH 470 0
DWIDTH 16 0
BBX 13 24 1 0
BITMAP
0380
07C0
07C0
07C0
0380
0000
0000
7FF8
7078
60F0
61F0
41E0
43C0
03C0
0780
0F80
0F00
1F08
1E08
3E08
3C18
7C18
F878
FFF8
ENDCHAR
STARTCHAR 017D
ENCODING 381
SWIDTH 647 0
DWIDTH 22 0
BBX 18 32 2 0
BITMAP
080200
060E00
03BC00
01F800
00F000
006000
000000
7FFFC0
7C0FC0
781F80
701F80
603F00
603F00
407E00
407E00
40FC00
00FC00
01F800
01F000
03F000
07E000
07E000
0FC040
0FC040
1F8040
1F8040
3F00C0
3F01C0
7E01C0
7E03C0
FC0FC0
FFFFC0
ENDCHAR
STARTCHAR 017E
ENCODING 382
SWIDTH 470 0
DWIDTH 16 0
BBX 13 24 1 0
BITMAP
3030
1860
0CC0
0780
0780
0300
0000
7FF8
70F8
60F0
61E0
43E0
43C0
07C0
0780
0F80
0F00
1F08
1E08
3C18
7C18
7838
F878
FFF8
ENDCHAR
STARTCHAR 017F
ENCODING 383
SWIDTH 352 0
DWIDTH 12 0
BBX 12 25 1 0
BITMAP
03C0
0E70
1E70
1CF0
3CF0
3CF0
3C60
3C00
3C00
3C00
3C00
3C00
3C00
3C00
3C00
3C00
3C00
3C00
3C00
3C00
3C00
3C00
3C00
3C00
FF80
ENDCHAR
STARTCHAR 0180
ENCODING 384
SWIDTH 529 0
DWIDTH 18 0
BBX 15 25 1 0
BITMAP
FC00
3C00
3C00
3C00
FFF0
3C00
3C00
3C00
3CF0
3D38
3E3C
3E1C
3E1E
3E1E
3C1E
3C1E
3C1E
3C1E
3C1E
3E1E
3E1E
3E1C
323C
2338
21E0
ENDCHAR
STARTCHAR 0186
ENCODING 390
SWIDTH 676 0
DWIDTH 23 0
BBX 19 25 2 1
BITMAP
07F800
181E00
100F00
200F00
600780
4007C0
4007C0
4007C0
C007E0
0007E0
0007E0
0007E0
0007E0
0007E0
4007E0
4007E0
6007E0
6007C0
6007C0
7007C0
700780
780780
780F00
6C0E00
43F800
ENDCHAR
STARTCHAR 018E
ENCODING 398
SWIDTH 676 0
DWIDTH 23 0
BBX 19 25 3 0
BITMAP
FFFFE0
F81F00
E01F00
E01F00
C01F00
C01F00
C01F00
841F00
041F00
041F00
061F00
071F00
07FF00
071F00
061F00
841F00
841F00
841F00
801F00
C01F00
C01F00
E01F00
F01F00
F81F00
FFFFE0
ENDCHAR
STARTCHAR 018F
ENCODING 399
SWIDTH 676 0
DWIDTH 23 0
BBX 19 25 2 1
BITMAP
07F800
081E00
100F00
200F80
200780
6007C0
4007C0
4007C0
C007E0
0007E0
0007E0
0007E0
FFFFE0
FC07E0
FC07E0
FC07E0
FC07E0
7C07C0
7C07C0
7C07C0
3C0780
3E0F80
1E0F00
0E0E00
03F800
ENDCHAR
STARTCHAR 0190
ENCODING 400
SWIDTH 617 0
DWIDTH 21 0
BBX 17 25 2 1
BITMAP
0FF900
1E0F00
3C0700
3C0700
7C0300
7C0300
7C0300
7C0100
3C0100
1E0000
0F0000
01F000
0F0000
1E0000
7E0000
7C0200
FC0700
FC0F80
FC0F80
FC0780
FC0380
7C0300
7E0300
3E0600
0FF800
ENDCHAR
STARTCHAR 0192
ENCODING 402
SWIDTH 588 0
DWIDTH 20 0
BBX 19 30 -1 -5
BITMAP
000780
001CC0
0038E0
0079E0
0071E0
0071C0
00F000
00F000
0FFF00
00F000
00F000
00F000
00F000
00F000
00F000
00F000
00F000
00F000
01F000
01E000
01E000
01E000
01E000
21C000
71C000
F1C000
F38000
E30000
670000
3C0000
ENDCHAR
STARTCHAR 0195
ENCODING 405
SWIDTH 705 0
DWIDTH 24 0
BBX 21 25 1 0
BITMAP
FC0000
3C0000
3C0000
3C0000
3C0000
3C0000
3C0000
3C0000
3C7860
3DBCF0
3D1CF0
3E1E78
3E1E78
3E1E38
3C1E18
3C1E08
3C1E08
3C1E08
3C1E08
3C1E08
3C1E10
3C1E10
3C1E10
3C0F20
FF07C0
ENDCHAR
STARTCHAR 01A6
ENCODING 422
SWIDTH 735 0
DWIDTH 25 0
BBX 22 31 2 -6
BITMAP
FFF000
1F0000
1F0000
1F0000
1FFC00
1F0700
1F07C0
1F03C0
1F03E0
1F03E0
1F03E0
1F03E0
1F03C0
1F07C0
1F0F00
1FF800
1F0E00
1F0F00
1F0780
1F07C0
1F07C0
1F07C0
1F07C0
1F07C0
FFF7C4
0007C4
0007C4
0007C4
0003C8
0003F8
0000F0
ENDCHAR
STARTCHAR 01B7
ENCODING 439
SWIDTH 617 0
DWIDTH 21 0
BBX 18 25 2 0
BITMAP
7FFF80
7FFF80
7FFF00
7FFE00
701C00
601800
403000
406000
40C000
01C000
018000
03F800
063E00
001F00
000F80
000FC0
780FC0
FC0FC0
FC0FC0
FC0FC0
F80FC0
F00F80
601F00
303E00
1EF800
ENDCHAR
STARTCHAR 01BF
ENCODING 447
SWIDTH 529 0
DWIDTH 18 0
BBX 15 25 1 -8
BITMAP
0C78
3CFE
7D1E
BF1E
3E1E
3E1E
3C1E
3C1E
3C1C
3C1C
3C38
3C30
3C70
3C60
3C80
3F00
3C00
3C00
3C00
3C00
3C00
3C00
3C00
7000
C000
ENDCHAR
STARTCHAR 01C4
ENCODING 452
SWIDTH 1441 0
DWIDTH 49 0
BBX 45 32 2 0
BITMAP
000000010040
00000000C1C0
000000007780
000000003F00
000000001E00
000000000C00
000000000000
FFFF000FFFF8
1F03C00F81F8
1F00E00F03F0
1F00F00E03F0
1F00780C07E0
1F00780C07E0
1F007C080FC0
1F007C080FC0
1F007E081F80
1F007E001F80
1F007E003F00
1F007E003E00
1F007E007E00
1F007E00FC00
1F007E00FC00
1F007E01F808
1F007C01F808
1F007C03F008
1F007C03F008
1F007807E018
1F007807E038
1F00F00FC038
1F01E00FC078
1F03C01F81F8
FFFF001FFFF8
ENDCHAR
STARTCHAR 01C5
ENCODING 453
SWIDTH 1264 0
DWIDTH 43 0
BBX 39 25 2 0
BITMAP
FFFF000800
1F03C00C0C
1F00E00618
1F00F003F0
1F007801E0
1F007800C0
1F007C0000
1F007C0000
1F007E1FFE
1F007E1C3E
1F007E183C
1F007E1878
1F007E10F8
1F007E10F0
1F007E01F0
1F007E01E0
1F007C03E0
1F007C03C0
1F007C07C2
1F00780782
1F00780F02
1F00F01F06
1F00E01E0E
1F03C03E1E
FFFF003FFE
ENDCHAR
STARTCHAR 01C6
ENCODING 454
SWIDTH 1029 0
DWIDTH 35 0
BBX 31 25 2 0
BITMAP
01FC0000
003C0C0C
003C0618
003C0330
003C01E0
003C01E0
003C00C0
003C0000
0F3C1FFE
1CBC1C3E
387C183C
787C187C
783C10F8
F03C10F0
F03C01F0
F03C01E0
F03C03E0
F03C03C0
F03C07C2
F03C0782
783C0F06
787C1F06
387C1E0E
1CBC3E1E
0F3F3FFE
ENDCHAR
STARTCHAR 01C7
ENCODING 455
SWIDTH 1205 0
DWIDTH 41 0
BBX 38 25 2 0
BITMAP
FFE0001FFC
1F000003E0
1F000003E0
1F000003E0
1F000003E0
1F000003E0
1F000003E0
1F000003E0
1F000003E0
1F000003E0
1F000003E0
1F000003E0
1F000003E0
1F000003E0
1F002003E0
1F002083E0
1F0021E3E0
1F0023E3E0
1F0063E3E0
1F0063E3E0
1F00E3C3E0
1F00E383C0
1F01E103C0
1F03E18780
FFFFE0FF00
ENDCHAR
STARTCHAR 01C8
ENCODING 456
SWIDTH 970 0
DWIDTH 33 0
BBX 29 33 2 -8
BITMAP
FFE00070
1F0000F8
1F0000F8
1F0000F8
1F000070
1F000000
1F000000
1F000000
1F0003F8
1F000078
1F000078
1F000078
1F000078
1F000078
1F002078
1F002078
1F002078
1F002078
1F006078
1F006078
1F00E078
1F00E078
1F01E078
1F03E078
FFFFE078
00000078
00000078
00000E78
00001E78
00001E70
00001CF0
00000CE0
000007C0
ENDCHAR
STARTCHAR 01C9
ENCODING 457
SWIDTH 617 0
DWIDTH 21 0
BBX 18 33 1 -8
BITMAP
FC0380
3C07C0
3C07C0
3C07C0
3C0380
3C0000
3C0000
3C0000
3C1F80
3C0780
3C0780
3C0780
3C0780
3C0780
3C0780
3C0780
3C0780
3C0780
3C0780
3C0780
3C0780
3C0780
3C0780
3C0780
FF8780
000780
000780
00F780
00F780
00F780
00E700
00EE00
003C00
ENDCHAR
STARTCHAR 01CA
ENCODING 458
SWIDTH 1323 0
DWIDTH 45 0
BBX 42 25 2 0
BITMAP
FF03FF03FFC0
1F807C003E00
1F8038003E00
0FC010003E00
07E010003E00
07F010003E00
07F010003E00
05F810003E00
05FC10003E00
04FC10003E00
047E10003E00
047F10003E00
043F10003E00
041F90003E00
041FD0003E00
040FD0003E00
0407F01E3E00
0407F03E3E00
0403F03E3E00
0401F03E3E00
0401F03C3E00
0400F0303C00
0E0070103C00
1F0030107800
FFC0300FF000
ENDCHAR
STARTCHAR 01CB
ENCODING 459
SWIDTH 1088 0
DWIDTH 37 0
BBX 33 33 2 -8
BITMAP
FF03FF0700
1F807C0F80
1F80380F80
0FC0100F80
07E0100700
07F0100000
07F0100000
05F8100000
05FC103F00
04FC100F00
047E100F00
047F100F00
043F100F00
041F900F00
041FD00F00
040FD00F00
0407F00F00
0407F00F00
0403F00F00
0401F00F00
0401F00F00
0400F00F00
0E00700F00
1F00700F00
FFC0300F00
0000100F00
0000000F00
000001EF00
000001EF00
000001EF00
000001CE00
000001DE00
0000007800
ENDCHAR
STARTCHAR 01CC
ENCODING 460
SWIDTH 852 0
DWIDTH 29 0
BBX 26 33 1 -8
BITMAP
00000380
000007C0
000007C0
000007C0
00000380
00000000
00000000
00000000
FC781FC0
3DBC03C0
3D1C03C0
3E1E03C0
3E1E03C0
3E1E03C0
3C1E03C0
3C1E03C0
3C1E03C0
3C1E03C0
3C1E03C0
3C1E03C0
3C1E03C0
3C1E03C0
3C1E03C0
3C1E03C0
FF7F83C0
000003C0
000003C0
000073C0
0000F3C0
0000F380
0000E780
00006700
00003E00
ENDCHAR
STARTCHAR 01DD
ENCODING 477
SWIDTH 470 0
DWIDTH 16 0
BBX 12 17 2 0
BITMAP
1F00
2380
41C0
80E0
80F0
80F0
00F0
00F0
FFF0
F0F0
F0F0
F0F0
F0F0
78E0
78C0
39C0
0F00
ENDCHAR
STARTCHAR 01E2
ENCODING 482
SWIDTH 1000 0
DWIDTH 34 0
BBX 32 30 1 0
BITMAP
0000FFC0
0000FFC0
00000000
00000000
00000000
000FFFFF
0003F01F
0007F00F
0007F007
0005F007
000DF003
0009F003
0019F023
0019F020
0031F060
0031F060
0061F0E0
0061FFE0
00C1F0E0
00C1F060
0181F060
0181F021
03FFF021
0301F003
0601F003
0601F007
0C01F007
0C01F00F
3E01F03F
FF8FFFFF
ENDCHAR
STARTCHAR 01E3
ENCODING 483
SWIDTH 735 0
DWIDTH 25 0
BBX 21 23 2 0
BITMAP
03FE00
03FE00
000000
000000
000000
000000
1F8F80
31F8E0
60F8F0
70F870
78F878
78F078
30F078
03F078
1CFFF8
38F000
78F000
F0F008
F0F808
F0F808
F0F810
79BC30
3E0FC0
ENDCHAR
STARTCHAR 01EA
ENCODING 490
SWIDTH 705 0
DWIDTH 24 0
BBX 20 33 2 -7
BITMAP
03FC00
060600
0E0700
1C0380
3C03C0
3C03C0
7C03E0
7C03E0
7C03E0
FC03F0
FC03F0
FC03F0
FC03F0
FC03F0
FC03F0
FC03F0
7C03E0
7C03E0
7C03E0
3C03C0
3C03C0
1C0780
0E0700
070E00
01FC00
006000
00C000
018000
038000
038000
038000
03F000
01E000
ENDCHAR
STARTCHAR 01EB
ENCODING 491
SWIDTH 529 0
DWIDTH 18 0
BBX 14 25 2 -8
BITMAP
0780
1CE0
3870
7878
7878
7038
F03C
F03C
F03C
F03C
F03C
F03C
7078
7878
3870
3860
1CC0
0300
0600
0C00
1800
1800
1880
1F80
0F00
ENDCHAR
STARTCHAR 01EC
ENCODING 492
SWIDTH 705 0
DWIDTH 24 0
BBX 20 39 2 -8
BITMAP
07FE00
07FE00
000000
000000
000000
000000
03FC00
060600
0E0700
1C0380
3C03C0
3C03C0
7C03E0
7C03E0
7C03E0
FC03F0
FC03F0
FC03F0
FC03F0
FC03F0
FC03F0
FC03F0
7C03E0
7C03E0
7C03E0
3C03C0
3C03C0
1C0780
0E0700
070E00
01FC00
006000
00C000
018000
038000
038000
038000
03F000
01E000
ENDCHAR
STARTCHAR 01ED
ENCODING 493
SWIDTH 500 0
DWIDTH 17 0
BBX 14 30 2 -8
BITMAP
3FE0
3FE0
0000
0000
0000
0780
1CE0
3870
7878
7878
7038
F03C
F03C
F03C
F03C
F03C
F03C
7078
7878
3870
3860
1CC0
0300
0600
0C00
1800
1800
1880
1F80
0F00
ENDCHAR
STARTCHAR 01F0
ENCODING 496
SWIDTH 323 0
DWIDTH 11 0
BBX 12 32 -2 -8
BITMAP
1010
1860
0EE0
07C0
0380
0300
0000
1FC0
03C0
03C0
03C0
03C0
03C0
03C0
03C0
03C0
03C0
03C0
03C0
03C0
03C0
03C0
03C0
03C0
03C0
63C0
F3C0
F3C0
F380
E780
6700
3E00
ENDCHAR
STARTCHAR 01F1
ENCODING 497
SWIDTH 1441 0
DWIDTH 49 0
BBX 45 25 2 0
BITMAP
FFFF000FFFF8
1F03C00F81F8
1F00E00F03F0
1F00F00E03F0
1F00780C07E0
1F00780C07E0
1F007C080FC0
1F007C080FC0
1F007E081F80
1F007E001F80
1F007E003F00
1F007E003E00
1F007E007E00
1F007E00FC00
1F007E00FC00
1F007E01F808
1F007C01F808
1F007C03F008
1F007C03F008
1F007807E018
1F007807E038
1F00F00FC038
1F01E00FC078
1F03C01F81F8
FFFF001FFFF8
ENDCHAR
STARTCHAR 01F2
ENCODING 498
SWIDTH 1264 0
DWIDTH 43 0
BBX 39 25 2 0
BITMAP
FFFF000000
1F03C00000
1F00E00000
1F00F00000
1F00780000
1F00780000
1F007C0000
1F007C0000
1F007E1FFE
1F007E1C3E
1F007E183C
1F007E1878
1F007E10F8
1F007E10F0
1F007E01F0
1F007E01E0
1F007C03E0
1F007C03C0
1F007C07C2
1F00780782
1F00780F02
1F00F01F06
1F00E01E0E
1F03C03E1E
FFFF003FFE
ENDCHAR
STARTCHAR 01F3
ENCODING 499
SWIDTH 1029 0
DWIDTH 35 0
BBX 31 25 2 0
BITMAP
01FC0000
003C0000
003C0000
003C0000
003C0000
003C0000
003C0000
003C0000
0F3C1FFE
1CBC1C3E
387C183C
787C187C
783C10F8
F03C10F0
F03C01F0
F03C01E0
F03C03E0
F03C03C0
F03C07C2
F03C0782
783C0F06
787C1F06
387C1E0E
1CBC3E1E
0F3F3FFE
ENDCHAR
STARTCHAR 01F4
ENCODING 500
SWIDTH 705 0
DWIDTH 24 0
BBX 21 33 2 1
BITMAP
000E00
000E00
001E00
001C00
003000
006000
000000
002000
03DC20
070360
0E01E0
1C01E0
3C00E0
3C00E0
7C0060
7C0060
FC0020
FC0020
FC0000
FC0000
FC3FF8
FC03E0
FC03E0
FC03E0
FC03E0
7C03E0
7C03E0
7C03E0
3C03E0
3C0360
1E0660
0E0C60
03B820
ENDCHAR
STARTCHAR 01F5
ENCODING 501
SWIDTH 558 0
DWIDTH 19 0
BBX 17 33 1 -8
BITMAP
007000
007000
00F000
01C000
018000
030000
020000
000000
07C700
1CF980
3C7B80
787B80
787B00
787800
787800
787800
3C7000
1CE000
07C000
380000
600000
7FC000
7FF800
7FFC00
3FFE00
3FFE00
400E00
800600
800600
800400
400C00
203800
1FE000
ENDCHAR
STARTCHAR 01F6
ENCODING 502
SWIDTH 970 0
DWIDTH 33 0
BBX 30 25 2 0
BITMAP
FFEFFF00
1F00F800
1F00F800
1F00F800
1F00F800
1F00F800
1F00F800
1F00F800
1F00F800
1F00F800
1F00F8F0
1FFFF9F8
1F00F9F8
1F00F8FC
1F00F87C
1F00F81C
1F00F80C
1F00F804
1F00F804
1F00F804
1F00F804
1F007808
1F007C08
1F003C10
FFE01FE0
ENDCHAR
STARTCHAR 01F7
ENCODING 503
SWIDTH 676 0
DWIDTH 23 0
BBX 19 31 2 -5
BITMAP
030F00
0F3F80
3F7FC0
FFCFC0
1F07E0
1F07E0
1F03E0
1F03E0
1F03E0
1F03E0
1F03E0
1F03C0
1F03C0
1F03C0
1F0780
1F0780
1F0700
1F0E00
1F0E00
1F1C00
1F3000
1FC000
1F0000
1F0000
1F0000
1F0000
1F0000
1F0000
1C0000
300000
C00000
ENDCHAR
STARTCHAR 01FA
ENCODING 506
SWIDTH 735 0
DWIDTH 25 0
BBX 23 33 1 1
BITMAP
000600
001C00
001000
003C00
004600
004600
003C00
001000
003800
003800
003800
003C00
007C00
007C00
007E00
00FE00
00BE00
00BF00
019F00
019F00
011F80
030F80
030F80
020FC0
0607C0
07FFC0
0607C0
0C03E0
0C03E0
0C03E0
1C01F0
3C03F8
FF9FFE
ENDCHAR
STARTCHAR 01FB
ENCODING 507
SWIDTH 529 0
DWIDTH 18 0
BBX 15 33 2 0
BITMAP
0060
00E0
01E0
01C0
0380
0300
0400
0000
0F00
1F80
30C0
30C0
30C0
1F80
0F00
0000
0F80
31E0
60F0
70F0
78F0
78F0
20F0
07F0
18F0
38F0
70F0
F0F0
F0F2
F0F2
F0F2
79FC
3E78
ENDCHAR
STARTCHAR 01FC
ENCODING 508
SWIDTH 1000 0
DWIDTH 34 0
BBX 32 33 1 0
BITMAP
000000C0
000001E0
000003C0
00000780
00000600
00000C00
00000000
00000000
000FFFFF
0003F01F
0007F00F
0007F007
0005F007
000DF003
0009F003
0019F023
0019F020
0031F060
0031F060
0061F0E0
0061FFE0
00C1F0E0
00C1F060
0181F060
0181F021
03FFF021
0301F003
0601F003
0601F007
0C01F007
0C01F00F
3E01F03F
FF8FFFFF
ENDCHAR
STARTCHAR 01FD
ENCODING 509
SWIDTH 735 0
DWIDTH 25 0
BBX 21 25 2 0
BITMAP
000600
000F00
001E00
001C00
003800
006000
000000
000000
1F8F80
31F8E0
60F8F0
70F870
78F878
78F078
30F078
03F078
1CFFF8
38F000
78F000
F0F008
F0F808
F0F808
F0F810
79BC30
3E0FC0
ENDCHAR
STARTCHAR 01FE
ENCODING 510
SWIDTH 705 0
DWIDTH 24 0
BBX 20 33 2 1
BITMAP
000E00
001E00
001C00
003800
003000
006000
000000
000000
03FC30
060660
0E03C0
1C0380
3C03C0
3C03C0
7C03E0
7C07E0
7C0FE0
FC0BF0
FC13F0
FC23F0
FC63F0
FC43F0
FC83F0
FD03F0
7F03E0
7E03E0
7C03E0
3C03C0
3C03C0
1C0380
3C0700
660600
C3FC00
ENDCHAR
STARTCHAR 01FF
ENCODING 511
SWIDTH 529 0
DWIDTH 18 0
BBX 14 25 2 0
BITMAP
0060
00F0
00E0
01C0
0380
0300
0000
0000
0784
18E8
3878
7878
7878
F07C
F0BC
F1BC
F33C
F63C
F43C
F83C
7878
7878
7870
5C60
8780
ENDCHAR
STARTCHAR 0200
ENCODING 512
SWIDTH 735 0
DWIDTH 25 0
BBX 23 33 1 0
BITMAP
063000
077000
07B800
019800
00CC00
004600
000000
001000
001800
003800
003800
003C00
007C00
007C00
007E00
00FE00
00FE00
009E00
019F00
019F00
011F00
030F80
030F80
030F80
0607C0
07FFC0
0607C0
0407E0
0C03E0
0C03E0
1C03F0
1C03F0
FF9FFE
ENDCHAR
STARTCHAR 0201
ENCODING 513
SWIDTH 529 0
DWIDTH 18 0
BBX 16 25 1 0
BITMAP
E600
E700
F700
3B80
19C0
0CC0
0440
0000
07C0
18F0
3078
3878
3C78
3C78
1078
03F8
0E78
1C78
3C78
7878
7879
7879
7879
3CFE
1F3C
ENDCHAR
STARTCHAR 0202
ENCODING 514
SWIDTH 735 0
DWIDTH 25 0
BBX 23 32 1 0
BITMAP
003800
007E00
00FE00
00C300
018100
010080
000000
001800
003800
003800
003800
007C00
007C00
007C00
00FE00
00FE00
009E00
019F00
019F00
011F00
030F80
030F80
030F80
0207C0
07FFC0
0607C0
0407E0
0C03E0
0C03E0
1C03F0
1C03F0
FF9FFE
ENDCHAR
STARTCHAR 0203
ENCODING 515
SWIDTH 529 0
DWIDTH 18 0
BBX 15 24 2 0
BITMAP
0700
0F80
1FC0
30C0
2060
2020
0000
0F80
31E0
60F0
70F0
78F0
78F0
20F0
07F0
1CF0
38F0
78F0
F0F0
F0F2
F0F2
F0F2
79FC
3E78
ENDCHAR
STARTCHAR 0204
ENCODING 516
SWIDTH 676 0
DWIDTH 23 0
BBX 20 33 2 0
BITMAP
1CC000
1CE000
0EE000
077000
031800
018800
000000
000000
FFFFE0
1F01E0
1F00E0
1F00E0
1F0060
1F0060
1F0020
1F0420
1F0400
1F0C00
1F0C00
1F1C00
1FFC00
1F1C00
1F0C00
1F0C30
1F0430
1F0430
1F0030
1F0070
1F0070
1F00F0
1F01F0
1F03F0
FFFFF0
ENDCHAR
STARTCHAR 0205
ENCODING 517
SWIDTH 470 0
DWIDTH 16 0
BBX 13 25 1 0
BITMAP
CC00
EE00
EF00
7700
3180
1880
0800
0000
0780
18E0
38F0
78F0
78F0
F078
F078
F078
FFF8
F000
F000
F008
7808
7818
3810
1C20
07C0
ENDCHAR
STARTCHAR 0206
ENCODING 518
SWIDTH 676 0
DWIDTH 23 0
BBX 20 32 2 0
BITMAP
007000
01F800
03FC00
030600
060200
000000
000000
FFFFE0
1F01E0
1F00E0
1F00E0
1F0060
1F0060
1F0020
1F0420
1F0400
1F0C00
1F0C00
1F1C00
1FFC00
1F1C00
1F0C00
1F0C30
1F0430
1F0430
1F0030
1F0070
1F0070
1F00F0
1F01F0
1F03F0
FFFFF0
ENDCHAR
STARTCHAR 0207
ENCODING 519
SWIDTH 500 0
DWIDTH 17 0
BBX 13 24 2 0
BITMAP
0700
0F80
1FC0
1060
2020
2020
0000
0780
18E0
38F0
78F0
78F0
F078
F078
F078
FFF8
F000
F000
F008
7808
7818
3810
1C20
07C0
ENDCHAR
STARTCHAR 0208
ENCODING 520
SWIDTH 411 0
DWIDTH 14 0
BBX 12 33 1 0
BITMAP
CC00
EE00
E700
7300
3180
08C0
0000
0000
7FF0
0F80
0F80
0F80
0F80
0F80
0F80
0F80
0F80
0F80
0F80
0F80
0F80
0F80
0F80
0F80
0F80
0F80
0F80
0F80
0F80
0F80
0F80
0F80
7FF0
ENDCHAR
STARTCHAR 0209
ENCODING 521
SWIDTH 294 0
DWIDTH 10 0
BBX 11 25 -2 0
BITMAP
C600
EF00
F700
3380
18C0
0C40
0000
0000
1F80
0780
0780
0780
0780
0780
0780
0780
0780
0780
0780
0780
0780
0780
0780
0780
1FE0
ENDCHAR
STARTCHAR 020A
ENCODING 522
SWIDTH 411 0
DWIDTH 14 0
BBX 11 32 2 0
BITMAP
0E00
1F00
3F80
60C0
4040
0000
0000
FFE0
1F00
1F00
1F00
1F00
1F00
1F00
1F00
1F00
1F00
1F00
1F00
1F00
1F00
1F00
1F00
1F00
1F00
1F00
1F00
1F00
1F00
1F00
1F00
FFE0
ENDCHAR
STARTCHAR 020B
ENCODING 523
SWIDTH 294 0
DWIDTH 10 0
BBX 9 24 1 0
BITMAP
1800
7E00
7F00
C300
8080
0080
0000
FC00
3C00
3C00
3C00
3C00
3C00
3C00
3C00
3C00
3C00
3C00
3C00
3C00
3C00
3C00
3C00
FF00
ENDCHAR
STARTCHAR 020C
ENCODING 524
SWIDTH 705 0
DWIDTH 24 0
BBX 20 33 2 1
BITMAP
1CC000
1CE000
0EE000
067000
033000
019800
000000
000000
03FC00
060600
0E0700
1C0380
3C03C0
3C03C0
7C03E0
7C03E0
7C03E0
FC03F0
FC03F0
FC03F0
FC03F0
FC03F0
FC03F0
FC03F0
7C03E0
7C03E0
7C03E0
3C03C0
3C03C0
1C0380
0E0700
060600
03FC00
ENDCHAR
STARTCHAR 020D
ENCODING 525
SWIDTH 529 0
DWIDTH 18 0
BBX 14 25 2 0
BITMAP
C600
EF00
E700
7380
3980
18C0
0040
0000
0780
1CE0
3870
7878
7878
F03C
F03C
F03C
F03C
F03C
F03C
F03C
7878
7878
3870
18E0
0780
ENDCHAR
STARTCHAR 020E
ENCODING 526
SWIDTH 705 0
DWIDTH 24 0
BBX 20 33 2 0
BITMAP
006000
01F800
01F800
030C00
060600
040200
000000
000000
03FC00
060600
0E0700
1C0380
3C03C0
3C03C0
7C03E0
7C03E0
7C03E0
FC03F0
FC03F0
FC03F0
FC03F0
FC03F0
FC03F0
FC03F0
7C03E0
7C03E0
7C03E0
3C03C0
3C03C0
1C0380
0E0700
060600
03FC00
ENDCHAR
STARTCHAR 020F
ENCODING 527
SWIDTH 529 0
DWIDTH 18 0
BBX 14 24 2 0
BITMAP
0780
0FC0
0FC0
1860
1020
2010
0000
0780
1CE0
3870
7878
7878
F03C
F03C
F03C
F03C
F03C
F03C
F03C
7878
7878
3870
18E0
0780
ENDCHAR
STARTCHAR 0210
ENCODING 528
SWIDTH 735 0
DWIDTH 25 0
BBX 22 33 2 1
BITMAP
3B8000
3BC000
1DC000
0CE000
063000
031000
000000
000000
FFFC00
1F0780
1F07C0
1F03C0
1F03E0
1F03E0
1F03E0
1F03E0
1F03C0
1F07C0
1F0F00
1FF800
1F0E00
1F0F00
1F0780
1F07C0
1F07C0
1F07C0
1F07C0
1F07C4
1F07C4
1F07C4
1F07C4
1F03C8
FFF1F8
ENDCHAR
STARTCHAR 0211
ENCODING 529
SWIDTH 411 0
DWIDTH 14 0
BBX 12 25 1 0
BITMAP
C600
EE00
F700
7380
3980
0CC0
0000
0000
FCE0
3D70
3EF0
3EF0
3EF0
3E60
3C00
3C00
3C00
3C00
3C00
3C00
3C00
3C00
3C00
3C00
FF00
ENDCHAR
STARTCHAR 0212
ENCODING 530
SWIDTH 735 0
DWIDTH 25 0
BBX 22 33 2 0
BITMAP
00E000
03F000
07F800
061C00
0C0C00
080400
000000
000000
FFFC00
1F0780
1F07C0
1F03C0
1F03E0
1F03E0
1F03E0
1F03E0
1F03C0
1F07C0
1F0F00
1FF800
1F0E00
1F0F00
1F0780
1F07C0
1F07C0
1F07C0
1F07C0
1F07C4
1F07C4
1F07C4
1F07C4
1F03C8
FFF1F8
ENDCHAR
STARTCHAR 0213
ENCODING 531
SWIDTH 411 0
DWIDTH 14 0
BBX 12 24 1 0
BITMAP
0300
0F80
0FC0
1860
1020
2020
0000
FCE0
3D70
3EF0
3EF0
3EF0
3E60
3C00
3C00
3C00
3C00
3C00
3C00
3C00
3C00
3C00
3C00
FF00
ENDCHAR
STARTCHAR 0214
ENCODING 532
SWIDTH 764 0
DWIDTH 26 0
BBX 23 33 2 1
BITMAP
073000
07B800
039C00
01CC00
00C600
006200
000000
000000
FFE1FE
1F0078
1F0030
1F0010
1F0010
1F0010
1F0010
1F0010
1F0010
1F0010
1F0010
1F0010
1F0010
1F0010
1F0010
1F0010
1F0010
1F0010
1F0010
1F0010
0F0020
0F0020
078040
03C0C0
01FF00
ENDCHAR
STARTCHAR 0215
ENCODING 533
SWIDTH 558 0
DWIDTH 19 0
BBX 17 25 1 0
BITMAP
630000
770000
7B8000
39C000
0CC000
066000
000000
000000
FC7E00
3C1E00
3C1E00
3C1E00
3C1E00
3C1E00
3C1E00
3C1E00
3C1E00
3C1E00
3C1E00
3C3E00
3C3E00
3C3E00
3C5E00
1E9E00
0F1F80
ENDCHAR
STARTCHAR 0216
ENCODING 534
SWIDTH 764 0
DWIDTH 26 0
BBX 23 33 2 0
BITMAP
001C00
003E00
007F00
00C380
008080
010080
000000
000000
FFE1FE
1F0078
1F0030
1F0010
1F0010
1F0010
1F0010
1F0010
1F0010
1F0010
1F0010
1F0010
1F0010
1F0010
1F0010
1F0010
1F0010
1F0010
1F0010
1F0010
0F0020
0F0020
078040
03C0C0
01FF00
ENDCHAR
STARTCHAR 0217
ENCODING 535
SWIDTH 558 0
DWIDTH 19 0
BBX 17 24 1 0
BITMAP
038000
07E000
0FE000
0C3000
181000
000000
000000
FC7E00
3C1E00
3C1E00
3C1E00
3C1E00
3C1E00
3C1E00
3C1E00
3C1E00
3C1E00
3C1E00
3C3E00
3C3E00
3C3E00
3C5E00
1E9E00
0F1F80
ENDCHAR
STARTCHAR 0218
ENCODING 536
SWIDTH 617 0
DWIDTH 21 0
BBX 16 34 3 -8
BITMAP
1FC6
2076
603E
E01E
E00E
F00E
F806
FC06
FF02
7F80
7FC0
3FF0
0FF8
07FC
83FE
80FE
C07F
C01F
C00F
E007
E007
F006
F806
DC0C
8738
00C0
0180
03C0
03C0
03C0
00C0
00C0
0180
0200
ENDCHAR
STARTCHAR 0219
ENCODING 537
SWIDTH 411 0
DWIDTH 14 0
BBX 11 25 2 -8
BITMAP
3C40
6340
C1C0
C0C0
E0C0
F040
FC00
7F00
3F80
1FC0
87E0
81E0
C0E0
E060
E060
90C0
8F80
0000
0F00
0F00
0F00
0700
0300
0200
0C00
ENDCHAR
STARTCHAR 021A
ENCODING 538
SWIDTH 735 0
DWIDTH 25 0
BBX 21 34 3 -9
BITMAP
FFFFF8
F8F8F8
E0F878
E0F878
C0F838
C0F838
80F818
80F818
80F818
80F818
00F800
00F800
00F800
00F800
00F800
00F800
00F800
00F800
00F800
00F800
00F800
00F800
00F800
00F800
0FFF00
000000
00E000
00F000
00F000
00F000
003000
002000
004000
008000
ENDCHAR
STARTCHAR 021B
ENCODING 539
SWIDTH 382 0
DWIDTH 13 0
BBX 11 32 1 -9
BITMAP
0C00
0C00
0C00
0C00
0C00
1C00
3C00
FF80
3C00
3C00
3C00
3C00
3C00
3C00
3C00
3C00
3C20
3C20
3C20
3C20
3C60
3C40
1FC0
0F80
0000
0600
0F00
0F00
0F00
0300
0300
0600
ENDCHAR
STARTCHAR 021C
ENCODING 540
SWIDTH 558 0
DWIDTH 19 0
BBX 15 31 2 -5
BITMAP
0FE0
1FF0
3FF8
60F8
4078
0078
0078
0070
00E0
01C0
0380
07E0
0FF0
1FF8
3FFC
40FE
007E
003E
003E
003E
003C
003C
0078
00F8
00F0
01E0
0780
0F00
3C00
F000
8000
ENDCHAR
STARTCHAR 021D
ENCODING 541
SWIDTH 441 0
DWIDTH 15 0
BBX 11 25 2 -9
BITMAP
0F00
3F80
7F80
C3C0
81C0
01C0
01C0
0380
0300
0600
0F00
1FC0
3FE0
C3E0
01E0
01E0
01E0
01E0
01C0
03C0
0780
0F00
1E00
3800
E000
ENDCHAR
STARTCHAR 0224
ENCODING 548
SWIDTH 647 0
DWIDTH 22 0
BBX 19 33 2 -8
BITMAP
7FFFC0
7C0FC0
780F80
701F80
601F00
603F00
607E00
407E00
40FC00
00FC00
01F800
01F800
03F000
03F000
07E000
07E000
0FC000
0F8000
1F8000
3F0000
3F0000
7E0000
7E0000
FC0000
FFFF80
001FC0
0007E0
0003E0
0003E0
0003C0
000780
001E00
007000
ENDCHAR
STARTCHAR 0225
ENCODING 549
SWIDTH 441 0
DWIDTH 15 0
BBX 13 24 1 -7
BITMAP
7FF8
70F8
60F0
61E0
41E0
43C0
03C0
0780
0F80
0F00
1F00
1E00
3E00
7C00
7800
F800
FFF0
0078
0038
0038
0030
0060
0180
0200
ENDCHAR
STARTCHAR 0228
ENCODING 552
SWIDTH 676 0
DWIDTH 23 0
BBX 20 33 2 -8
BITMAP
FFFFE0
1F01E0
1F00E0
1F00E0
1F0060
1F0060
1F0020
1F0420
1F0400
1F0C00
1F0C00
1F1C00
1FFC00
1F1C00
1F0C00
1F0C30
1F0430
1F0430
1F0030
1F0070
1F0070
1F00F0
1F00F0
1F03F0
FFFFF0
002000
002000
003800
000E00
000E00
000E00
010C00
00F800
ENDCHAR
STARTCHAR 0229
ENCODING 553
SWIDTH 500 0
DWIDTH 17 0
BBX 13 24 2 -7
BITMAP
0780
18E0
38F0
78F0
78F0
F078
F078
F078
FFF8
F000
F000
F008
7808
7818
3810
1C20
0FC0
0200
0400
0380
01C0
01C0
11C0
0F80
ENDCHAR
STARTCHAR 0232
ENCODING 562
SWIDTH 764 0
DWIDTH 26 0
BBX 23 30 2 0
BITMAP
01FF80
01FF80
000000
000000
000000
FFE1FE
1F8070
1F8060
0F8060
0FC040
07C0C0
07C0C0
07E080
03E180
03F100
01F100
01FB00
00FA00
00FE00
00FC00
007C00
007C00
007C00
007C00
007C00
007C00
007C00
007C00
007C00
03FF80
ENDCHAR
STARTCHAR 0233
ENCODING 563
SWIDTH 529 0
DWIDTH 18 0
BBX 17 31 0 -8
BITMAP
07FC00
07FC00
000000
000000
000000
000000
FF9F80
3E0600
1E0600
1E0400
0F0400
0F0400
0F8800
078800
07C800
03D000
03D000
03F000
01F000
01E000
00E000
00E000
00C000
004000
004000
1C8000
3C8000
3C8000
390000
3B0000
1E0000
ENDCHAR
STARTCHAR 0237
ENCODING 567
SWIDTH 323 0
DWIDTH 11 0
BBX 10 25 -2 -8
BITMAP
1FC0
03C0
03C0
03C0
03C0
03C0
03C0
03C0
03C0
03C0
03C0
03C0
03C0
03C0
03C0
03C0
03C0
03C0
63C0
F3C0
F3C0
F380
E780
6700
3E00
ENDCHAR
STARTCHAR 0243
ENCODING 579
SWIDTH 705 0
DWIDTH 24 0
BBX 20 25 2 0
BITMAP
FFFE00
1F03C0
1F03E0
1F01E0
1F01F0
1F01F0
1F01F0
1F01F0
1F01E0
1F03C0
1F0380
1FFC00
1F0780
1F03C0
1F01E0
1F01E0
1F01F0
FFE1F0
1F01F0
1F01F0
1F01F0
1F01E0
1F03C0
1F0780
FFFE00
ENDCHAR
STARTCHAR 0254
ENCODING 596
SWIDTH 470 0
DWIDTH 16 0
BBX 13 17 1 0
BITMAP
0F00
31C0
40E0
40F0
40F0
8078
0078
0078
0078
1078
3878
78F8
78F0
70F0
20E0
31C0
0F00
ENDCHAR
STARTCHAR 0259
ENCODING 601
SWIDTH 470 0
DWIDTH 16 0
BBX 12 17 2 0
BITMAP
1F00
2380
41C0
80E0
80F0
80F0
00F0
00F0
FFF0
F0F0
F0F0
F0F0
F0F0
78E0
78C0
39C0
0F00
ENDCHAR
STARTCHAR 025B
ENCODING 603
SWIDTH 411 0
DWIDTH 14 0
BBX 12 17 1 0
BITMAP
1F80
3860
7870
F070
F0F0
F0F0
7840
3800
0700
3800
7860
F0F0
F070
F030
F830
7860
1F80
ENDCHAR
STARTCHAR 0280
ENCODING 640
SWIDTH 529 0
DWIDTH 18 0
BBX 16 17 1 0
BITMAP
FFE0
3C78
3C3C
3C3C
3C3C
3C3C
3C3C
3C78
3FC0
3C70
3C3C
3C3C
3C3C
3C3D
3C3D
3C3D
FF1E
ENDCHAR
STARTCHAR 0292
ENCODING 658
SWIDTH 500 0
DWIDTH 17 0
BBX 15 25 1 -8
BITMAP
7FFC
7FF8
7FF8
7010
6020
4040
40C0
0080
0100
0200
07E0
0C78
083C
001C
001E
001E
301E
781E
F81E
F81E
F01E
E03C
6038
3070
0FC0
ENDCHAR
STARTCHAR 02BB
ENCODING 699
SWIDTH 264 0
DWIDTH 9 0
BBX 5 9 2 17
BITMAP
10
20
40
C0
C0
F0
F8
F8
70
ENDCHAR
STARTCHAR 02BC
ENCODING 700
SWIDTH 294 0
DWIDTH 10 0
BBX 5 8 3 18
BITMAP
F0
F8
F8
78
18
10
20
C0
ENDCHAR
STARTCHAR 02BD
ENCODING 701
SWIDTH 264 0
DWIDTH 9 0
BBX 5 8 2 18
BITMAP
78
F8
F8
E0
C0
40
60
10
ENDCHAR
STARTCHAR 02BE
ENCODING 702
SWIDTH 205 0
DWIDTH 7 0
BBX 4 8 2 18
BITMAP
C0
E0
30
30
30
70
E0
80
ENDCHAR
STARTCHAR 02BF
ENCODING 703
SWIDTH 205 0
DWIDTH 7 0
BBX 5 9 1 17
BITMAP
08
78
60
C0
C0
C0
E0
78
18
ENDCHAR
STARTCHAR 02C6
ENCODING 710
SWIDTH 441 0
DWIDTH 15 0
BBX 10 6 2 19
BITMAP
0E00
0E00
1F00
1B00
3180
E0C0
ENDCHAR
STARTCHAR 02C7
ENCODING 711
SWIDTH 441 0
DWIDTH 15 0
BBX 9 6 3 18
BITMAP
8080
C180
6300
3E00
3C00
1C00
ENDCHAR
STARTCHAR 02C9
ENCODING 713
SWIDTH 441 0
DWIDTH 15 0
BBX 9 2 3 20
BITMAP
FF80
FF80
ENDCHAR
STARTCHAR 02CA
ENCODING 714
SWIDTH 441 0
DWIDTH 15 0
BBX 6 7 6 18
BITMAP
1C
1C
3C
78
60
C0
80
ENDCHAR
STARTCHAR 02CB
ENCODING 715
SWIDTH 441 0
DWIDTH 15 0
BBX 6 7 3 18
BITMAP
E0
E0
F0
78
18
0C
04
ENDCHAR
STARTCHAR 02D8
ENCODING 728
SWIDTH 441 0
DWIDTH 15 0
BBX 9 6 3 19
BITMAP
8080
8080
8180
6300
7F00
3E00
ENDCHAR
STARTCHAR 02D9
ENCODING 729
SWIDTH 441 0
DWIDTH 15 0
BBX 5 5 5 19
BITMAP
70
F8
F8
F8
70
ENDCHAR
STARTCHAR 02DA
ENCODING 730
SWIDTH 470 0
DWIDTH 16 0
BBX 8 8 4 18
BITMAP
7C
66
C3
C3
C3
E6
7E
3C
ENDCHAR
STARTCHAR 02DB
ENCODING 731
SWIDTH 441 0
DWIDTH 15 0
BBX 6 8 3 -8
BITMAP
18
30
60
C0
C0
C4
F8
70
ENDCHAR
STARTCHAR 02DC
ENCODING 732
SWIDTH 411 0
DWIDTH 14 0
BBX 10 4 2 20
BITMAP
0040
7C40
FF80
8F00
ENDCHAR
STARTCHAR 02DD
ENCODING 733
SWIDTH 441 0
DWIDTH 15 0
BBX 10 6 4 18
BITMAP
0CC0
1DC0
3DC0
3380
6300
C600
ENDCHAR
STARTCHAR 0300
ENCODING 768
SWIDTH 0 0
DWIDTH 0 0
BBX 6 7 -14 18
BITMAP
E0
E0
F0
78
18
0C
04
ENDCHAR
STARTCHAR 0301
ENCODING 769
SWIDTH 0 0
DWIDTH 0 0
BBX 6 7 -10 18
BITMAP
1C
1C
3C
78
60
C0
80
ENDCHAR
STARTCHAR 0302
ENCODING 770
SWIDTH 0 0
DWIDTH 0 0
BBX 10 6 -14 19
BITMAP
0C00
1E00
1E00
3F00
7180
C0C0
ENDCHAR
STARTCHAR 0303
ENCODING 771
SWIDTH 0 0
DWIDTH 0 0
BBX 10 4 -14 20
BITMAP
0040
7C40
FF80
8F00
ENDCHAR
STARTCHAR 0304
ENCODING 772
SWIDTH 0 0
DWIDTH 0 0
BBX 9 2 -13 20
BITMAP
FF80
FF80
ENDCHAR
STARTCHAR 0305
ENCODING 773
SWIDTH 0 0
DWIDTH 0 0
BBX 18 2 -18 28
BITMAP
FFFFC0
FFFFC0
ENDCHAR
STARTCHAR 0306
ENCODING 774
SWIDTH 0 0
DWIDTH 0 0
BBX 10 6 -14 19
BITMAP
8040
C040
4080
6180
3F00
1E00
ENDCHAR
STARTCHAR 0307
ENCODING 775
SWIDTH 0 0
DWIDTH 0 0
BBX 5 5 -11 19
BITMAP
70
F8
F8
F8
70
ENDCHAR
STARTCHAR 0308
ENCODING 776
SWIDTH 0 0
DWIDTH 0 0
BBX 11 4 -14 19
BITMAP
71C0
F1E0
F1E0
71C0
ENDCHAR
STARTCHAR 030A
ENCODING 778
SWIDTH 0 0
DWIDTH 0 0
BBX 8 8 -12 18
BITMAP
7C
66
C3
C3
C3
E6
7E
3C
ENDCHAR
STARTCHAR 030B
ENCODING 779
SWIDTH 0 0
DWIDTH 0 0
BBX 10 6 -12 18
BITMAP
1CC0
1DC0
3DC0
3380
6300
C600
ENDCHAR
STARTCHAR 030C
ENCODING 780
SWIDTH 0 0
DWIDTH 0 0
BBX 10 6 -14 18
BITMAP
8040
6080
3380
3F00
1E00
0C00
ENDCHAR
STARTCHAR 030F
ENCODING 783
SWIDTH 0 0
DWIDTH 0 0
BBX 10 6 -16 18
BITMAP
C600
E700
F700
3380
1980
0CC0
ENDCHAR
STARTCHAR 0311
ENCODING 785
SWIDTH 0 0
DWIDTH 0 0
BBX 10 6 -14 18
BITMAP
0C00
3F00
3F00
6180
4080
8040
ENDCHAR
STARTCHAR 0312
ENCODING 786
SWIDTH 0 0
DWIDTH 0 0
BBX 5 9 -11 18
BITMAP
10
30
40
C0
C0
F0
F8
F8
70
ENDCHAR
STARTCHAR 0313
ENCODING 787
SWIDTH 0 0
DWIDTH 0 0
BBX 5 9 -11 18
BITMAP
E0
F0
F8
F8
18
10
30
60
80
ENDCHAR
STARTCHAR 0314
ENCODING 788
SWIDTH 0 0
DWIDTH 0 0
BBX 5 9 -11 18
BITMAP
70
F8
F8
F0
C0
C0
40
20
10
ENDCHAR
STARTCHAR 0316
ENCODING 790
SWIDTH 0 0
DWIDTH 0 0
BBX 6 7 -14 -8
BITMAP
E0
E0
F0
38
18
0C
04
ENDCHAR
STARTCHAR 0317
ENCODING 791
SWIDTH 0 0
DWIDTH 0 0
BBX 6 7 -10 -8
BITMAP
1C
1C
3C
70
60
C0
80
ENDCHAR
STARTCHAR 0323
ENCODING 803
SWIDTH 0 0
DWIDTH 0 0
BBX 5 5 -11 -7
BITMAP
70
F8
F8
F8
70
ENDCHAR
STARTCHAR 0324
ENCODING 804
SWIDTH 0 0
DWIDTH 0 0
BBX 11 4 -14 -7
BITMAP
71C0
F1E0
F1E0
71C0
ENDCHAR
STARTCHAR 0325
ENCODING 805
SWIDTH 0 0
DWIDTH 0 0
BBX 8 8 -12 -8
BITMAP
3C
7E
E7
C3
C3
C7
7E
3C
ENDCHAR
STARTCHAR 0326
ENCODING 806
SWIDTH 0 0
DWIDTH 0 0
BBX 4 8 -11 -9
BITMAP
60
F0
F0
F0
30
30
60
80
ENDCHAR
STARTCHAR 0327
ENCODING 807
SWIDTH 0 0
DWIDTH 0 0
BBX 7 7 -12 -7
BITMAP
20
20
1C
0E
0E
0E
FC
ENDCHAR
STARTCHAR 0328
ENCODING 808
SWIDTH 0 0
DWIDTH 0 0
BBX 6 8 -13 -8
BITMAP
18
30
60
C0
C0
C4
F8
70
ENDCHAR
STARTCHAR 032C
ENCODING 812
SWIDTH 0 0
DWIDTH 0 0
BBX 10 6 -14 -8
BITMAP
8040
6080
3380
3F00
1E00
0C00
ENDCHAR
STARTCHAR 032D
ENCODING 813
SWIDTH 0 0
DWIDTH 0 0
BBX 10 6 -14 -7
BITMAP
0C00
1E00
1E00
3F00
7180
C0C0
ENDCHAR
STARTCHAR 032E
ENCODING 814
SWIDTH 0 0
DWIDTH 0 0
BBX 10 6 -14 -7
BITMAP
8040
C040
4080
6180
3F00
1E00
ENDCHAR
STARTCHAR 032F
ENCODING 815
SWIDTH 0 0
DWIDTH 0 0
BBX 10 6 -14 -8
BITMAP
0C00
3F00
3F00
6180
4080
8040
ENDCHAR
STARTCHAR 0330
ENCODING 816
SWIDTH 0 0
DWIDTH 0 0
BBX 10 4 -14 -6
BITMAP
0040
7C40
FF80
8F00
ENDCHAR
STARTCHAR 0331
ENCODING 817
SWIDTH 0 0
DWIDTH 0 0
BBX 9 2 -13 -6
BITMAP
FF80
FF80
ENDCHAR
STARTCHAR 0332
ENCODING 818
SWIDTH 0 0
DWIDTH 0 0
BBX 18 2 -18 -6
BITMAP
FFFFC0
FFFFC0
ENDCHAR
STARTCHAR 0333
ENCODING 819
SWIDTH 0 0
DWIDTH 0 0
BBX 18 7 -18 -10
BITMAP
FFFFC0
FFFFC0
000000
000000
000000
FFFFC0
FFFFC0
ENDCHAR
STARTCHAR 033E
ENCODING 830
SWIDTH 0 0
DWIDTH 0 0
BBX 3 9 -10 18
BITMAP
C0
60
60
60
E0
C0
C0
C0
60
ENDCHAR
STARTCHAR 0342
ENCODING 834
SWIDTH 0 0
DWIDTH 0 0
BBX 12 5 -15 19
BITMAP
1810
3E30
7FE0
C7E0
83C0
ENDCHAR
STARTCHAR 0343
ENCODING 835
SWIDTH 0 0
DWIDTH 0 0
BBX 5 9 -11 17
BITMAP
E0
F0
F8
F8
18
10
30
60
40
ENDCHAR
STARTCHAR 0344
ENCODING 836
SWIDTH 0 0
DWIDTH 0 0
BBX 11 9 -14 18
BITMAP
0180
0380
0380
0300
0300
76E0
F5E0
F5E0
70E0
ENDCHAR
STARTCHAR 0345
ENCODING 837
SWIDTH 0 0
DWIDTH 0 0
BBX 4 8 -11 -10
BITMAP
60
60
70
F0
F0
F0
F0
70
ENDCHAR
STARTCHAR 0351
ENCODING 849
SWIDTH 0 0
DWIDTH 0 0
BBX 5 9 -11 17
BITMAP
08
78
60
C0
C0
C0
E0
78
18
ENDCHAR
STARTCHAR 0357
ENCODING 855
SWIDTH 0 0
DWIDTH 0 0
BBX 4 8 -10 18
BITMAP
C0
60
30
30
30
70
E0
80
ENDCHAR
STARTCHAR 0359
ENCODING 857
SWIDTH 0 0
DWIDTH 0 0
BBX 8 9 -13 -10
BITMAP
18
18
DB
D7
38
F7
DB
18
18
ENDCHAR
STARTCHAR 035C
ENCODING 860
SWIDTH 0 0
DWIDTH 0 0
BBX 20 5 -10 -8
BITMAP
800010
7000E0
3FFFC0
0FFF00
01F800
ENDCHAR
STARTCHAR 035D
ENCODING 861
SWIDTH 0 0
DWIDTH 0 0
BBX 20 5 -10 24
BITMAP
800010
7000E0
3FFFC0
0FFF00
01F800
ENDCHAR
STARTCHAR 0361
ENCODING 865
SWIDTH 0 0
DWIDTH 0 0
BBX 20 5 -10 24
BITMAP
01F800
0FFF00
3FFFC0
7000E0
C00030
ENDCHAR
STARTCHAR 0363
ENCODING 867
SWIDTH 0 0
DWIDTH 0 0
BBX 10 10 -13 18
BITMAP
3C00
4600
6700
6700
0F00
7700
E700
E740
E740
7B80
ENDCHAR
STARTCHAR 0364
ENCODING 868
SWIDTH 0 0
DWIDTH 0 0
BBX 8 10 -13 18
BITMAP
3C
66
67
E7
FF
E0
E1
61
72
1C
ENDCHAR
STARTCHAR 0365
ENCODING 869
SWIDTH 0 0
DWIDTH 0 0
BBX 5 14 -11 18
BITMAP
70
70
70
00
F0
70
70
70
70
70
70
70
70
F8
ENDCHAR
STARTCHAR 0366
ENCODING 870
SWIDTH 0 0
DWIDTH 0 0
BBX 9 10 -13 18
BITMAP
1C00
7700
6300
E380
E380
E380
E380
6300
6700
1C00
ENDCHAR
STARTCHAR 0367
ENCODING 871
SWIDTH 0 0
DWIDTH 0 0
BBX 10 10 -14 18
BITMAP
F780
7380
7380
7380
7380
7380
7380
7380
7780
3BC0
ENDCHAR
STARTCHAR 0368
ENCODING 872
SWIDTH 0 0
DWIDTH 0 0
BBX 8 10 -13 18
BITMAP
1C
72
63
E7
E2
E0
E0
61
71
1E
ENDCHAR
STARTCHAR 0369
ENCODING 873
SWIDTH 0 0
DWIDTH 0 0
BBX 10 14 -14 18
BITMAP
0780
0380
0380
0380
3B80
7780
6380
E380
E380
E380
E380
6380
6780
3BC0
ENDCHAR
STARTCHAR 036A
ENCODING 874
SWIDTH 0 0
DWIDTH 0 0
BBX 10 15 -14 17
BITMAP
F000
7000
7000
7000
7000
7700
7B80
7380
7380
7380
7380
7380
7380
7380
FFC0
ENDCHAR
STARTCHAR 036B
ENCODING 875
SWIDTH 0 0
DWIDTH 0 0
BBX 15 10 -16 18
BITMAP
F738
7BDC
739C
739C
739C
739C
739C
739C
739C
FFFE
ENDCHAR
STARTCHAR 036C
ENCODING 876
SWIDTH 0 0
DWIDTH 0 0
BBX 8 10 -11 18
BITMAP
F6
7F
77
76
70
70
70
70
70
F8
ENDCHAR
STARTCHAR 036D
ENCODING 877
SWIDTH 0 0
DWIDTH 0 0
BBX 7 13 -12 18
BITMAP
10
10
10
30
FC
70
70
70
70
72
72
72
3C
ENDCHAR
STARTCHAR 036E
ENCODING 878
SWIDTH 0 0
DWIDTH 0 0
BBX 10 10 -14 18
BITMAP
F9C0
3080
3880
3900
1D00
1E00
0E00
0E00
0C00
0400
ENDCHAR
STARTCHAR 036F
ENCODING 879
SWIDTH 0 0
DWIDTH 0 0
BBX 10 10 -14 18
BITMAP
FB80
7100
3A00
3C00
1C00
0E00
1F00
2700
2380
F7C0
ENDCHAR
STARTCHAR 0374
ENCODING 884
SWIDTH 235 0
DWIDTH 8 0
BBX 6 8 1 18
BITMAP
1C
1C
3C
38
30
60
60
C0
ENDCHAR
STARTCHAR 0375
ENCODING 885
SWIDTH 235 0
DWIDTH 8 0
BBX 6 8 1 -10
BITMAP
0C
18
18
30
70
F0
E0
E0
ENDCHAR
STARTCHAR 037A
ENCODING 890
SWIDTH 470 0
DWIDTH 16 0
BBX 4 8 6 -10
BITMAP
60
60
60
F0
F0
F0
F0
60
ENDCHAR
STARTCHAR 037E
ENCODING 894
SWIDTH 264 0
DWIDTH 9 0
BBX 6 23 2 -7
BITMAP
70
F8
F8
F8
70
00
00
00
00
00
00
00
70
F8
FC
FC
FC
0C
0C
08
10
30
C0
ENDCHAR
STARTCHAR 0384
ENCODING 900
SWIDTH 235 0
DWIDTH 8 0
BBX 6 8 3 18
BITMAP
1C
1C
3C
38
30
60
60
C0
ENDCHAR
STARTCHAR 0385
ENCODING 901
SWIDTH 441 0
DWIDTH 15 0
BBX 11 9 2 18
BITMAP
0180
0380
0380
0300
0600
66C0
F5E0
F5E0
60C0
ENDCHAR
STARTCHAR 0386
ENCODING 902
SWIDTH 764 0
DWIDTH 26 0
BBX 23 26 2 0
BITMAP
0C1000
1C3800
1C3800
383800
307C00
607C00
607C00
407E00
00FE00
00FE00
009F00
019F00
019F00
011F80
030F80
030F80
030FC0
0607C0
07FFC0
0607C0
0C07E0
0C03E0
0C03E0
1C03F0
3C03F8
FF9FFE
ENDCHAR
STARTCHAR 0387
ENCODING 903
SWIDTH 264 0
DWIDTH 9 0
BBX 5 5 2 13
BITMAP
70
F8
F8
F8
70
ENDCHAR
STARTCHAR 0388
ENCODING 904
SWIDTH 941 0
DWIDTH 32 0
BBX 28 26 3 0
BITMAP
1C000000
1CFFFFE0
3C1F03E0
381F01E0
701F00E0
601F0060
401F0060
C01F0020
001F0620
001F0600
001F0E00
001F0E00
001F1E00
001FFE00
001F1E00
001F0E00
001F0E00
001F0630
001F0630
001F0030
001F0070
001F0070
001F00F0
001F00F0
001F03F0
00FFFFF0
ENDCHAR
STARTCHAR 0389
ENCODING 905
SWIDTH 1058 0
DWIDTH 36 0
BBX 32 26 3 0
BITMAP
18000000
39FFCFFF
383E01F0
703E01F0
703E01F0
E03E01F0
C03E01F0
803E01F0
003E01F0
003E01F0
003E01F0
003E01F0
003FFFF0
003E01F0
003E01F0
003E01F0
003E01F0
003E01F0
003E01F0
003E01F0
003E01F0
003E01F0
003E01F0
003E01F0
003E01F0
01FFCFFF
ENDCHAR
STARTCHAR 038A
ENCODING 906
SWIDTH 647 0
DWIDTH 22 0
BBX 18 26 3 0
BITMAP
180000
39FFC0
383E00
703E00
703E00
E03E00
C03E00
803E00
003E00
003E00
003E00
003E00
003E00
003E00
003E00
003E00
003E00
003E00
003E00
003E00
003E00
003E00
003E00
003E00
003E00
01FFC0
ENDCHAR
STARTCHAR 038C
ENCODING 908
SWIDTH 882 0
DWIDTH 30 0
BBX 25 26 3 0
BITMAP
1C000000
1C1FE000
3C387000
38703800
70E01C00
61E01E00
41E01E00
C3E01F00
03E01F00
03E01F00
07E01F80
07E01F80
07E01F80
07E01F80
07E01F80
07E01F80
07E01F80
03E01F00
03E01F00
03E01F00
01E01E00
01E01E00
00E01C00
00703800
00387000
001FE000
ENDCHAR
STARTCHAR 038E
ENCODING 910
SWIDTH 970 0
DWIDTH 33 0
BBX 29 26 3 0
BITMAP
1C000000
1DE003F0
3C7806F0
383C0CF8
701E18F8
600F11F8
400731F8
C007A0F0
0007A000
0003E000
0003E000
0003E000
0003E000
0003E000
0003E000
0003E000
0003E000
0003E000
0003E000
0003E000
0003E000
0003E000
0003E000
0003E000
0003E000
001FFC00
ENDCHAR
STARTCHAR 038F
ENCODING 911
SWIDTH 882 0
DWIDTH 30 0
BBX 25 26 3 0
BITMAP
18000000
3C3FF000
38787800
78F03C00
71F03E00
63E01F00
C3E01F00
87E01F80
07E01F80
07E01F80
07E01F80
07E01F80
07E01F80
03E01F00
03E01F00
03E01F00
01F03E00
00F03C00
00787800
041CE080
040CC080
040CC080
07FCFF80
07FCFF80
07FCFF80
07FCFF80
ENDCHAR
STARTCHAR 0390
ENCODING 912
SWIDTH 323 0
DWIDTH 11 0
BBX 11 27 -1 0
BITMAP
0180
0380
0380
0300
0600
66C0
F5E0
F5E0
60C0
0000
0E00
1E00
1E00
1E00
1E00
1C00
1C00
1800
1800
1800
1800
1840
1840
1FC0
1F80
0F80
0700
ENDCHAR
STARTCHAR 0391
ENCODING 913
SWIDTH 735 0
DWIDTH 25 0
BBX 23 26 1 0
BITMAP
001000
003800
003800
003800
007C00
007C00
007C00
007E00
00FE00
00FE00
009F00
019F00
019F00
011F80
030F80
030F80
030FC0
0607C0
07FFC0
0607C0
0C07E0
0C03E0
0C03E0
1C03F0
3C03F8
FF9FFE
ENDCHAR
STARTCHAR 0392
ENCODING 914
SWIDTH 705 0
DWIDTH 24 0
BBX 20 25 2 0
BITMAP
FFFE00
1F0780
1F07C0
1F03C0
1F03E0
1F03E0
1F03E0
1F03E0
1F03C0
1F0780
1F0700
1FF800
1F0700
1F03C0
1F01E0
1F01E0
1F01F0
1F01F0
1F01F0
1F01F0
1F01F0
1F01E0
1F03C0
1F0780
FFFE00
ENDCHAR
STARTCHAR 0393
ENCODING 915
SWIDTH 647 0
DWIDTH 22 0
BBX 19 25 2 0
BITMAP
FFFFE0
1F0FE0
1F03E0
1F01E0
1F01E0
1F00E0
1F00E0
1F0060
1F0060
1F0060
1F0020
1F0000
1F0000
1F0000
1F0000
1F0000
1F0000
1F0000
1F0000
1F0000
1F0000
1F0000
1F0000
1F0000
FFF000
ENDCHAR
STARTCHAR 0394
ENCODING 916
SWIDTH 647 0
DWIDTH 22 0
BBX 20 26 2 0
BITMAP
006000
006000
00F000
00F000
00F000
01F800
01F800
037800
027C00
027C00
063C00
043E00
043E00
0C1F00
081F00
181F00
180F80
100F80
300F80
3007C0
2007C0
6007C0
7FFFE0
7FFFE0
FFFFE0
FFFFF0
ENDCHAR
STARTCHAR 0395
ENCODING 917
SWIDTH 676 0
DWIDTH 23 0
BBX 20 25 2 0
BITMAP
FFFFE0
1F03E0
1F01E0
1F00E0
1F0060
1F0060
1F0020
1F0620
1F0600
1F0E00
1F0E00
1F1E00
1FFE00
1F1E00
1F0E00
1F0E00
1F0630
1F0630
1F0030
1F0070
1F0070
1F00F0
1F00F0
1F03F0
FFFFF0
ENDCHAR
STARTCHAR 0396
ENCODING 918
SWIDTH 647 0
DWIDTH 22 0
BBX 18 25 2 0
BITMAP
7FFFC0
7C0FC0
781F80
701F80
603F00
603F00
607E00
407E00
40FC00
00FC00
01F800
01F800
03F000
03E000
07E000
0FC040
0FC040
1F8040
1F8040
3F00C0
3F01C0
7E01C0
7E03C0
FC0FC0
FFFFC0
ENDCHAR
STARTCHAR 0397
ENCODING 919
SWIDTH 823 0
DWIDTH 28 0
BBX 25 25 2 0
BITMAP
FFE7FF80
1F00F800
1F00F800
1F00F800
1F00F800
1F00F800
1F00F800
1F00F800
1F00F800
1F00F800
1F00F800
1FFFF800
1F00F800
1F00F800
1F00F800
1F00F800
1F00F800
1F00F800
1F00F800
1F00F800
1F00F800
1F00F800
1F00F800
1F00F800
FFE7FF80
ENDCHAR
STARTCHAR 0398
ENCODING 920
SWIDTH 735 0
DWIDTH 25 0
BBX 21 26 2 0
BITMAP
002000
03FE00
070700
0E0380
1E03C0
3C01E0
3C01E0
7C01F0
7C01F0
FD8DF8
FD8DF8
FDFDF8
FDFDF8
FDFDF8
FDFDF8
FD8DF8
FD8DF8
FC01F8
7C01F0
7C01F0
3C01E0
3C01E0
1C03C0
0E0380
070700
03FE00
ENDCHAR
STARTCHAR 0399
ENCODING 921
SWIDTH 411 0
DWIDTH 14 0
BBX 11 25 2 0
BITMAP
FFE0
1F00
1F00
1F00
1F00
1F00
1F00
1F00
1F00
1F00
1F00
1F00
1F00
1F00
1F00
1F00
1F00
1F00
1F00
1F00
1F00
1F00
1F00
1F00
FFE0
ENDCHAR
STARTCHAR 039A
ENCODING 922
SWIDTH 794 0
DWIDTH 27 0
BBX 24 25 2 0
BITMAP
FFE3FC
1F00F0
1F00C0
1F00C0
1F0180
1F0300
1F0600
1F0C00
1F1C00
1F1C00
1F3E00
1F7E00
1FFF00
1FBF00
1F1F80
1F1F80
1F0FC0
1F0FE0
1F07E0
1F03F0
1F03F0
1F01F8
1F01F8
1F01FC
FFE7FF
ENDCHAR
STARTCHAR 039B
ENCODING 923
SWIDTH 735 0
DWIDTH 25 0
BBX 23 26 1 0
BITMAP
001000
003800
003800
003800
007C00
007C00
007C00
007E00
00FE00
00FE00
009F00
019F00
019F00
010F80
030F80
030F80
020FC0
0607C0
0607C0
0407C0
0C03E0
0C03E0
0C03E0
1C03F0
3C03F8
FF9FFE
ENDCHAR
STARTCHAR 039C
ENCODING 924
SWIDTH 882 0
DWIDTH 30 0
BBX 27 25 2 0
BITMAP
FF003FE0
1F003F00
1F803F00
1F803F00
1F807F00
1FC05F00
1FC05F00
1BE05F00
1BE0DF00
1BE09F00
19F09F00
19F09F00
19F19F00
18F91F00
18F91F00
18FD1F00
187E1F00
187E1F00
183E1F00
183E1F00
183C1F00
181C1F00
181C1F00
3C1C1F00
FF08FFE0
ENDCHAR
STARTCHAR 039D
ENCODING 925
SWIDTH 794 0
DWIDTH 27 0
BBX 24 25 2 0
BITMAP
FF03FF
3F80FC
1F8038
1FC030
0FE030
0FE030
0FF030
0FF830
0DF830
0CFC30
0CFE30
0C7E30
0C3F30
0C3FB0
0C1FB0
0C0FF0
0C07F0
0C07F0
0C03F0
0C01F0
0C01F0
0C00F0
1C0070
3F0070
FFC030
ENDCHAR
STARTCHAR 039E
ENCODING 926
SWIDTH 705 0
DWIDTH 24 0
BBX 19 25 3 0
BITMAP
FFFFE0
FFFFE0
FFFFE0
FFFFE0
C00060
C00060
C00060
C00060
0C0C00
0C0C00
0FFC00
0FFC00
0FFC00
0FFC00
0C0C00
0C0C00
000000
000000
C00060
C00060
C00060
FFFFE0
FFFFE0
FFFFE0
FFFFE0
ENDCHAR
STARTCHAR 039F
ENCODING 927
SWIDTH 705 0
DWIDTH 24 0
BBX 20 25 2 1
BITMAP
03FC00
070E00
0E0700
1C0380
3C03C0
3C03C0
7C03E0
7C03E0
7C03E0
FC03F0
FC03F0
FC03F0
FC03F0
FC03F0
FC03F0
FC03F0
7C03E0
7C03E0
7C03E0
3C03C0
3C03C0
1C0380
0E0700
060E00
03FC00
ENDCHAR
STARTCHAR 03A0
ENCODING 928
SWIDTH 794 0
DWIDTH 27 0
BBX 24 25 2 0
BITMAP
FFFFFF
1F00F8
1F00F8
1F00F8
1F00F8
1F00F8
1F00F8
1F00F8
1F00F8
1F00F8
1F00F8
1F00F8
1F00F8
1F00F8
1F00F8
1F00F8
1F00F8
1F00F8
1F00F8
1F00F8
1F00F8
1F00F8
1F00F8
1F00F8
FFE7FF
ENDCHAR
STARTCHAR 03A1
ENCODING 929
SWIDTH 705 0
DWIDTH 24 0
BBX 20 25 2 0
BITMAP
FFFE00
1F0780
1F03C0
1F01E0
1F01F0
1F01F0
1F01F0
1F01F0
1F01F0
1F01E0
1F03C0
1F0780
1FFE00
1F0000
1F0000
1F0000
1F0000
1F0000
1F0000
1F0000
1F0000
1F0000
1F0000
1F0000
FFF000
ENDCHAR
STARTCHAR 03A3
ENCODING 931
SWIDTH 676 0
DWIDTH 23 0
BBX 19 25 2 0
BITMAP
7FFFE0
7E03E0
7E01E0
3F00E0
3F00E0
1F8060
0FC060
0FC060
07E000
03F000
03F000
01F800
01F000
00E000
004000
008000
018020
030060
060060
0C0060
1800E0
3FFFE0
7FFFE0
FFFFE0
FFFFE0
ENDCHAR
STARTCHAR 03A4
ENCODING 932
SWIDTH 735 0
DWIDTH 25 0
BBX 21 25 3 0
BITMAP
FFFFF8
F8F9F8
F0F878
E0F878
C0F838
C0F838
80F818
80F818
80F818
80F818
00F800
00F800
00F800
00F800
00F800
00F800
00F800
00F800
00F800
00F800
00F800
00F800
00F800
00F800
0FFF00
ENDCHAR
STARTCHAR 03A5
ENCODING 933
SWIDTH 705 0
DWIDTH 24 0
BBX 22 25 1 1
BITMAP
F001F8
3C0378
1E067C
0F0C7C
0788FC
0398FC
03D078
03D000
01F000
01F000
01F000
01F000
01F000
01F000
01F000
01F000
01F000
01F000
01F000
01F000
01F000
01F000
01F000
01F000
0FFE00
ENDCHAR
STARTCHAR 03A6
ENCODING 934
SWIDTH 852 0
DWIDTH 29 0
BBX 26 25 2 0
BITMAP
00FFE000
001F0000
001F0000
001F0000
001F0000
03FFF800
0E1F1E00
3C1F0F00
7C1F0F80
781F0780
F81F07C0
F81F07C0
F81F07C0
F81F07C0
F81F07C0
781F0780
7C1F0F80
3C1F0F00
1E1F1E00
03FFF800
001F0000
001F0000
001F0000
001F0000
00FFE000
ENDCHAR
STARTCHAR 03A7
ENCODING 935
SWIDTH 764 0
DWIDTH 26 0
BBX 23 25 2 0
BITMAP
FFE7FC
3FC1E0
1FC0C0
0FC080
07E180
07E100
03E200
03F600
01F400
01F800
00F800
00FC00
007C00
003E00
007E00
00DF00
009F00
019F80
010FC0
020FC0
0607E0
0407E0
0C03F0
3E07F8
FF8FFE
ENDCHAR
STARTCHAR 03A8
ENCODING 936
SWIDTH 941 0
DWIDTH 32 0
BBX 30 25 1 1
BITMAP
F07FF0F8
3C0F81FC
1E0F83FC
1E0F827C
1F0F827C
1F0F8278
1F0F8600
1F0F8600
1F0F8600
1F0F8600
1F0F8600
1F0F8600
1F0F8600
0F0F8400
0F0F8400
078F8C00
038F9800
01EFB000
007FC000
000F8000
000F8000
000F8000
000F8000
000F8000
007FF000
ENDCHAR
STARTCHAR 03A9
ENCODING 937
SWIDTH 735 0
DWIDTH 25 0
BBX 20 25 3 1
BITMAP
07FE00
0F0F00
1E0780
3E07C0
7C03E0
7C03E0
FC03F0
FC03F0
FC03F0
FC03F0
FC03F0
FC03F0
7C03E0
7C03E0
7C03E0
3E07C0
1E0780
0F0F00
839C10
819810
819810
FF9FF0
FF9FF0
FF9FF0
FF9FF0
ENDCHAR
STARTCHAR 03AA
ENCODING 938
SWIDTH 411 0
DWIDTH 14 0
BBX 11 32 2 0
BITMAP
60C0
F1E0
F1E0
60C0
0000
0000
0000
FFE0
1F00
1F00
1F00
1F00
1F00
1F00
1F00
1F00
1F00
1F00
1F00
1F00
1F00
1F00
1F00
1F00
1F00
1F00
1F00
1F00
1F00
1F00
1F00
FFE0
ENDCHAR
STARTCHAR 03AB
ENCODING 939
SWIDTH 705 0
DWIDTH 24 0
BBX 22 32 1 0
BITMAP
030600
078F00
078F00
030600
000000
000000
000000
F001F8
3C037C
1E067C
0F047C
0788FC
03C8FC
03D078
03F000
01F000
01F000
01F000
01F000
01F000
01F000
01F000
01F000
01F000
01F000
01F000
01F000
01F000
01F000
01F000
01F000
0FFE00
ENDCHAR
STARTCHAR 03AC
ENCODING 940
SWIDTH 588 0
DWIDTH 20 0
BBX 17 26 2 0
BITMAP
001C00
001C00
003C00
003800
007000
006000
00C000
008000
000000
078700
0FCF00
1FCF00
3FDE00
787E00
707C00
607C00
E07800
C07800
C07000
C0F000
C1E080
C1F180
E7DF00
7F9F00
7F1F00
1E0E00
ENDCHAR
STARTCHAR 03AD
ENCODING 941
SWIDTH 441 0
DWIDTH 15 0
BBX 12 26 2 0
BITMAP
00E0
00E0
01E0
01C0
0380
0300
0600
0400
0000
1F80
3FE0
7FE0
7FE0
E060
4000
4F80
7FC0
3FC0
4780
C000
C010
E070
FFE0
7FE0
7FC0
1F00
ENDCHAR
STARTCHAR 03AE
ENCODING 942
SWIDTH 617 0
DWIDTH 21 0
BBX 18 36 1 -10
BITMAP
000C00
000E00
001C00
001C00
003800
003000
002000
004000
000000
381E00
7C3F80
7C7980
FEF0C0
C7E0C0
83E0C0
83C0C0
03C0C0
03C0C0
03C0C0
0780C0
0781C0
0781C0
0781C0
078180
070380
070380
000380
000780
000780
000780
000F80
000F80
000F80
000F80
000F80
000700
ENDCHAR
STARTCHAR 03AF
ENCODING 943
SWIDTH 323 0
DWIDTH 11 0
BBX 7 26 3 0
BITMAP
06
0E
0E
1C
18
30
30
20
00
70
F0
F8
F0
F0
E0
E0
C0
C0
C0
C0
C2
C6
FC
FC
7C
38
ENDCHAR
STARTCHAR 03B0
ENCODING 944
SWIDTH 558 0
DWIDTH 19 0
BBX 16 27 1 0
BITMAP
0180
0380
0380
0300
0600
66C0
F5E0
F1E0
60C0
0000
6040
F070
F838
F818
781C
380E
380E
180F
180F
180F
180F
180F
181F
181E
0E7C
07FC
03F0
ENDCHAR
STARTCHAR 03B1
ENCODING 945
SWIDTH 588 0
DWIDTH 20 0
BBX 17 17 2 0
BITMAP
078F00
0F8F00
1FCF00
3FDE00
787E00
707C00
607C00
E07800
C07800
C07000
C0F000
C1E080
C1F180
E7DF00
7F9F00
7F1F00
1E0E00
ENDCHAR
STARTCHAR 03B2
ENCODING 946
SWIDTH 529 0
DWIDTH 18 0
BBX 14 35 2 -9
BITMAP
0FE0
1FF0
3F38
7C18
7808
700C
600C
E018
E738
C7F8
C7F0
C7E0
C3E0
C010
C018
C01C
C01C
C01C
E01C
E03C
F07C
DFFC
CFFC
C7F8
C3E0
E000
E000
E000
F000
F000
F800
F800
F800
F800
7000
ENDCHAR
STARTCHAR 03B3
ENCODING 947
SWIDTH 558 0
DWIDTH 19 0
BBX 17 27 2 -10
BITMAP
700F80
F81F80
FC1F00
FC3E00
FE3C00
8E3800
867000
036000
034000
01C000
018000
018000
018000
018000
018000
018000
01C000
01C000
01C000
03C000
03E000
03E000
03E000
03E000
03E000
03E000
01C000
ENDCHAR
STARTCHAR 03B4
ENCODING 948
SWIDTH 500 0
DWIDTH 17 0
BBX 13 25 2 1
BITMAP
7E00
7F80
FFE0
EFF8
43F8
40F8
3038
0C00
0700
1FC0
3FE0
7FF0
7E10
F818
F018
E018
C018
C038
C078
C0F8
43F0
7FF0
3FE0
3FC0
0F80
ENDCHAR
STARTCHAR 03B5
ENCODING 949
SWIDTH 441 0
DWIDTH 15 0
BBX 12 17 2 0
BITMAP
1F80
3FE0
7FE0
7FE0
E060
4000
4F80
7FC0
3FC0
4780
C000
C010
E070
FFE0
7FE0
7FC0
1F00
ENDCHAR
STARTCHAR 03B6
ENCODING 950
SWIDTH 500 0
DWIDTH 17 0
BBX 15 33 2 -7
BITMAP
0020
60F8
E3F8
E7F0
6FF0
3FC0
1E00
1000
3000
2000
6000
4000
4000
4000
C000
C000
C000
C000
C000
C000
C000
E000
7FE0
7FF8
3FFC
1FFC
000E
0006
0004
0304
07CC
07F8
03E0
ENDCHAR
STARTCHAR 03B7
ENCODING 951
SWIDTH 617 0
DWIDTH 21 0
BBX 18 27 1 -10
BITMAP
381E00
7C3F80
7C7980
FEF0C0
C7E0C0
83E0C0
83C0C0
03C0C0
03C0C0
03C0C0
0780C0
0781C0
0781C0
0781C0
078180
070380
070380
000380
000780
000780
000780
000F80
000F80
000F80
000F80
000F80
000700
ENDCHAR
STARTCHAR 03B8
ENCODING 952
SWIDTH 647 0
DWIDTH 22 0
BBX 20 26 1 0
BITMAP
03C000
0E7000
1C3800
1C3800
1C1C00
1C1C00
1C1C00
0C1E00
0E1E00
031E00
01DE00
007FF0
381E70
7C1E70
DE1E70
DE1E70
DE1E00
1E1E00
1E1E00
1E1E00
1E1E00
1E1C00
1E1C00
0E3800
0F3000
03E000
ENDCHAR
STARTCHAR 03B9
ENCODING 953
SWIDTH 323 0
DWIDTH 11 0
BBX 7 17 3 0
BITMAP
70
F0
F8
F0
F0
E0
E0
C0
C0
C0
C0
C2
C2
FE
FC
7C
38
ENDCHAR
STARTCHAR 03BA
ENCODING 954
SWIDTH 588 0
DWIDTH 20 0
BBX 17 17 2 0
BITMAP
381C00
7C3C00
FC3E00
FC3C00
FE7C00
8E7800
86F000
07E000
07E000
07A000
0F6000
1E6080
3E7100
7C3F00
7C3F00
783E00
301E00
ENDCHAR
STARTCHAR 03BB
ENCODING 955
SWIDTH 529 0
DWIDTH 18 0
BBX 16 26 1 0
BITMAP
7800
FC00
FE00
FF00
7F00
0300
0180
0180
0080
0080
0180
01C0
03C0
03C0
07C0
07C0
0FC0
0F60
1F20
1E30
3E38
3C3E
7C1F
7C1F
F80F
F807
ENDCHAR
STARTCHAR 03BC
ENCODING 956
SWIDTH 588 0
DWIDTH 20 0
BBX 17 27 2 -10
BITMAP
703800
787800
F87C00
F87C00
F87C00
F87C00
F87C00
F07C00
F07C00
F03800
603880
603880
603080
607980
60FF80
5FCF00
4F8F00
400000
600000
E00000
F00000
F00000
F80000
F80000
F80000
F80000
700000
ENDCHAR
STARTCHAR 03BD
ENCODING 957
SWIDTH 470 0
DWIDTH 16 0
BBX 14 17 1 0
BITMAP
E010
F018
F818
F81C
781C
3C1C
0C3C
0C3C
047C
06F8
03F8
03F0
03F0
03E0
03C0
0380
0600
ENDCHAR
STARTCHAR 03BE
ENCODING 958
SWIDTH 441 0
DWIDTH 15 0
BBX 12 34 2 -7
BITMAP
6000
E000
E3F0
77F0
3FF0
1FE0
3000
2000
2000
2000
21E0
2FF0
1FF0
3FF0
7BE0
6000
6000
C000
C000
C000
C000
C000
C000
FF80
7FE0
7FE0
1FF0
0030
0030
0030
0C30
1E60
0FC0
0780
ENDCHAR
STARTCHAR 03BF
ENCODING 959
SWIDTH 500 0
DWIDTH 17 0
BBX 13 17 2 0
BITMAP
0F80
1FE0
3FE0
7FF0
7E10
F818
F018
E018
C018
C038
C078
C0F8
43F0
7FF0
3FE0
3FC0
0F80
ENDCHAR
STARTCHAR 03C0
ENCODING 960
SWIDTH 647 0
DWIDTH 22 0
BBX 19 17 2 0
BITMAP
1FFFE0
7FFFE0
7FFFE0
FFFFE0
831800
831800
831800
031800
071800
071800
0F1840
1F1CC0
3F1FC0
3F1FC0
7E1F80
3E0F80
1C0700
ENDCHAR
STARTCHAR 03C1
ENCODING 961
SWIDTH 500 0
DWIDTH 17 0
BBX 14 27 2 -10
BITMAP
0780
1FE0
3FF0
3FF0
7E18
7C08
7808
F00C
E01C
E01C
C038
C078
C0F8
E3F0
FFF0
FFE0
CF80
E000
E000
F000
F000
F800
FC00
FC00
FC00
7C00
7800
ENDCHAR
STARTCHAR 03C2
ENCODING 962
SWIDTH 470 0
DWIDTH 16 0
BBX 13 24 2 -7
BITMAP
01F0
07F8
1FF8
3FF8
39F0
6000
4000
C000
C000
C000
C000
C000
E000
7FC0
7FE0
3FF0
1FF0
0030
0030
0030
0430
0E20
0FE0
0780
ENDCHAR
STARTCHAR 03C3
ENCODING 963
SWIDTH 558 0
DWIDTH 19 0
BBX 16 17 2 0
BITMAP
0FFF
1FFF
3FFF
7FFF
7060
E030
C010
C018
C018
C01C
C01C
E03C
707C
7FF8
3FF8
1FF0
07C0
ENDCHAR
STARTCHAR 03C4
ENCODING 964
SWIDTH 500 0
DWIDTH 17 0
BBX 15 17 1 0
BITMAP
1FFE
3FFE
7FFE
7FFE
C180
8180
8180
0180
0180
0180
0184
01CC
01FC
01FC
01F8
00F8
0070
ENDCHAR
STARTCHAR 03C5
ENCODING 965
SWIDTH 558 0
DWIDTH 19 0
BBX 16 17 1 0
BITMAP
6040
F030
F838
F81C
781C
380E
380E
180F
180F
180F
180F
180F
181F
181E
0C3C
07FC
03F0
ENDCHAR
STARTCHAR 03C6
ENCODING 966
SWIDTH 647 0
DWIDTH 22 0
BBX 18 27 2 -10
BITMAP
1C1E00
3E3F00
7E7F80
7EFF80
FCE1C0
E0C0C0
C0C0C0
C080C0
C080C0
C080C0
C081C0
608380
708F80
3FFF00
3FFE00
1FFC00
07F000
008000
008000
008000
01C000
01C000
03C000
03E000
03E000
03E000
01C000
ENDCHAR
STARTCHAR 03C7
ENCODING 967
SWIDTH 588 0
DWIDTH 20 0
BBX 20 27 1 -10
BITMAP
700780
F80F80
FC0F80
FC1F00
7E1F00
063E00
033E00
017C00
017C00
00F800
00F800
00F000
01F000
01E000
03E000
03E000
07E000
079000
0F9000
0F9800
1F0800
1F0C00
3E07E0
3E07F0
7C03F0
7C03F0
7800E0
ENDCHAR
STARTCHAR 03C8
ENCODING 968
SWIDTH 647 0
DWIDTH 22 0
BBX 18 35 2 -9
BITMAP
00F000
01F800
01F800
01F800
01F800
01F800
01F000
00F000
38F100
7CF180
7CF080
FCF0C0
F860C0
F060C0
E060C0
C060C0
C060C0
C061C0
4061C0
4063C0
706780
3FFF80
1FFF00
0FFE00
03F800
006000
006000
006000
006000
00E000
00F000
00F000
00F000
00F000
006000
ENDCHAR
STARTCHAR 03C9
ENCODING 969
SWIDTH 705 0
DWIDTH 24 0
BBX 20 17 2 0
BITMAP
1C0300
3C0180
7C01C0
7C01C0
7C70E0
F870E0
F8F8F0
F0F8F0
F0F8F0
F0F8F0
F0F0F0
F070F0
7071E0
7861E0
3863E0
1FDFC0
0F8F80
ENDCHAR
STARTCHAR 03CA
ENCODING 970
SWIDTH 352 0
DWIDTH 12 0
BBX 11 24 0 0
BITMAP
70C0
F1E0
F9E0
70C0
0000
0000
0000
0E00
1F00
1F00
1F00
1E00
1E00
1C00
1C00
1800
1800
1800
1800
1840
1FC0
1F80
0F80
0700
ENDCHAR
STARTCHAR 03CB
ENCODING 971
SWIDTH 558 0
DWIDTH 19 0
BBX 16 24 1 0
BITMAP
70C0
F1E0
F9E0
70C0
0000
0000
0000
6040
F030
F838
F81C
781C
380E
380E
180F
180F
180F
180F
180F
181F
181E
0C3C
07FC
03F0
ENDCHAR
STARTCHAR 03CC
ENCODING 972
SWIDTH 500 0
DWIDTH 17 0
BBX 13 26 2 0
BITMAP
0060
00E0
01E0
01C0
0180
0300
0300
0600
0000
0F80
1FE0
3FE0
7FF0
7E10
F818
F018
E018
C018
C038
C078
C0F8
43F0
7FF0
3FE0
3FC0
0F80
ENDCHAR
STARTCHAR 03CD
ENCODING 973
SWIDTH 558 0
DWIDTH 19 0
BBX 16 26 1 0
BITMAP
00C0
01C0
01C0
0380
0300
0600
0600
0400
0000
6040
F030
F838
F81C
781C
380E
380E
180F
180F
180F
180F
180F
181F
181E
0E7C
07FC
03F0
ENDCHAR
STARTCHAR 03CE
ENCODING 974
SWIDTH 705 0
DWIDTH 24 0
BBX 20 26 2 0
BITMAP
000C00
001C00
001C00
003800
003000
006000
006000
00C000
000000
1C0300
3C0180
7C01C0
7C01C0
7C70E0
F870E0
F8F8F0
F0F8F0
F0F8F0
F0F8F0
F0F0F0
F070F0
7071E0
7861E0
3863E0
1FDFC0
0F8F80
ENDCHAR
STARTCHAR 03CF
ENCODING 975
SWIDTH 764 0
DWIDTH 26 0
BBX 23 34 2 -10
BITMAP
FFE3FC
1F00F0
1F00C0
1F00C0
1F0180
1F0300
1F0600
1F0C00
1F1C00
1F1C00
1F3E00
1F7F00
1FFF00
1FBF80
1F1F80
1F0FC0
1F0FC0
1F07E0
1F03F0
1F03F0
1F01F8
1F01F8
1F00FC
1F007C
FFE07E
0000FE
0003FC
0027F8
003FF0
001FE0
000FC0
000780
000300
000180
ENDCHAR
STARTCHAR 03D0
ENCODING 976
SWIDTH 500 0
DWIDTH 17 0
BBX 14 25 2 1
BITMAP
03F8
073C
0C1C
181C
101C
3C38
23E0
6000
4000
4000
4F80
BFC0
FE60
FC30
F830
F038
F038
F078
E078
E078
60F8
61F0
33F0
1FE0
0F80
ENDCHAR
STARTCHAR 03D1
ENCODING 977
SWIDTH 529 0
DWIDTH 18 0
BBX 20 26 1 0
BITMAP
03C000
0E7000
1C3800
1C3800
1C1C00
1C1C00
1C1C00
0C1E00
0E1E00
031E00
01DE00
007FF0
381E70
7C1E70
DE1E70
DE1E70
DE1E00
1E1E00
1E1E00
1E1E00
1E1E00
1E1C00
1E1C00
0E3800
0F3000
03E000
ENDCHAR
STARTCHAR 03D2
ENCODING 978
SWIDTH 705 0
DWIDTH 24 0
BBX 22 25 1 1
BITMAP
F001F8
3C0378
1E067C
0F0C7C
0788FC
0398FC
03D078
03D000
01F000
01F000
01F000
01F000
01F000
01F000
01F000
01F000
01F000
01F000
01F000
01F000
01F000
01F000
01F000
01F000
0FFE00
ENDCHAR
STARTCHAR 03D3
ENCODING 979
SWIDTH 970 0
DWIDTH 33 0
BBX 29 26 3 0
BITMAP
1C000000
1DE003F0
3C7806F0
383C0CF8
701E18F8
600F11F8
400731F8
C007A0F0
0007A000
0003E000
0003E000
0003E000
0003E000
0003E000
0003E000
0003E000
0003E000
0003E000
0003E000
0003E000
0003E000
0003E000
0003E000
0003E000
0003E000
001FFC00
ENDCHAR
STARTCHAR 03D4
ENCODING 980
SWIDTH 705 0
DWIDTH 24 0
BBX 22 32 1 0
BITMAP
030600
078F00
078F00
030600
000000
000000
000000
F001F8
3C037C
1E067C
0F047C
0788FC
03C8FC
03D078
03F000
01F000
01F000
01F000
01F000
01F000
01F000
01F000
01F000
01F000
01F000
01F000
01F000
01F000
01F000
01F000
01F000
0FFE00
ENDCHAR
STARTCHAR 03D5
ENCODING 981
SWIDTH 617 0
DWIDTH 21 0
BBX 17 35 2 -9
BITMAP
01E000
01E000
01E000
01E000
01C000
01C000
018000
018000
07F000
0FFC00
3FFE00
3FFF00
7F8300
FD8180
F18180
E18180
C18180
C18380
C18780
C19F00
41FF00
7FFE00
3FFC00
1FF800
07E000
018000
018000
018000
01C000
01C000
01C000
01E000
01E000
01E000
00C000
ENDCHAR
STARTCHAR 03D6
ENCODING 982
SWIDTH 794 0
DWIDTH 27 0
BBX 25 17 1 0
BITMAP
1FFFFF80
3FFFFF80
7FFFFF80
7FFFFF80
C6001800
8E001C00
8C0C0C00
1C1E0E00
1C1E0E00
1C1E0E00
1C1E0E00
1C1E0E00
1C0C1E00
0E0C1C00
0F0C3C00
07F7F800
01E1F000
ENDCHAR
STARTCHAR 03D7
ENCODING 983
SWIDTH 588 0
DWIDTH 20 0
BBX 16 24 2 -7
BITMAP
381C
7C3C
FC3E
FC3C
FE7C
8E78
86F0
07E0
07E0
07A0
0F60
1E61
3E31
7C3F
7C3F
783F
301F
0002
0002
0302
07C4
07F8
07F8
03E0
ENDCHAR
STARTCHAR 03D8
ENCODING 984
SWIDTH 705 0
DWIDTH 24 0
BBX 21 25 2 1
BITMAP
03FE00
0F0780
3E03E0
7E03F0
7C01F0
FC01F8
FC01F8
FC01F8
FC01F8
FC01F8
FC01F0
7C01F0
3E03E0
1E03C0
0F0780
03FE00
00F800
00F800
00F800
00F800
00F800
00F800
00F800
00F800
07FF00
ENDCHAR
STARTCHAR 03D9
ENCODING 985
SWIDTH 500 0
DWIDTH 17 0
BBX 13 27 2 -10
BITMAP
0F80
1FE0
3FE0
7FF0
7E10
F818
F018
E018
C018
C038
C078
C0F8
43F0
7FF0
3FE0
3FE0
0F80
0300
0300
0300
0300
0300
0780
0780
0780
0780
0300
ENDCHAR
STARTCHAR 03DA
ENCODING 986
SWIDTH 617 0
DWIDTH 21 0
BBX 19 26 2 0
BITMAP
000020
0FFC20
1FFFE0
3FFFC0
78FF80
600F80
C00000
C00000
C00000
C00000
C00000
C00000
600000
300000
180000
0FF800
03F800
00F800
00F800
00F800
00F800
00F800
00F800
00F800
00F800
07FF00
ENDCHAR
STARTCHAR 03DB
ENCODING 987
SWIDTH 500 0
DWIDTH 17 0
BBX 15 27 2 -7
BITMAP
0002
0002
0006
03FE
0FFC
1FFC
3FFC
7FF8
7000
4000
C000
C000
C000
C000
C000
E000
7FC0
7FE0
3FF0
1FF0
0030
0030
0030
0430
0E20
0FE0
0780
ENDCHAR
STARTCHAR 03DC
ENCODING 988
SWIDTH 676 0
DWIDTH 23 0
BBX 20 25 2 0
BITMAP
FFFFF0
1F03F0
1F00F0
1F00F0
1F0070
1F0030
1F0030
1F0030
1F0030
1F0010
1FFE00
1F1E00
1F0E00
1F0E00
1F0600
1F0600
1F0600
1F0000
1F0000
1F0000
1F0000
1F0000
1F0000
1F0000
FFF000
ENDCHAR
STARTCHAR 03DD
ENCODING 989
SWIDTH 500 0
DWIDTH 17 0
BBX 18 27 -2 -10
BITMAP
01FFC0
03FFC0
03FFC0
03FF80
030000
030000
030000
030000
030000
03FF80
03FF80
03FF80
03FF00
030000
030000
030000
030000
030000
030000
030000
030000
030000
E30000
F30000
F20000
FE0000
7C0000
ENDCHAR
STARTCHAR 03DE
ENCODING 990
SWIDTH 676 0
DWIDTH 23 0
BBX 21 25 1 1
BITMAP
7C0000
FE0000
FE0000
FB0000
F30000
020040
0200C0
0203C0
060F80
063F80
04FF80
05FF80
07FF00
0FFD00
0FF900
0FE300
0F8300
1E0200
180200
100200
000678
0006F8
0003F8
0003F8
0001F0
ENDCHAR
STARTCHAR 03DF
ENCODING 991
SWIDTH 411 0
DWIDTH 14 0
BBX 12 31 1 -6
BITMAP
3800
7C00
FC00
FC00
8C00
0C00
0800
0800
1000
1000
2000
3FE0
7FF0
7FF0
7FF0
0030
0020
0060
0060
00C0
00C0
01C0
03C0
0380
0780
0780
0F00
0F00
0F00
1F00
0E00
ENDCHAR
STARTCHAR 03E0
ENCODING 992
SWIDTH 735 0
DWIDTH 25 0
BBX 21 25 2 1
BITMAP
1FE000
3FF000
7FFC00
73FE00
C0FF00
C07F80
C03F80
C03FC0
C06FE0
C0C7E0
408FF0
210BF0
0319F0
0630F8
0420F8
0C4078
18C078
108038
311038
633C38
467C30
C47C30
007860
003060
003F80
ENDCHAR
STARTCHAR 03E1
ENCODING 993
SWIDTH 529 0
DWIDTH 18 0
BBX 19 30 -2 -6
BITMAP
F80000
FE0000
3F8000
03E000
00F000
003800
001C00
000E00
001E00
007B00
00F380
03C180
0701C0
0601C0
0007C0
001FE0
003C60
00F060
00E060
000060
000060
000060
000060
000060
0000E0
0000E0
0000C0
0000C0
0001C0
000080
ENDCHAR
STARTCHAR 03F0
ENCODING 1008
SWIDTH 529 0
DWIDTH 18 0
BBX 17 17 2 0
BITMAP
381C00
7C3C00
FC3E00
FC3C00
FE7C00
8E7800
86F000
07E000
07E000
07A000
0F6000
1E6080
3E7100
7C3F00
7C3F00
783E00
301E00
ENDCHAR
STARTCHAR 03F1
ENCODING 1009
SWIDTH 500 0
DWIDTH 17 0
BBX 14 27 2 -10
BITMAP
0780
1FE0
3FF0
3FF0
7E18
7C08
7808
F00C
E01C
E01C
C038
C078
C0F8
E3F0
FFF0
FFE0
CF80
E000
E000
F000
F000
F800
FC00
FC00
FC00
7C00
7800
ENDCHAR
STARTCHAR 03F2
ENCODING 1010
SWIDTH 441 0
DWIDTH 15 0
BBX 12 17 2 0
BITMAP
0780
1C60
3820
7010
7000
F000
F000
F000
F000
F000
F000
F000
7000
7010
3820
1C60
0780
ENDCHAR
STARTCHAR 03F3
ENCODING 1011
SWIDTH 294 0
DWIDTH 10 0
BBX 10 32 -2 -8
BITMAP
0380
07C0
07C0
07C0
0380
0000
0000
0FC0
03C0
03C0
03C0
03C0
03C0
03C0
03C0
03C0
03C0
03C0
03C0
03C0
03C0
03C0
03C0
03C0
03C0
33C0
FBC0
FBC0
F380
F380
6700
3C00
ENDCHAR
STARTCHAR 03F4
ENCODING 1012
SWIDTH 705 0
DWIDTH 24 0
BBX 20 25 2 1
BITMAP
03FC00
070E00
0E0700
1C0380
3C03C0
3C03C0
7C03E0
7C03E0
7C03E0
FC03F0
FC03F0
FC03F0
FFFFF0
FC03F0
FC03F0
FC03F0
7C03E0
7C03E0
7C03E0
3C03C0
3C03C0
1C0380
0E0700
060600
03FC00
ENDCHAR
STARTCHAR 03F5
ENCODING 1013
SWIDTH 441 0
DWIDTH 15 0
BBX 12 17 2 0
BITMAP
0780
1C60
3820
7000
7000
F000
F000
FFC0
F000
F000
F000
F000
7000
7010
3820
1C60
0780
ENDCHAR
STARTCHAR 03F6
ENCODING 1014
SWIDTH 441 0
DWIDTH 15 0
BBX 12 17 1 0
BITMAP
1E00
6380
41C0
00E0
00E0
00F0
00F0
3FF0
00F0
00F0
00F0
00F0
00E0
80E0
41C0
6380
1E00
ENDCHAR
STARTCHAR 03F9
ENCODING 1017
SWIDTH 617 0
DWIDTH 21 0
BBX 18 25 2 1
BITMAP
03FC00
0F0200
1E0100
1E0080
3C0080
7C0040
7C0000
7C0000
FC0000
FC0000
FC0000
FC0000
FC0000
FC0000
FC0000
FC0000
FC0000
7C0000
7C0000
7C0040
3C0080
1E0080
1E0100
0F0200
03FC00
ENDCHAR
STARTCHAR 0400
ENCODING 1024
SWIDTH 676 0
DWIDTH 23 0
BBX 20 33 2 0
BITMAP
030000
078000
038000
01C000
00E000
002000
000000
000000
FFFFE0
1F01E0
1F00E0
1F00E0
1F0060
1F0060
1F0020
1F0420
1F0400
1F0C00
1F0C00
1F1C00
1FFC00
1F1C00
1F0C00
1F0C30
1F0430
1F0430
1F0030
1F0070
1F0070
1F00F0
1F01F0
1F03F0
FFFFF0
ENDCHAR
STARTCHAR 0401
ENCODING 1025
SWIDTH 676 0
DWIDTH 23 0
BBX 20 32 2 0
BITMAP
070E00
078F00
078F00
070E00
000000
000000
000000
FFFFE0
1F01E0
1F00E0
1F00E0
1F0060
1F0060
1F0020
1F0420
1F0400
1F0C00
1F0C00
1F1C00
1FFC00
1F1C00
1F0C00
1F0C30
1F0430
1F0430
1F0030
1F0070
1F0070
1F00F0
1F00F0
1F03F0
FFFFF0
ENDCHAR
STARTCHAR 0402
ENCODING 1026
SWIDTH 852 0
DWIDTH 29 0
BBX 26 25 2 0
BITMAP
FFFFF000
F1F0F000
E1F07000
C1F03000
C1F03000
81F01000
81F01000
81F01000
81F01000
01F01000
01F00000
01F1F800
01FE1E00
01F80F00
01F00F80
01F007C0
01F007C0
01F007C0
01F007C0
01F187C0
01F3C7C0
01F3C780
01F38F80
01F38F00
0FF1FE00
ENDCHAR
STARTCHAR 0403
ENCODING 1027
SWIDTH 647 0
DWIDTH 22 0
BBX 19 33 2 0
BITMAP
000E00
000E00
001E00
003800
003000
006000
000000
000000
FFFFE0
1F07E0
1F03E0
1F01E0
1F01E0
1F00E0
1F00E0
1F0060
1F0060
1F0060
1F0000
1F0000
1F0000
1F0000
1F0000
1F0000
1F0000
1F0000
1F0000
1F0000
1F0000
1F0000
1F0000
1F0000
FFF000
ENDCHAR
STARTCHAR 0404
ENCODING 1028
SWIDTH 676 0
DWIDTH 23 0
BBX 19 25 2 1
BITMAP
07FC40
0E06C0
1E03C0
3C01C0
3C01C0
7C00C0
7C00C0
FC00C0
FC0040
FC0040
FC0000
FFFC00
FC0000
FC0000
FC0000
FC0780
FC0FC0
7C0FE0
7C0FE0
3C07E0
3C03E0
1E01C0
0E01C0
070380
03FE00
ENDCHAR
STARTCHAR 0405
ENCODING 1029
SWIDTH 617 0
DWIDTH 21 0
BBX 16 25 3 1
BITMAP
1FC6
2076
603E
E01E
E00E
F006
F806
FC06
FF02
7F80
7FC0
3FF0
0FF8
07FC
81FE
80FE
C07F
C01F
C00F
E007
E007
F006
F806
DC0C
8778
ENDCHAR
STARTCHAR 0406
ENCODING 1030
SWIDTH 411 0
DWIDTH 14 0
BBX 11 25 2 0
BITMAP
FFE0
1F00
1F00
1F00
1F00
1F00
1F00
1F00
1F00
1F00
1F00
1F00
1F00
1F00
1F00
1F00
1F00
1F00
1F00
1F00
1F00
1F00
1F00
1F00
FFE0
ENDCHAR
STARTCHAR 0407
ENCODING 1031
SWIDTH 441 0
DWIDTH 15 0
BBX 11 32 2 0
BITMAP
70E0
F1E0
F1E0
70E0
0000
0000
0000
FFE0
1F00
1F00
1F00
1F00
1F00
1F00
1F00
1F00
1F00
1F00
1F00
1F00
1F00
1F00
1F00
1F00
1F00
1F00
1F00
1F00
1F00
1F00
1F00
FFE0
ENDCHAR
STARTCHAR 0408
ENCODING 1032
SWIDTH 529 0
DWIDTH 18 0
BBX 16 25 1 0
BITMAP
07FF
00F8
00F8
00F8
00F8
00F8
00F8
00F8
00F8
00F8
00F8
00F8
00F8
00F8
00F8
00F8
78F8
F8F8
F8F8
F8F8
F0F8
E0F0
40F0
61E0
3FC0
ENDCHAR
STARTCHAR 0409
ENCODING 1033
SWIDTH 1029 0
DWIDTH 35 0
BBX 33 25 1 0
BITMAP
03FFFF0000
0060F80000
0060F80000
0040F80000
0040F80000
0040F80000
0040F80000
0040F80000
0040F80000
0040F80000
0040F80000
0040FFF000
0040F83C00
0040F81E00
00C0F80F00
0080F80F80
0080F80F80
3880F80F80
7C80F80F80
FC80F80F80
FD00F80F80
F900F80F00
F300F81E00
7E00F83C00
3807FFF000
ENDCHAR
STARTCHAR 040A
ENCODING 1034
SWIDTH 1058 0
DWIDTH 36 0
BBX 33 25 2 0
BITMAP
FFE7FF8000
1F00F80000
1F00F80000
1F00F80000
1F00F80000
1F00F80000
1F00F80000
1F00F80000
1F00F80000
1F00F80000
1F00F80000
1FFFFFF000
1F00F83C00
1F00F81E00
1F00F80F00
1F00F80F80
1F00F80F80
1F00F80F80
1F00F80F80
1F00F80F80
1F00F80F80
1F00F80F00
1F00F81E00
1F00F83C00
FFE7FFF000
ENDCHAR
STARTCHAR 040B
ENCODING 1035
SWIDTH 911 0
DWIDTH 31 0
BBX 28 25 2 0
BITMAP
FFFFF000
F1F0F000
E1F07000
C1F03000
C1F03000
81F01000
81F01000
81F01000
01F01000
01F00000
01F00000
01FFF800
01F03C00
01F01E00
01F01F00
01F01F00
01F01F00
01F01F00
01F01F00
01F01F00
01F01F00
01F01F00
01F01F00
01F01F00
0FFE7FF0
ENDCHAR
STARTCHAR 040C
ENCODING 1036
SWIDTH 735 0
DWIDTH 25 0
BBX 22 33 2 1
BITMAP
000700
000F00
000E00
001C00
003800
002000
000000
000000
FFE1F0
1F01B8
1F0278
1F02F8
1F02F8
1F02F0
1F0270
1F0200
1F0200
1F0600
1F0C00
1FFC00
1F0F00
1F0780
1F03C0
1F03C0
1F03C0
1F03C0
1F03C0
1F03C4
1F03C4
1F03C4
1F03C4
1F01C8
FFE1F8
ENDCHAR
STARTCHAR 040D
ENCODING 1037
SWIDTH 823 0
DWIDTH 28 0
BBX 25 33 2 0
BITMAP
01C00000
01C00000
01E00000
00700000
00300000
00180000
00000000
00000000
FFE7FF80
1F00F800
1F00F800
1F00F800
1F01F800
1F01F800
1F02F800
1F02F800
1F06F800
1F04F800
1F0CF800
1F08F800
1F18F800
1F10F800
1F30F800
1F20F800
1F60F800
1F40F800
1F40F800
1F80F800
1F80F800
1F00F800
1F00F800
1F00F800
FFE7FF80
ENDCHAR
STARTCHAR 040E
ENCODING 1038
SWIDTH 794 0
DWIDTH 27 0
BBX 24 33 2 1
BITMAP
01E0E0
03E1F0
03C0F0
038070
018060
00C0C0
003F00
000000
FFF9FF
1FC038
0FC030
07C030
07E020
03E020
03F060
01F040
01F840
00F8C0
00FC80
007C80
007F00
007F00
003F00
003E00
001E00
001C00
0F0C00
1F8C00
1F8800
1F8800
1F1000
0E3000
07E000
ENDCHAR
STARTCHAR 040F
ENCODING 1039
SWIDTH 794 0
DWIDTH 27 0
BBX 24 33 2 -8
BITMAP
FFE7FF
1F00F8
1F00F8
1F00F8
1F00F8
1F00F8
1F00F8
1F00F8
1F00F8
1F00F8
1F00F8
1F00F8
1F00F8
1F00F8
1F00F8
1F00F8
1F00F8
1F00F8
1F00F8
1F00F8
1F00F8
1F00F8
1F00F8
1F00F8
FFFFFF
001800
001C00
003C00
003C00
003C00
003C00
003C00
001C00
ENDCHAR
STARTCHAR 0410
ENCODING 1040
SWIDTH 735 0
DWIDTH 25 0
BBX 23 26 1 0
BITMAP
001000
001800
003800
003800
003C00
007C00
007C00
007E00
00FE00
00FE00
009E00
019F00
019F00
011F00
030F80
030F80
030F80
0607C0
07FFC0
0607C0
0407E0
0C03E0
0C03E0
1C03F0
1C03F0
FF9FFE
ENDCHAR
STARTCHAR 0411
ENCODING 1041
SWIDTH 705 0
DWIDTH 24 0
BBX 20 25 2 0
BITMAP
FFFFC0
1F03C0
1F01C0
1F00C0
1F00C0
1F00C0
1F0040
1F0040
1F0040
1F0000
1F0000
1FFE00
1F0780
1F03C0
1F01E0
1F01F0
1F01F0
1F01F0
1F01F0
1F01F0
1F01F0
1F01E0
1F03C0
1F0780
FFFE00
ENDCHAR
STARTCHAR 0412
ENCODING 1042
SWIDTH 705 0
DWIDTH 24 0
BBX 20 25 2 0
BITMAP
FFFE00
1F0780
1F07C0
1F03C0
1F03E0
1F03E0
1F03E0
1F03E0
1F03C0
1F0780
1F0700
1FF800
1F0700
1F03C0
1F01E0
1F01E0
1F01F0
1F01F0
1F01F0
1F01F0
1F01F0
1F01E0
1F03C0
1F0780
FFFE00
ENDCHAR
STARTCHAR 0413
ENCODING 1043
SWIDTH 647 0
DWIDTH 22 0
BBX 19 25 2 0
BITMAP
FFFFE0
1F07E0
1F03E0
1F01E0
1F01E0
1F00E0
1F00E0
1F0060
1F0060
1F0060
1F0000
1F0000
1F0000
1F0000
1F0000
1F0000
1F0000
1F0000
1F0000
1F0000
1F0000
1F0000
1F0000
1F0000
FFF000
ENDCHAR
STARTCHAR 0414
ENCODING 1044
SWIDTH 735 0
DWIDTH 25 0
BBX 23 32 1 -7
BITMAP
0FFFFC
01C3E0
0083E0
0083E0
0083E0
0083E0
0083E0
0083E0
0083E0
0083E0
0183E0
0183E0
0103E0
0103E0
0103E0
0103E0
0303E0
0303E0
0303E0
0203E0
0603E0
0603E0
0603E0
0E03E0
FFFFFE
F8003E
E0000E
E0000E
C00006
C00006
800002
800002
ENDCHAR
STARTCHAR 0415
ENCODING 1045
SWIDTH 676 0
DWIDTH 23 0
BBX 20 25 2 0
BITMAP
FFFFE0
1F01E0
1F00E0
1F00E0
1F0060
1F0060
1F0020
1F0420
1F0400
1F0C00
1F0C00
1F1C00
1FFC00
1F1C00
1F0C00
1F0C30
1F0430
1F0430
1F0030
1F0070
1F0070
1F00F0
1F01F0
1F03F0
FFFFF0
ENDCHAR
STARTCHAR 0416
ENCODING 1046
SWIDTH 970 0
DWIDTH 33 0
BBX 31 25 1 1
BITMAP
3E3FF8F8
7707C0DC
7907C13C
7907C17C
7D07C17C
7D07C178
3907C138
0107C100
0187C100
0087C200
00C7C600
007FFC00
0387C380
0787C1C0
0707C1E0
0F07C1E0
0F07C1E0
0F07C1E0
0F07C1E0
8F07C1E2
8F07C1E2
8F07C1E2
8F07C1E2
4F07C0E4
7E3FF8FC
ENDCHAR
STARTCHAR 0417
ENCODING 1047
SWIDTH 676 0
DWIDTH 23 0
BBX 18 25 3 1
BITMAP
47F800
7C1E00
780F00
700F00
700F80
600F80
600F80
400F80
400F00
401E00
003C00
0FF000
003C00
001F00
000F80
7C0F80
7E0FC0
FE0FC0
FE0FC0
FC0FC0
F00FC0
700F80
601F00
301E00
0FF800
ENDCHAR
STARTCHAR 0418
ENCODING 1048
SWIDTH 823 0
DWIDTH 28 0
BBX 25 25 2 0
BITMAP
FFE7FF80
1F00F800
1F00F800
1F00F800
1F01F800
1F01F800
1F02F800
1F02F800
1F06F800
1F04F800
1F0CF800
1F08F800
1F18F800
1F10F800
1F30F800
1F20F800
1F60F800
1F40F800
1F40F800
1F80F800
1F80F800
1F00F800
1F00F800
1F00F800
FFE7FF80
ENDCHAR
STARTCHAR 0419
ENCODING 1049
SWIDTH 823 0
DWIDTH 28 0
BBX 25 33 2 1
BITMAP
0381C000
07C3E000
0781E000
0700E000
0300C000
01818000
007E0000
00000000
FFE7FF80
1F00F800
1F00F800
1F00F800
1F01F800
1F01F800
1F03F800
1F02F800
1F06F800
1F04F800
1F0CF800
1F08F800
1F18F800
1F10F800
1F30F800
1F20F800
1F60F800
1F40F800
1F40F800
1F80F800
1F80F800
1F00F800
1F00F800
1F00F800
FFE7FF80
ENDCHAR
STARTCHAR 041A
ENCODING 1050
SWIDTH 735 0
DWIDTH 25 0
BBX 22 25 2 1
BITMAP
FFE1F0
1F01B8
1F0278
1F02F8
1F02F8
1F02F0
1F0270
1F0200
1F0200
1F0600
1F0C00
1FFC00
1F0F00
1F0780
1F03C0
1F03C0
1F03C0
1F03C0
1F03C0
1F03C4
1F03C4
1F03C4
1F03C4
1F01C8
FFE1F8
ENDCHAR
STARTCHAR 041B
ENCODING 1051
SWIDTH 764 0
DWIDTH 26 0
BBX 24 25 1 0
BITMAP
03FFFF
0060F8
0060F8
0040F8
0040F8
0040F8
0040F8
0040F8
0040F8
0040F8
0040F8
0040F8
0040F8
0040F8
00C0F8
0080F8
0080F8
3880F8
7C80F8
FC80F8
FD00F8
F900F8
F300F8
7E00F8
3807FF
ENDCHAR
STARTCHAR 041C
ENCODING 1052
SWIDTH 882 0
DWIDTH 30 0
BBX 27 25 2 0
BITMAP
FF003FE0
0F003F00
0F803F00
0F803F00
0F807F00
0FC05F00
0FC05F00
0BE05F00
0BE0DF00
0BE09F00
09F09F00
09F09F00
09F11F00
08F91F00
08F91F00
08F91F00
087E1F00
087E1F00
083E1F00
083E1F00
083C1F00
081C1F00
181C1F00
3C1C1F00
FF08FFE0
ENDCHAR
STARTCHAR 041D
ENCODING 1053
SWIDTH 823 0
DWIDTH 28 0
BBX 25 25 2 0
BITMAP
FFE7FF80
1F00F800
1F00F800
1F00F800
1F00F800
1F00F800
1F00F800
1F00F800
1F00F800
1F00F800
1F00F800
1FFFF800
1F00F800
1F00F800
1F00F800
1F00F800
1F00F800
1F00F800
1F00F800
1F00F800
1F00F800
1F00F800
1F00F800
1F00F800
FFE7FF80
ENDCHAR
STARTCHAR 041E
ENCODING 1054
SWIDTH 705 0
DWIDTH 24 0
BBX 20 25 2 1
BITMAP
03FC00
060600
0E0700
1C0380
3C03C0
3C03C0
7C03E0
7C03E0
7C03E0
FC03F0
FC03F0
FC03F0
FC03F0
FC03F0
FC03F0
FC03F0
7C03E0
7C03E0
7C03E0
3C03C0
3C03C0
1C0380
0E0700
060600
03FC00
ENDCHAR
STARTCHAR 041F
ENCODING 1055
SWIDTH 794 0
DWIDTH 27 0
BBX 24 25 2 0
BITMAP
FFFFFF
1F00F8
1F00F8
1F00F8
1F00F8
1F00F8
1F00F8
1F00F8
1F00F8
1F00F8
1F00F8
1F00F8
1F00F8
1F00F8
1F00F8
1F00F8
1F00F8
1F00F8
1F00F8
1F00F8
1F00F8
1F00F8
1F00F8
1F00F8
FFE7FF
ENDCHAR
STARTCHAR 0420
ENCODING 1056
SWIDTH 705 0
DWIDTH 24 0
BBX 20 25 2 0
BITMAP
FFFE00
1F0380
1F03C0
1F01E0
1F01F0
1F01F0
1F01F0
1F01F0
1F01F0
1F01E0
1F03C0
1F0780
1FFE00
1F0000
1F0000
1F0000
1F0000
1F0000
1F0000
1F0000
1F0000
1F0000
1F0000
1F0000
FFF000
ENDCHAR
STARTCHAR 0421
ENCODING 1057
SWIDTH 676 0
DWIDTH 23 0
BBX 19 25 2 1
BITMAP
03F840
0E06C0
1E03C0
3C03C0
3C01C0
7C01C0
7C00C0
7C00C0
FC00C0
FC0040
FC0040
FC0000
FC0000
FC0000
FC0000
FC0000
FC0060
7C0040
7C0040
7C0040
3C00C0
1E0080
1E0100
0F0300
03FC00
ENDCHAR
STARTCHAR 0422
ENCODING 1058
SWIDTH 735 0
DWIDTH 25 0
BBX 21 25 3 0
BITMAP
FFFFF8
F8F8F8
F0F878
E0F878
C0F838
C0F838
80F818
80F818
80F818
80F818
00F800
00F800
00F800
00F800
00F800
00F800
00F800
00F800
00F800
00F800
00F800
00F800
00F800
00F800
0FFF00
ENDCHAR
STARTCHAR 0423
ENCODING 1059
SWIDTH 794 0
DWIDTH 27 0
BBX 24 25 2 0
BITMAP
FFF9FF
1FC038
0FC030
07C030
07E020
03E020
03F060
01F040
01F840
00F8C0
00FC80
007C80
007F00
007F00
003F00
003E00
001E00
001C00
0F0C00
1F8C00
1F8800
1F8800
1F1000
0E3000
07E000
ENDCHAR
STARTCHAR 0424
ENCODING 1060
SWIDTH 852 0
DWIDTH 29 0
BBX 26 25 2 0
BITMAP
00FFE000
001F0000
001F0000
001F0000
001F0000
03FFF000
0E1F1E00
3C1F0F00
7C1F0F80
781F0780
F81F07C0
F81F07C0
F81F07C0
F81F07C0
F81F07C0
781F0780
7C1F0F80
3C1F0F00
0E1F1E00
03FFF800
001F0000
001F0000
001F0000
001F0000
00FFE000
ENDCHAR
STARTCHAR 0425
ENCODING 1061
SWIDTH 764 0
DWIDTH 26 0
BBX 23 25 2 0
BITMAP
FFE7FC
1FC1E0
0FC0C0
0FC180
07E180
07E300
03F200
03F600
01F400
01F800
00F800
00FC00
007C00
003E00
007E00
007F00
009F00
019F80
010F80
030FC0
0607E0
0407E0
0C03F0
1C07F0
FF8FFE
ENDCHAR
STARTCHAR 0426
ENCODING 1062
SWIDTH 823 0
DWIDTH 28 0
BBX 25 32 2 -7
BITMAP
FFE7FF00
1F00F800
1F00F800
1F00F800
1F00F800
1F00F800
1F00F800
1F00F800
1F00F800
1F00F800
1F00F800
1F00F800
1F00F800
1F00F800
1F00F800
1F00F800
1F00F800
1F00F800
1F00F800
1F00F800
1F00F800
1F00F800
1F00F800
1F00F800
FFFFFF80
00000F80
00000780
00000380
00000180
00000180
00000180
00000080
ENDCHAR
STARTCHAR 0427
ENCODING 1063
SWIDTH 764 0
DWIDTH 26 0
BBX 23 25 2 0
BITMAP
FFEFFE
1F01F0
1F01F0
1F01F0
1F01F0
1F01F0
1F01F0
1F01F0
1F01F0
1F01F0
1F01F0
0F01F0
0781F0
03FFF0
0001F0
0001F0
0001F0
0001F0
0001F0
0001F0
0001F0
0001F0
0001F0
0001F0
000FFE
ENDCHAR
STARTCHAR 0428
ENCODING 1064
SWIDTH 1117 0
DWIDTH 38 0
BBX 35 25 2 0
BITMAP
FFEFFCFFE0
1F01F01F00
1F01F01F00
1F01F01F00
1F01F01F00
1F01F01F00
1F01F01F00
1F01F01F00
1F01F01F00
1F01F01F00
1F01F01F00
1F01F01F00
1F01F01F00
1F01F01F00
1F01F01F00
1F01F01F00
1F01F01F00
1F01F01F00
1F01F01F00
1F01F01F00
1F01F01F00
1F01F01F00
1F01F01F00
1F01F01F00
FFFFFFFFE0
ENDCHAR
STARTCHAR 0429
ENCODING 1065
SWIDTH 1147 0
DWIDTH 39 0
BBX 36 32 2 -7
BITMAP
FFEFFCFFE0
1F01F01F00
1F01F01F00
1F01F01F00
1F01F01F00
1F01F01F00
1F01F01F00
1F01F01F00
1F01F01F00
1F01F01F00
1F01F01F00
1F01F01F00
1F01F01F00
1F01F01F00
1F01F01F00
1F01F01F00
1F01F01F00
1F01F01F00
1F01F01F00
1F01F01F00
1F01F01F00
1F01F01F00
1F01F01F00
1F01F01F00
FFFFFFFFF0
00000001F0
00000000F0
0000000070
0000000030
0000000030
0000000030
0000000010
ENDCHAR
STARTCHAR 042A
ENCODING 1066
SWIDTH 882 0
DWIDTH 30 0
BBX 27 25 2 0
BITMAP
FFFFE000
FC3E0000
F03E0000
F03E0000
E03E0000
E03E0000
C03E0000
C03E0000
803E0000
803E0000
803E0000
003FFC00
003E0F00
003E0780
003E07C0
003E03E0
003E03E0
003E03E0
003E03E0
003E03E0
003E03E0
003E03C0
003E0780
003E0F00
01FFFC00
ENDCHAR
STARTCHAR 042B
ENCODING 1067
SWIDTH 970 0
DWIDTH 33 0
BBX 30 25 2 0
BITMAP
FFF01FFC
1F0003E0
1F0003E0
1F0003E0
1F0003E0
1F0003E0
1F0003E0
1F0003E0
1F0003E0
1F0003E0
1F0003E0
1FFE03E0
1F0783E0
1F03C3E0
1F03E3E0
1F01E3E0
1F01F3E0
1F01F3E0
1F01F3E0
1F01F3E0
1F01F3E0
1F03E3E0
1F03C3E0
1F0783E0
FFFE1FFC
ENDCHAR
STARTCHAR 042C
ENCODING 1068
SWIDTH 676 0
DWIDTH 23 0
BBX 20 25 2 0
BITMAP
FFF000
1F0000
1F0000
1F0000
1F0000
1F0000
1F0000
1F0000
1F0000
1F0000
1F0000
1FFE00
1F0780
1F03C0
1F03E0
1F01F0
1F01F0
1F01F0
1F01F0
1F01F0
1F01F0
1F01E0
1F03C0
1F0780
FFFE00
ENDCHAR
STARTCHAR 042D
ENCODING 1069
SWIDTH 705 0
DWIDTH 24 0
BBX 19 26 3 0
BITMAP
004000
47FC00
6C0E00
780F00
700780
700780
6007C0
6007C0
6007C0
4007E0
4007E0
0007E0
07FFE0
0007E0
0007E0
0007E0
3C07E0
7E07E0
FE07C0
FE07C0
FC0780
F80780
700F00
700E00
301C00
0FF800
ENDCHAR
STARTCHAR 042E
ENCODING 1070
SWIDTH 1029 0
DWIDTH 35 0
BBX 31 25 2 1
BITMAP
FFE07F80
1F01C0C0
1F03C0E0
1F038070
1F078078
1F0F8078
1F0F807C
1F0F807C
1F1F807E
1F1F807E
1F1F807E
1F1F807E
1FFF807E
1F1F807E
1F1F807E
1F1F807E
1F1F807E
1F0F807C
1F0F807C
1F0F807C
1F078078
1F078070
1F03C0F0
1F01C0C0
FFE07F80
ENDCHAR
STARTCHAR 042F
ENCODING 1071
SWIDTH 705 0
DWIDTH 24 0
BBX 22 25 1 0
BITMAP
00FFFC
0783E0
0F83E0
0F03E0
1F03E0
1F03E0
1F03E0
1F03E0
0F03E0
0F83E0
03C3E0
007FE0
01C3E0
03C3E0
0783E0
0F83E0
0F83E0
0F83E0
8F83E0
8F83E0
8F83E0
8F83E0
8F83E0
4F03E0
7E3FFC
ENDCHAR
STARTCHAR 0430
ENCODING 1072
SWIDTH 529 0
DWIDTH 18 0
BBX 15 17 2 0
BITMAP
0F80
31E0
60F0
70F0
78F0
78F0
20F0
07F0
1CF0
38F0
78F0
F0F0
F0F2
F0F2
F0F2
79FC
3E78
ENDCHAR
STARTCHAR 0431
ENCODING 1073
SWIDTH 529 0
DWIDTH 18 0
BBX 14 25 2 0
BITMAP
0008
0018
01F8
0FF8
1FF0
3F80
7800
6000
C780
9CE0
B870
F878
F878
F83C
F03C
F03C
F03C
F03C
F03C
F83C
7878
7878
3870
1CE0
0780
ENDCHAR
STARTCHAR 0432
ENCODING 1074
SWIDTH 500 0
DWIDTH 17 0
BBX 14 17 1 0
BITMAP
FFE0
3CF0
3C78
3C78
3C78
3C78
3C78
3CE0
3F80
3C78
3C3C
3C3C
3C3C
3C3C
3C3C
3C78
FFF0
ENDCHAR
STARTCHAR 0433
ENCODING 1075
SWIDTH 441 0
DWIDTH 15 0
BBX 13 17 1 0
BITMAP
FFF8
3C78
3C38
3C18
3C18
3C18
3C08
3C00
3C00
3C00
3C00
3C00
3C00
3C00
3C00
3C00
FF00
ENDCHAR
STARTCHAR 0434
ENCODING 1076
SWIDTH 529 0
DWIDTH 18 0
BBX 16 22 1 -5
BITMAP
1FFE
0678
0478
0478
0478
0478
0478
0478
0478
0878
0878
0878
0878
1878
1078
107C
FFFF
E007
C003
C003
8001
8001
ENDCHAR
STARTCHAR 0435
ENCODING 1077
SWIDTH 500 0
DWIDTH 17 0
BBX 13 17 2 0
BITMAP
0780
18E0
38F0
78F0
78F0
F078
F078
F078
FFF8
F000
F000
F008
7808
7818
3810
1C20
07C0
ENDCHAR
STARTCHAR 0436
ENCODING 1078
SWIDTH 735 0
DWIDTH 25 0
BBX 23 17 1 0
BITMAP
38FE38
7C78FC
7A78BC
7A78BC
327898
027880
027880
027880
03FF80
0E78E0
1E78F0
1E78F0
9E78F2
9E78F2
9E78F2
5E78F4
78FE3C
ENDCHAR
STARTCHAR 0437
ENCODING 1079
SWIDTH 441 0
DWIDTH 15 0
BBX 12 17 2 0
BITMAP
8F80
F3C0
E1E0
C1E0
C1E0
81E0
01C0
3F00
01C0
01E0
70F0
F0F0
F0F0
E1F0
E1E0
61C0
1F00
ENDCHAR
STARTCHAR 0438
ENCODING 1080
SWIDTH 588 0
DWIDTH 20 0
BBX 17 17 1 0
BITMAP
FF3F80
3C1E00
3C1E00
3C3E00
3C3E00
3C5E00
3C5E00
3C5E00
3C9E00
3C9E00
3D1E00
3D1E00
3E1E00
3E1E00
3E1E00
3C1E00
FF3F80
ENDCHAR
STARTCHAR 0439
ENCODING 1081
SWIDTH 588 0
DWIDTH 20 0
BBX 17 24 1 1
BITMAP
0E3800
0E3800
0C1800
041000
03E000
000000
000000
FF7F80
3C1E00
3C1E00
3C3E00
3C3E00
3C5E00
3C5E00
3C9E00
3C9E00
3C9E00
3D1E00
3D1E00
3E1E00
3E1E00
3C1E00
3C1E00
FF7F80
ENDCHAR
STARTCHAR 043A
ENCODING 1082
SWIDTH 529 0
DWIDTH 18 0
BBX 16 17 1 0
BITMAP
FF1C
3C6E
3C5E
3C5E
3C4C
3C40
3C40
3C40
3FC0
3C70
3C78
3C78
3C79
3C79
3C79
3C7A
FF1E
ENDCHAR
STARTCHAR 043B
ENCODING 1083
SWIDTH 558 0
DWIDTH 19 0
BBX 16 17 1 0
BITMAP
0FFF
023C
023C
023C
023C
023C
023C
023C
023C
023C
023C
723C
F23C
F23C
F43C
E43C
78FF
ENDCHAR
STARTCHAR 043C
ENCODING 1084
SWIDTH 647 0
DWIDTH 22 0
BBX 19 17 1 0
BITMAP
FC07E0
3C0F80
3C0F80
3E0F80
3E1780
3E1780
2F1780
2F1780
27A780
27A780
27A780
23C780
23C780
21C780
21C780
718780
F89FE0
ENDCHAR
STARTCHAR 043D
ENCODING 1085
SWIDTH 558 0
DWIDTH 19 0
BBX 17 17 1 0
BITMAP
FF7F80
3C1E00
3C1E00
3C1E00
3C1E00
3C1E00
3C1E00
3C1E00
3FFE00
3C1E00
3C1E00
3C1E00
3C1E00
3C1E00
3C1E00
3C1E00
FF7F80
ENDCHAR
STARTCHAR 043E
ENCODING 1086
SWIDTH 529 0
DWIDTH 18 0
BBX 14 17 2 0
BITMAP
0780
1CE0
3870
7878
7878
F03C
F03C
F03C
F03C
F03C
F03C
F03C
7878
7878
3870
18E0
0780
ENDCHAR
STARTCHAR 043F
ENCODING 1087
SWIDTH 558 0
DWIDTH 19 0
BBX 17 17 1 0
BITMAP
FFFF80
3C1E00
3C1E00
3C1E00
3C1E00
3C1E00
3C1E00
3C1E00
3C1E00
3C1E00
3C1E00
3C1E00
3C1E00
3C1E00
3C1E00
3C1E00
FF7F80
ENDCHAR
STARTCHAR 0440
ENCODING 1088
SWIDTH 529 0
DWIDTH 18 0
BBX 15 25 1 -8
BITMAP
FCF0
3D38
3E3C
3E1C
3E1E
3E1E
3C1E
3C1E
3C1E
3C1E
3C1E
3E1E
3E1E
3E1C
3E3C
3D38
3CF0
3C00
3C00
3C00
3C00
3C00
3C00
3C00
FF80
ENDCHAR
STARTCHAR 0441
ENCODING 1089
SWIDTH 470 0
DWIDTH 16 0
BBX 13 17 2 0
BITMAP
0780
1C60
3820
7870
78F0
F8F0
F0E0
F040
F000
F000
F000
F008
7810
7810
3810
1C20
07C0
ENDCHAR
STARTCHAR 0442
ENCODING 1090
SWIDTH 470 0
DWIDTH 16 0
BBX 14 17 1 0
BITMAP
FFFC
E79C
C78C
C78C
C784
8784
8784
0780
0780
0780
0780
0780
0780
0780
0780
0780
1FF0
ENDCHAR
STARTCHAR 0443
ENCODING 1091
SWIDTH 529 0
DWIDTH 18 0
BBX 17 25 0 -8
BITMAP
FF9F80
3E0600
1E0400
1F0400
0F0800
0F0800
0F8800
078800
079000
03D000
03D000
03E000
01E000
01E000
00E000
00C000
004000
004000
008000
1C8000
3C8000
3C8000
390000
3B0000
1E0000
ENDCHAR
STARTCHAR 0444
ENCODING 1092
SWIDTH 735 0
DWIDTH 25 0
BBX 21 32 2 -8
BITMAP
010200
008C00
00C800
005800
007800
007800
007800
0E7BC0
397CE0
78FC70
70F870
70F878
F07878
F07878
F07878
F07878
F07878
F07878
F07878
70F878
70F870
78FC70
397CE0
0E7BC0
007800
007800
007800
007800
00D800
00C800
008400
010200
ENDCHAR
STARTCHAR 0445
ENCODING 1093
SWIDTH 529 0
DWIDTH 18 0
BBX 16 17 1 0
BITMAP
FF7E
3E18
1E10
1F10
0F20
0FC0
07C0
03C0
03C0
01E0
03F0
02F0
04F8
0878
087C
187E
FE7F
ENDCHAR
STARTCHAR 0446
ENCODING 1094
SWIDTH 588 0
DWIDTH 20 0
BBX 18 22 1 -5
BITMAP
FF7F80
3C1E00
3C1E00
3C1E00
3C1E00
3C1E00
3C1E00
3C1E00
3C1E00
3C1E00
3C1E00
3C1E00
3C1E00
3C1E00
3C1E00
3C1E00
FFFFC0
0001C0
0000C0
0000C0
000040
000040
ENDCHAR
STARTCHAR 0447
ENCODING 1095
SWIDTH 558 0
DWIDTH 19 0
BBX 16 17 1 0
BITMAP
FF7F
3C3C
3C3C
3C3C
3C3C
3C3C
3C3C
3C3C
3C3C
1E3C
0FFC
003C
003C
003C
003C
003C
00FF
ENDCHAR
STARTCHAR 0448
ENCODING 1096
SWIDTH 794 0
DWIDTH 27 0
BBX 24 17 1 0
BITMAP
FF7F7F
3C3C3C
3C3C3C
3C3C3C
3C3C3C
3C3C3C
3C3C3C
3C3C3C
3C3C3C
3C3C3C
3C3C3C
3C3C3C
3C3C3C
3C3C3C
3C3C3C
3C3C3C
FFFFFF
ENDCHAR
STARTCHAR 0449
ENCODING 1097
SWIDTH 823 0
DWIDTH 28 0
BBX 26 22 1 -5
BITMAP
FF7F7F80
3C3C1E00
3C3C1E00
3C3C1E00
3C3C1E00
3C3C1E00
3C3C1E00
3C3C1E00
3C3C1E00
3C3C1E00
3C3C1E00
3C3C1E00
3C3C1E00
3C3C1E00
3C3C1E00
3C3C1E00
FFFFFFC0
000001C0
000000C0
000000C0
00000040
00000040
ENDCHAR
STARTCHAR 044A
ENCODING 1098
SWIDTH 617 0
DWIDTH 21 0
BBX 17 17 2 0
BITMAP
FFE000
C78000
C78000
878000
878000
878000
078000
078000
07FE00
078F00
078780
078780
078780
078780
078780
078F00
1FFE00
ENDCHAR
STARTCHAR 044B
ENCODING 1099
SWIDTH 676 0
DWIDTH 23 0
BBX 21 17 1 0
BITMAP
FF07F8
3C01E0
3C01E0
3C01E0
3C01E0
3C01E0
3C01E0
3C01E0
3FE1E0
3C79E0
3C7DE0
3C3DE0
3C3DE0
3C3DE0
3C7DE0
3C79E0
FFE7F8
ENDCHAR
STARTCHAR 044C
ENCODING 1100
SWIDTH 500 0
DWIDTH 17 0
BBX 14 17 1 0
BITMAP
FF00
3C00
3C00
3C00
3C00
3C00
3C00
3C00
3FF0
3C78
3C3C
3C3C
3C3C
3C3C
3C3C
3C78
FFF0
ENDCHAR
STARTCHAR 044D
ENCODING 1101
SWIDTH 470 0
DWIDTH 16 0
BBX 12 17 2 0
BITMAP
8F00
F1C0
E1E0
C1E0
C0E0
80F0
00F0
1FF0
00F0
00F0
70F0
F0F0
F0E0
E1E0
E1C0
6380
1F00
ENDCHAR
STARTCHAR 044E
ENCODING 1102
SWIDTH 705 0
DWIDTH 24 0
BBX 21 17 1 0
BITMAP
FF0F80
3C18C0
3C38E0
3C7870
3C7878
3CF078
3CF078
3CF078
3FF078
3CF078
3CF078
3CF078
3C7878
3C7870
3C38E0
3C18C0
FF0F80
ENDCHAR
STARTCHAR 044F
ENCODING 1103
SWIDTH 558 0
DWIDTH 19 0
BBX 16 17 1 0
BITMAP
07FF
1E3C
3E3C
3C3C
3C3C
3C3C
1E3C
0E3C
03FC
073C
1E3C
1E3C
1E3C
9E3C
9E3C
9E3C
7CFF
ENDCHAR
STARTCHAR 0450
ENCODING 1104
SWIDTH 500 0
DWIDTH 17 0
BBX 13 25 2 0
BITMAP
3000
3800
3C00
1C00
0600
0300
0000
0000
0780
18E0
38F0
78F0
78F0
F078
F078
F078
FFF8
F000
F000
F008
7808
7818
3810
1C20
07C0
ENDCHAR
STARTCHAR 0451
ENCODING 1105
SWIDTH 500 0
DWIDTH 17 0
BBX 13 24 2 0
BITMAP
38E0
78F0
78F0
38E0
0000
0000
0000
0780
18E0
38F0
78F0
78F0
F078
F078
F078
FFF8
F000
F000
F008
7808
7818
3810
1C20
07C0
ENDCHAR
STARTCHAR 0452
ENCODING 1106
SWIDTH 529 0
DWIDTH 18 0
BBX 15 32 1 -8
BITMAP
4300
6600
2600
3C00
3C00
3C00
3C00
FFE0
3C00
3C00
3C00
3C00
3DF0
3E38
3C3C
3C3E
3C1E
3C1E
3C1E
3C1E
3C1E
3C3E
3C3C
FF3C
0038
0038
0070
0070
00E0
00C0
0180
0300
ENDCHAR
STARTCHAR 0453
ENCODING 1107
SWIDTH 441 0
DWIDTH 15 0
BBX 13 25 1 0
BITMAP
0060
00E0
01E0
01C0
0300
0200
0000
0000
FFF8
3C78
3C38
3C38
3C18
3C18
3C18
3C00
3C00
3C00
3C00
3C00
3C00
3C00
3C00
3C00
FF00
ENDCHAR
STARTCHAR 0454
ENCODING 1108
SWIDTH 470 0
DWIDTH 16 0
BBX 12 17 2 0
BITMAP
0F90
3870
7870
7830
F010
F010
F000
FF80
F000
F000
F060
F0F0
70F0
7870
3830
1C60
07C0
ENDCHAR
STARTCHAR 0455
ENCODING 1109
SWIDTH 411 0
DWIDTH 14 0
BBX 11 17 2 0
BITMAP
3C40
6340
C1C0
C0C0
E0C0
F040
FC00
7F00
3F80
1FC0
87E0
81E0
C0E0
E060
E060
90C0
8F80
ENDCHAR
STARTCHAR 0456
ENCODING 1110
SWIDTH 323 0
DWIDTH 11 0
BBX 8 25 2 1
BITMAP
7C
7C
7C
7C
00
00
00
00
FC
3C
3C
3C
3C
3C
3C
3C
3C
3C
3C
3C
3C
3C
3C
3C
FF
ENDCHAR
STARTCHAR 0457
ENCODING 1111
SWIDTH 323 0
DWIDTH 11 0
BBX 10 24 1 0
BITMAP
7380
F3C0
F3C0
7380
0000
0000
0000
7E00
1E00
1E00
1E00
1E00
1E00
1E00
1E00
1E00
1E00
1E00
1E00
1E00
1E00
1E00
1E00
7F80
ENDCHAR
STARTCHAR 0458
ENCODING 1112
SWIDTH 294 0
DWIDTH 10 0
BBX 10 34 -2 -8
BITMAP
0100
07C0
07C0
07C0
07C0
0100
0000
0000
0000
1FC0
03C0
03C0
03C0
03C0
03C0
03C0
03C0
03C0
03C0
03C0
03C0
03C0
03C0
03C0
03C0
03C0
03C0
63C0
F3C0
F3C0
F380
E780
6700
3E00
ENDCHAR
STARTCHAR 0459
ENCODING 1113
SWIDTH 735 0
DWIDTH 25 0
BBX 22 17 1 0
BITMAP
0FFF00
023C00
023C00
023C00
023C00
023C00
023C00
023FF0
023C78
023C3C
023C3C
723C3C
F23C3C
F23C3C
F43C3C
E43C78
78FFF0
ENDCHAR
STARTCHAR 045A
ENCODING 1114
SWIDTH 735 0
DWIDTH 25 0
BBX 23 17 1 0
BITMAP
FF7F80
3C1E00
3C1E00
3C1E00
3C1E00
3C1E00
3C1E00
3C1E00
3FFFF0
3C1E3C
3C1E3C
3C1E1E
3C1E1E
3C1E1E
3C1E3E
3C1E3C
FF7FF0
ENDCHAR
STARTCHAR 045B
ENCODING 1115
SWIDTH 529 0
DWIDTH 18 0
BBX 16 24 1 0
BITMAP
4300
6600
2600
3C00
3C00
3C00
3C00
FFE0
3C00
3C00
3C00
3C00
3DF0
3E3C
3C3C
3C3C
3C3C
3C3C
3C3C
3C3C
3C3C
3C3C
3C3C
FF7F
ENDCHAR
STARTCHAR 045C
ENCODING 1116
SWIDTH 529 0
DWIDTH 18 0
BBX 16 25 1 0
BITMAP
0030
0078
0070
00E0
00C0
0180
0100
0000
FF1C
3C6E
3C5E
3C5E
3C4C
3C40
3C40
3C40
3FC0
3C70
3C78
3C78
3C79
3C79
3C79
3C7A
FF1E
ENDCHAR
STARTCHAR 045D
ENCODING 1117
SWIDTH 588 0
DWIDTH 20 0
BBX 17 25 1 0
BITMAP
0E0000
0E0000
070000
038000
018000
00C000
000000
000000
FF3F80
3C1E00
3C1E00
3C3E00
3C3E00
3C5E00
3C5E00
3C5E00
3C9E00
3C9E00
3D1E00
3D1E00
3E1E00
3E1E00
3E1E00
3C1E00
FF3F80
ENDCHAR
STARTCHAR 045E
ENCODING 1118
SWIDTH 529 0
DWIDTH 18 0
BBX 17 32 0 -7
BITMAP
0F1C00
0E1C00
0C0C00
040800
03F000
000000
000000
FF9F80
3E0600
1E0400
1E0400
0F0400
0F0800
0F8800
078800
078800
03D000
03D000
03F000
01E000
01E000
00E000
00C000
00C000
004000
00C000
1C8000
3C8000
3C8000
390000
3B0000
1E0000
ENDCHAR
STARTCHAR 045F
ENCODING 1119
SWIDTH 558 0
DWIDTH 19 0
BBX 17 23 1 -6
BITMAP
FE7F80
3C1E00
3C1E00
3C1E00
3C1E00
3C1E00
3C1E00
3C1E00
3C1E00
3C1E00
3C1E00
3C1E00
3C1E00
3C1E00
3C1E00
3C1E00
FFFF80
018000
018000
01C000
03C000
03C000
01C000
ENDCHAR
STARTCHAR 0460
ENCODING 1120
SWIDTH 1000 0
DWIDTH 34 0
BBX 29 25 3 0
BITMAP
F81F81F8
F80F81F8
F80F81F8
F80F81F8
F80F80F8
F80F80F8
F80F80F8
7C0F80F8
7C0FC0F8
7C07C070
7C07C070
7C07C070
7E07E070
3E07E060
3E07E060
3F07F0E0
1F09F0C0
1F89F0C0
0F90F880
0FD0F980
07D07D00
07E07F00
03E03E00
03C01C00
01801C00
ENDCHAR
STARTCHAR 0461
ENCODING 1121
SWIDTH 764 0
DWIDTH 26 0
BBX 22 17 2 0
BITMAP
F0787C
F0787C
F0787C
F8787C
F8783C
F8783C
787C38
783C38
7C3C38
3C3C30
3C5E30
3E5E20
1E8F60
1F8FC0
0F07C0
070380
020300
ENDCHAR
STARTCHAR 0462
ENCODING 1122
SWIDTH 823 0
DWIDTH 28 0
BBX 24 25 2 0
BITMAP
0FFF00
01F000
01F000
FFFFF0
F9F0F0
E1F070
E1F030
C1F030
C1F010
81F010
81F010
01F000
01FFE0
01F078
01F03C
01F01E
01F01F
01F01F
01F01F
01F01F
01F01F
01F01E
01F03E
01F038
0FFFE0
ENDCHAR
STARTCHAR 0463
ENCODING 1123
SWIDTH 617 0
DWIDTH 21 0
BBX 17 24 2 0
BITMAP
086000
0CC000
04C000
078000
078000
078000
078000
FFFE00
C78E00
C78600
878600
878600
878200
078200
078000
07FE00
078F00
078780
078780
078780
078780
078780
078F00
1FFE00
ENDCHAR
STARTCHAR 0464
ENCODING 1124
SWIDTH 1000 0
DWIDTH 34 0
BBX 30 25 2 1
BITMAP
FFE07F88
1F01E0F8
1F03E078
1F03C038
1F07C038
1F07C018
1F07C018
1F0FC018
1F0FC008
1F0FC008
1F0FC000
1FFFFF80
1F0FC000
1F0FC000
1F0FC000
1F0FC0F0
1F0FC1F8
1F07C1FC
1F07C1FC
1F03C0FC
1F03C07C
1F01E03C
1F00E038
1F007030
FFE03DE0
ENDCHAR
STARTCHAR 0465
ENCODING 1125
SWIDTH 676 0
DWIDTH 23 0
BBX 20 17 1 0
BITMAP
FF0FB0
3C38F0
3C7870
3C7830
3CF030
3CF010
3CF000
3FFF80
3CF000
3CF000
3CF0E0
3CF0F0
3C70F0
3C7870
3C3870
3C1C60
FF0F80
ENDCHAR
STARTCHAR 0466
ENCODING 1126
SWIDTH 882 0
DWIDTH 30 0
BBX 28 25 1 0
BITMAP
00030000
00070000
00078000
000F8000
000F8000
001FC000
0017C000
0037E000
0023E000
0063F000
0041F000
0041F800
00C0F800
0080F800
01807C00
01007C00
03FFFE00
023E3E00
063E3F00
043E1F00
0C3E1F80
0C3E0F80
1C3E0FC0
3C3E0FC0
FFFFBFF0
ENDCHAR
STARTCHAR 0467
ENCODING 1127
SWIDTH 617 0
DWIDTH 21 0
BBX 20 17 1 0
BITMAP
006000
00E000
00F000
00F000
01F800
01F800
027C00
027C00
043C00
043E00
081E00
0C3F00
166F00
13CF80
318780
7187C0
F98FF0
ENDCHAR
STARTCHAR 0468
ENCODING 1128
SWIDTH 1294 0
DWIDTH 44 0
BBX 41 25 2 0
BITMAP
FFE000180000
1F0000380000
1F00003C0000
1F00007C0000
1F00007C0000
1F0000FE0000
1F0000BE0000
1F0001BF0000
1F00031F0000
1F00021F8000
1F00060F8000
1F00040FC000
1F000C07C000
1F000807C000
1F001803E000
1F001003E000
1FFFFFFFF000
1F0021F1F000
1F0061F1F800
1F0041F0F800
1F00C1F0FC00
1F00C1F07C00
1F01C1F07E00
1F03C1F07E00
FFEFF7FDFF80
ENDCHAR
STARTCHAR 0469
ENCODING 1129
SWIDTH 882 0
DWIDTH 30 0
BBX 29 17 1 0
BITMAP
FF003000
3C007000
3C007800
3C00F800
3C00FC00
3C00FC00
3C013E00
3C013E00
3C021E00
3C021F00
3C040F00
3FFE1F80
3C092780
3C09E7C0
3C10C3C0
3C38C3E0
FF7CC7F8
ENDCHAR
STARTCHAR 046A
ENCODING 1130
SWIDTH 970 0
DWIDTH 33 0
BBX 31 25 1 0
BITMAP
0FFFFFE0
01F00100
01F80100
00FC0200
00FC0400
007E0400
003E0800
003F1800
001F9000
001FA000
000FE000
00FFFF00
03C7C3C0
0787C1E0
0787C1E0
0F87C1F0
0F87C1F0
0F87C1F0
0F87C1F0
8F87C1F2
8F87C1F2
8F87C1F2
8F87C1F2
4F07C0F4
7E3FF8FC
ENDCHAR
STARTCHAR 046B
ENCODING 1131
SWIDTH 735 0
DWIDTH 25 0
BBX 23 17 1 0
BITMAP
1FFFF0
0F8060
07C0C0
03C080
03E100
01F300
00FE00
00FC00
07FFC0
0E78E0
1E78F0
1E78F0
9E78F2
9E78F2
9E78F2
9E78F4
78FE3C
ENDCHAR
STARTCHAR 046C
ENCODING 1132
SWIDTH 1352 0
DWIDTH 46 0
BBX 43 25 2 0
BITMAP
FFE0FFFFFF00
1F001F001800
1F001F801000
1F000FC03000
1F000FC06000
1F0007E04000
1F0003E0C000
1F0003F18000
1F0001F90000
1F0001FA0000
1F0000FE0000
1FFFFFFFF000
1F003C7C3C00
1F00787C1E00
1F00F87C1E00
1F00F87C1F00
1F00F87C1F00
1F00F87C1F00
1F00F87C1F00
1F08F87C1F20
1F08F87C1F20
1F08F87C1F20
1F08F87C1F20
1F04F07C0F40
FFE7E3FF8FC0
ENDCHAR
STARTCHAR 046D
ENCODING 1133
SWIDTH 970 0
DWIDTH 33 0
BBX 31 17 1 0
BITMAP
FF1FFFF0
3C0F8060
3C07C040
3C03E080
3C01F180
3C01F100
3C00FA00
3C007E00
3FFFFFC0
3C0E3CE0
3C1E3CF0
3C1E3CF0
3C9E3CF2
3C9E3CF2
3C9E3CF2
3C9E3CF4
FF78FE3C
ENDCHAR
STARTCHAR 046E
ENCODING 1134
SWIDTH 588 0
DWIDTH 20 0
BBX 17 40 2 -8
BITMAP
0C1800
0E3C00
0E5C00
074800
078000
078000
0FE000
387800
703E00
F01E00
F01F00
F81F00
F81F00
781F00
301E00
003E00
003C00
01E000
1FF000
1C3C00
181E00
180F00
100F80
100F80
000F80
000F80
001F80
003F00
01FF00
0FFE00
3FF800
7FE000
7F0000
F00000
E01800
C03C00
C03C00
407800
20F000
1FC000
ENDCHAR
STARTCHAR 046F
ENCODING 1135
SWIDTH 441 0
DWIDTH 15 0
BBX 13 28 1 -6
BITMAP
0040
18E0
0D60
0D00
0600
1FC0
71F0
C0F8
E078
F078
F078
00F0
01E0
3F00
38E0
3078
2078
2078
00F8
01F0
0FE0
3F80
7C00
C000
81C0
81C0
4380
3E00
ENDCHAR
STARTCHAR 0470
ENCODING 1136
SWIDTH 1000 0
DWIDTH 34 0
BBX 32 25 1 0
BITMAP
001FFC00
0003E000
0003E01C
FFC3E07E
3F03E05F
1F03E09F
1F83E0BF
0F83E1BF
0FC3E13E
07C3E11C
07C3E200
03E3E200
03E3E600
01F3E400
01F3E400
01F3E800
00FBE800
00FBF000
007FF000
0003E000
0003E000
0003E000
0003E000
0003E000
001FFC00
ENDCHAR
STARTCHAR 0471
ENCODING 1137
SWIDTH 794 0
DWIDTH 27 0
BBX 26 30 0 -8
BITMAP
007F8000
001E0000
001E0000
001E0000
001E0000
FF1E0780
3E1E09C0
1E1E0BC0
1E1E13C0
1E1E1380
0F1E1000
0F1E2000
0F1E2000
071E2000
079E2000
079E4000
039E4000
03DE4000
03DE8000
01DE8000
01DE8000
01FF0000
001E0000
001E0000
001E0000
001E0000
001E0000
001E0000
001E0000
007F8000
ENDCHAR
STARTCHAR 0472
ENCODING 1138
SWIDTH 705 0
DWIDTH 24 0
BBX 20 25 2 1
BITMAP
03FC00
060600
0E0700
1C0380
3C03C0
3C03C0
7C03E0
7C03E0
7C03E0
FC03F0
FC03F0
FC03F0
FFFFF0
FC03F0
FC03F0
FC03F0
7C03E0
7C03E0
7C03E0
3C03C0
3C03C0
1C0380
0E0700
060600
03FC00
ENDCHAR
STARTCHAR 0473
ENCODING 1139
SWIDTH 529 0
DWIDTH 18 0
BBX 14 17 2 0
BITMAP
0780
1CE0
3870
7878
7878
F03C
F03C
F03C
FFFC
F03C
F03C
F03C
7878
7878
3870
18E0
0780
ENDCHAR
STARTCHAR 0474
ENCODING 1140
SWIDTH 852 0
DWIDTH 29 0
BBX 27 25 2 1
BITMAP
FFF007C0
1F800DE0
0F8019E0
0FC017E0
0FC017E0
07C037C0
07E02380
03E02000
03E06000
03F06000
01F04000
01F84000
00F8C000
00F88000
00FC8000
007D8000
007D8000
007F0000
003F0000
003F0000
001E0000
001E0000
001E0000
000C0000
000C0000
ENDCHAR
STARTCHAR 0475
ENCODING 1141
SWIDTH 588 0
DWIDTH 20 0
BBX 18 17 1 0
BITMAP
FF0380
3E05C0
3E0BC0
1E0BC0
1E0980
0F1000
0F1000
0F1000
07A000
07A000
07E000
03E000
03C000
01C000
01C000
018000
008000
ENDCHAR
STARTCHAR 0476
ENCODING 1142
SWIDTH 852 0
DWIDTH 29 0
BBX 27 34 2 0
BITMAP
00C60000
00E70000
00F70000
00738000
00398000
0018C000
000C4000
00000000
00000000
FFF007C0
1F800DE0
0F8019E0
0FC017E0
0FC017E0
07C037C0
07E02380
03E02000
03E06000
03F04000
01F04000
01F8C000
00F8C000
00F88000
00FC8000
007D8000
007F0000
003F0000
003F0000
003F0000
001E0000
001E0000
000E0000
000C0000
000C0000
ENDCHAR
STARTCHAR 0477
ENCODING 1143
SWIDTH 588 0
DWIDTH 20 0
BBX 18 25 1 0
BITMAP
318000
39C000
3DC000
0CE000
067000
033000
000000
000000
FF0380
3C05C0
3E0BC0
1E0BC0
1E0980
1F1000
0F1000
0F1000
07A000
07A000
07E000
03E000
03C000
01C000
01C000
018000
008000
ENDCHAR
STARTCHAR 0478
ENCODING 1144
SWIDTH 1235 0
DWIDTH 42 0
BBX 39 33 2 -7
BITMAP
03FC000000
0606000000
0E07000000
1C03800000
3C03C00000
3C03C00000
7C03E00000
7C03E00000
7C03E7FC1C
FC03F1F02E
FC03F0F05E
FC03F0F05E
FC03F0F85E
FC03F07880
FC03F07880
FC03F07C80
7C03E03C80
7C03E03D00
7C03E01F00
3C03C01F00
3C03C01F00
1C03800E00
0E07000E00
0606000E00
039C000600
0060000400
0000000400
0000000C00
0000000C00
0000000E00
0000000F00
0000000F00
0000000600
ENDCHAR
STARTCHAR 0479
ENCODING 1145
SWIDTH 1000 0
DWIDTH 34 0
BBX 31 25 2 -8
BITMAP
0F87FC1C
18C1F06E
38E0F05E
7870F05E
7878F89C
F0787880
F0787880
F0783C80
F0783C80
F0783F00
F0781F00
F0781F00
78781F00
78700E00
38E00E00
18E00600
0F800600
00000400
00000400
00000400
00000C00
00000F00
00000F00
00000700
00000200
ENDCHAR
STARTCHAR 047A
ENCODING 1146
SWIDTH 882 0
DWIDTH 30 0
BBX 26 30 2 -3
BITMAP
001E0000
001E0000
003F0000
01DEE000
031E3000
0E003800
1E001C00
1C000E00
3C000F00
7C000F80
7C000F80
7C000F80
FC000FC0
FC000FC0
FC000FC0
FC000FC0
FC000FC0
FC000FC0
7C000F80
7C000F80
7C000F80
3C000F00
1C000E00
1E001E00
0E003C00
031E3000
01DEE000
003F0000
001E0000
001E0000
ENDCHAR
STARTCHAR 047B
ENCODING 1147
SWIDTH 617 0
DWIDTH 21 0
BBX 17 21 2 -2
BITMAP
01C000
01C000
07F000
1DDC00
380E00
780F00
780F00
F00780
F00780
F00780
F00780
F00780
F00780
F00780
700F00
780F00
380E00
1DDC00
07F000
01C000
01C000
ENDCHAR
STARTCHAR 047C
ENCODING 1148
SWIDTH 1176 0
DWIDTH 40 0
BBX 36 33 2 0
BITMAP
0003F00000
000C0E0000
0019E7C000
0033F1F800
0003307000
0002100000
0002100000
0000100000
01FE07F800
070F0E0E00
0E0F9E0700
1E1F9F8780
3C1F9F83C0
3C1F9F83C0
7C1F0F83E0
7C000003E0
FC000003E0
FC000003F0
FC000003F0
FC000003F0
FC000003F0
FC07FE03F0
FC01F003F0
FC01F003F0
7C01F003E0
7C01F003E0
7C01F003E0
3C01F003C0
3C01F003C0
1E01F00780
0E01F00700
0703980E00
01EF0FF800
ENDCHAR
STARTCHAR 047D
ENCODING 1149
SWIDTH 852 0
DWIDTH 29 0
BBX 25 23 2 0
BITMAP
003C0000
00C38000
0119F000
003C6000
00240000
00240000
07C1F000
1CE39C00
38E38E00
79E3CF00
79E3CF00
F0000F80
F0000780
F0000780
F07F0780
F03C0780
F03C0780
F03C0F80
783C0F00
783C0F00
38340E00
1C761C00
07C1F000
ENDCHAR
STARTCHAR 047E
ENCODING 1150
SWIDTH 970 0
DWIDTH 33 0
BBX 28 32 3 0
BITMAP
1FFFFF80
1C0F8380
180F8180
100F8080
100F8080
007FE000
00000000
F80F83F0
F80F83F0
F80F81F0
F80F81F0
F80F81F0
F80F81F0
FC0F80F0
7C0780F0
7C07C0F0
7C07C0F0
7C07C0F0
7E07C0E0
7E03E0E0
3E03E0E0
3E07E0C0
3F05E0C0
1F05F0C0
1F89F180
0F88F980
0FD0F900
07F07D00
07E07E00
03E03E00
03C03C00
01C01800
ENDCHAR
STARTCHAR 047F
ENCODING 1151
SWIDTH 764 0
DWIDTH 26 0
BBX 22 23 2 0
BITMAP
7FFFF0
60F030
40F010
40F010
43FC00
000000
F0F0FC
F0F07C
F0F07C
F0F07C
F8F03C
F8F83C
787838
787838
787838
7C7C30
3CBC30
3CBE20
1E9F60
1F0F40
0F0F80
0E0700
040300
ENDCHAR
STARTCHAR 0480
ENCODING 1152
SWIDTH 705 0
DWIDTH 24 0
BBX 21 25 2 0
BITMAP
FFE000
1F0000
1F0000
1F0000
1F0000
1F0000
1F0000
1F0000
1F0000
1F0000
1F0000
0F0000
078000
03FFC0
0007C0
0007C0
0007C0
0007C0
0007C0
0007C0
0007C0
0007C0
0007C0
0007C0
003FF8
ENDCHAR
STARTCHAR 0481
ENCODING 1153
SWIDTH 500 0
DWIDTH 17 0
BBX 15 17 1 0
BITMAP
FF00
3C00
3C00
3C00
3C00
3C00
3C00
3C00
1E00
0FF8
0078
0078
0078
0078
0078
0078
01FE
ENDCHAR
STARTCHAR 0482
ENCODING 1154
SWIDTH 411 0
DWIDTH 14 0
BBX 11 13 1 -5
BITMAP
0060
04E0
0FC0
0780
03C0
47E0
7E40
3C00
3C00
3E00
7600
E000
4000
ENDCHAR
STARTCHAR 0483
ENCODING 1155
SWIDTH 0 0
DWIDTH 0 0
BBX 13 3 -15 18
BITMAP
F838
E738
E0F8
ENDCHAR
STARTCHAR 0484
ENCODING 1156
SWIDTH 0 0
DWIDTH 0 0
BBX 14 6 -16 18
BITMAP
0780
1FE0
3FF0
7038
C00C
8004
ENDCHAR
STARTCHAR 0485
ENCODING 1157
SWIDTH 0 0
DWIDTH 0 0
BBX 6 6 -11 20
BITMAP
78
EC
C0
C0
C0
40
ENDCHAR
STARTCHAR 0486
ENCODING 1158
SWIDTH 0 0
DWIDTH 0 0
BBX 6 6 -12 20
BITMAP
78
DC
0C
0C
0C
08
ENDCHAR
STARTCHAR 0487
ENCODING 1159
SWIDTH 0 0
DWIDTH 0 0
BBX 18 5 -18 28
BITMAP
03F000
1FFE00
3C0700
E001C0
4000C0
ENDCHAR
STARTCHAR 0488
ENCODING 1160
SWIDTH 0 0
DWIDTH 0 0
BBX 41 38 -29 -9
BITMAP
00001C000000
00007F000000
000063000000
0000C1800000
0000C1800000
000000000000
01C00001C000
07F00007F000
063000063000
0C18000C1800
0C18000C1800
000000000000
000000000000
000000000000
000000000000
000000000000
000000000000
3E0000003E00
7F0000007F00
E1800000E380
C1800000C180
C1800000C180
000000000000
000000000000
000000000000
000000000000
000000000000
000000000000
03E00003E000
07F00007F000
0C18000C1800
0C18000C1800
000000000000
00001C000000
00007F000000
000063000000
0000C1800000
0000C1800000
ENDCHAR
STARTCHAR 0489
ENCODING 1161
SWIDTH 0 0
DWIDTH 0 0
BBX 37 39 -27 -10
BITMAP
0000600000
0000C00000
0000C00000
0000F00000
0200F00000
0400F01E00
0400603900
04C0003800
07E0003C00
03E0003C00
01C0001800
0000000000
0000000000
0000000000
0000000000
0000000000
00000001E0
1C000003F0
9E000003C8
9E000003C8
7E000001C0
3C00000000
0000000000
0000000000
0000000000
0000000000
0000000000
00C0001800
01E0003C00
01E0003E00
00E0003A00
08C0700200
0780780200
0000780000
0000780000
0000180000
0000100000
0000200000
0000400000
ENDCHAR
STARTCHAR 0490
ENCODING 1168
SWIDTH 617 0
DWIDTH 21 0
BBX 17 33 2 0
BITMAP
000080
000080
000180
000180
000180
000380
000780
000F80
FFFF80
1F0000
1F0000
1F0000
1F0000
1F0000
1F0000
1F0000
1F0000
1F0000
1F0000
1F0000
1F0000
1F0000
1F0000
1F0000
1F0000
1F0000
1F0000
1F0000
1F0000
1F0000
1F0000
1F0000
FFF000
ENDCHAR
STARTCHAR 0491
ENCODING 1169
SWIDTH 441 0
DWIDTH 15 0
BBX 13 23 1 0
BITMAP
0008
0018
0018
0018
0038
0078
FFF8
3C00
3C00
3C00
3C00
3C00
3C00
3C00
3C00
3C00
3C00
3C00
3C00
3C00
3C00
3C00
FF00
ENDCHAR
STARTCHAR 04A4
ENCODING 1188
SWIDTH 1029 0
DWIDTH 35 0
BBX 31 25 2 0
BITMAP
FFE7FFFE
1F00F87E
1F00F81E
1F00F81E
1F00F80E
1F00F80E
1F00F806
1F00F806
1F00F806
1F00F802
1F00F800
1FFFF800
1F00F800
1F00F800
1F00F800
1F00F800
1F00F800
1F00F800
1F00F800
1F00F800
1F00F800
1F00F800
1F00F800
1F00F800
FFE7FF00
ENDCHAR
STARTCHAR 04A5
ENCODING 1189
SWIDTH 705 0
DWIDTH 24 0
BBX 22 17 1 0
BITMAP
FF7FFC
3C1E3C
3C1E1C
3C1E1C
3C1E0C
3C1E0C
3C1E0C
3C1E04
3FFE00
3C1E00
3C1E00
3C1E00
3C1E00
3C1E00
3C1E00
3C1E00
FF7F80
ENDCHAR
STARTCHAR 04D8
ENCODING 1240
SWIDTH 676 0
DWIDTH 23 0
BBX 19 25 2 1
BITMAP
07F800
081E00
100F00
200F80
200780
6007C0
4007C0
4007C0
C007E0
0007E0
0007E0
0007E0
FFFFE0
FC07E0
FC07E0
FC07E0
FC07E0
7C07C0
7C07C0
7C07C0
3C0780
3E0F80
1E0F00
0E0E00
03F800
ENDCHAR
STARTCHAR 04D9
ENCODING 1241
SWIDTH 470 0
DWIDTH 16 0
BBX 12 17 2 0
BITMAP
1F00
2380
41C0
80E0
80F0
80F0
00F0
00F0
FFF0
F0F0
F0F0
F0F0
F0F0
78E0
78C0
39C0
0F00
ENDCHAR
STARTCHAR 0510
ENCODING 1296
SWIDTH 617 0
DWIDTH 21 0
BBX 17 25 2 1
BITMAP
0FF900
1E0F00
3C0700
3C0700
7C0300
7C0300
7C0300
7C0100
3C0100
1E0000
0F0000
01F000
0F0000
1E0000
7E0000
7C0200
FC0700
FC0F80
FC0F80
FC0780
FC0380
7C0300
7E0300
3E0600
0FF800
ENDCHAR
STARTCHAR 0511
ENCODING 1297
SWIDTH 411 0
DWIDTH 14 0
BBX 12 17 1 0
BITMAP
1F80
3860
7870
F070
F0F0
F0F0
7840
3800
0700
3800
7860
F0F0
F070
F030
F830
7860
1F80
ENDCHAR
STARTCHAR 05D0
ENCODING 1488
SWIDTH 558 0
DWIDTH 19 0
BBX 15 19 2 0
BITMAP
4018
C038
C078
E07C
F07E
F83E
7C1E
7E1C
5F20
8FE0
87E0
83F0
C1F8
E07C
F03C
F81C
F81C
F808
F808
ENDCHAR
STARTCHAR 1D79
ENCODING 7545
SWIDTH 441 0
DWIDTH 15 0
BBX 13 22 1 -6
BITMAP
7FF8
7FF0
7FE0
7FC0
0100
0200
0400
1800
1800
3E00
3F80
3FE0
0FF0
33F0
61F8
4078
C018
C018
C010
6030
3060
0F80
ENDCHAR
STARTCHAR 1E80
ENCODING 7808
SWIDTH 1058 0
DWIDTH 36 0
BBX 34 34 1 0
BITMAP
0002000000
0007000000
0007800000
0003800000
0001C00000
0000600000
0000200000
0000000000
0000000000
FFE7FF7FC0
1F81F80E00
0F80F80E00
0F80FC0C00
0FC07C0C00
07C07C0C00
07C07C0800
07E0FE1800
03E0BE1800
03E0BE1800
03F19F1000
01F19F3000
01F11F3000
01F90F2000
01FB0FA000
00FA0FE000
00FE0FE000
00FE07C000
007E07C000
007C07C000
007C03C000
003C038000
0038038000
0038018000
0018018000
ENDCHAR
STARTCHAR 1E81
ENCODING 7809
SWIDTH 764 0
DWIDTH 26 0
BBX 25 25 0 0
BITMAP
00700000
00700000
00780000
001C0000
000C0000
00060000
00000000
00000000
FF3FCF80
1E1F0600
1E0F0600
1E0F0400
0F078400
0F0F8400
070F8800
078BC800
0793C800
0393D000
03D1F000
03E1F000
01E1E000
01C0E000
01C0E000
00C0C000
00804000
ENDCHAR
STARTCHAR 1E82
ENCODING 7810
SWIDTH 1058 0
DWIDTH 36 0
BBX 34 34 1 0
BITMAP
0000040000
00000E0000
00000E0000
00001C0000
0000380000
0000300000
0000600000
0000000000
0000000000
FFE7FF7FC0
1F81F80E00
0F80F80E00
0F80FC0C00
0FC07C0C00
07C07C0C00
07C07C0800
07E0FE1800
03E0BE1800
03E0BE1800
03F19F1000
01F19F3000
01F11F3000
01F90F2000
01FB0FA000
00FA0FE000
00FE0FE000
00FE07C000
007E07C000
007C07C000
007C03C000
003C038000
0038038000
0038018000
0018018000
ENDCHAR
STARTCHAR 1E83
ENCODING 7811
SWIDTH 764 0
DWIDTH 26 0
BBX 25 25 0 0
BITMAP
0000C000
0001C000
0003C000
00038000
00060000
000C0000
00000000
00000000
FF3FCF80
1E0F0600
1E0F0600
1E0F0600
0F078400
0F0F8400
078F8C00
078BC800
0793C800
03D3D800
03D1F000
03E1F000
01E1F000
01E0E000
01C0E000
00C0E000
00C04000
ENDCHAR
STARTCHAR 1E84
ENCODING 7812
SWIDTH 1058 0
DWIDTH 36 0
BBX 34 32 1 0
BITMAP
00070E0000
000F0F0000
000F0F0000
00070E0000
0000000000
0000000000
0000000000
FFE7FF7FC0
1F81F80E00
0F80F80E00
0F80FC0C00
0FC0FC0C00
07C0FC0C00
07C0FE0800
07E0FE1800
03E0BE1800
03E1BE1800
03F13F1000
01F11F3000
01F11F3000
01FB1F2000
01FA0FA000
00FA0FE000
00FE0FE000
00FC07C000
007C07C000
007C07C000
007C03C000
0038038000
0038038000
0038018000
0010018000
ENDCHAR
STARTCHAR 1E85
ENCODING 7813
SWIDTH 794 0
DWIDTH 27 0
BBX 25 24 1 0
BITMAP
0071C000
00F1E000
00F1E000
0071C000
00000000
00000000
00000000
FF7FCF80
3E1F0600
1E0F0600
1E0F0400
1E0F8400
0F0F8400
0F0F8800
0F17C800
0793C800
0793D000
03E3F000
03E1F000
03E1E000
01C1E000
01C0E000
01C0C000
0080C000
ENDCHAR
STARTCHAR 1E9E
ENCODING 7838
SWIDTH 794 0
DWIDTH 27 0
BBX 23 25 2 1
BITMAP
007FF8
01FFF0
03FFF0
0787E0
070040
0F0080
0F0180
1F0300
1F0200
1F0400
1F0FC0
1F18F0
1F00F8
1F007C
1F007C
1F007E
1F007E
1F087E
1F3C7E
1F7C7E
1F7C7E
1F787C
1F7078
1F30F8
FF1FE0
ENDCHAR
STARTCHAR 1F00
ENCODING 7936
SWIDTH 588 0
DWIDTH 20 0
BBX 17 26 2 0
BITMAP
00E000
01F000
01F000
00F000
003000
002000
002000
00C000
000000
078700
0FCF00
1FCF00
3FDE00
787E00
703C00
603C00
E03800
C07800
C07000
C0F000
C0E080
C1F180
E3DF00
7F9F00
7F1F00
1E0E00
ENDCHAR
STARTCHAR 1F01
ENCODING 7937
SWIDTH 588 0
DWIDTH 20 0
BBX 17 26 2 0
BITMAP
00E000
01F000
01F000
01F000
018000
018000
008000
004000
000000
078700
0FCF00
1FCF00
3FDE00
787E00
707C00
607C00
E07800
C07800
C07000
C0F000
C1E080
C1F180
E7DF00
7F9F00
7F1F00
1E0E00
ENDCHAR
STARTCHAR 1F02
ENCODING 7938
SWIDTH 588 0
DWIDTH 20 0
BBX 17 26 2 0
BITMAP
0E7000
0F7000
0F7000
0F3800
031800
021800
060C00
0C0400
000000
078F00
0F8F00
1FCF00
3FDE00
787E00
707C00
607C00
E07800
C07800
C07000
C0F000
C1E080
C1F180
E7DF00
7F9F00
7F1F00
1E0E00
ENDCHAR
STARTCHAR 1F03
ENCODING 7939
SWIDTH 588 0
DWIDTH 20 0
BBX 17 26 2 0
BITMAP
0E7000
1F7000
1F7000
1F3800
181800
081800
0C0C00
060400
000000
078F00
0F8F00
1FCF00
3FDE00
787E00
707C00
607C00
E07800
C07800
C07000
C0F000
C1E080
C1F180
E7DF00
7F9F00
7F1F00
1E0E00
ENDCHAR
STARTCHAR 1F04
ENCODING 7940
SWIDTH 588 0
DWIDTH 20 0
BBX 17 26 2 0
BITMAP
038600
07CF00
07CE00
03CE00
00DC00
009800
019000
033000
000000
078700
0FCF00
1FCF00
3FDE00
787E00
703C00
603C00
E07800
C07800
C07000
C0F000
C0E080
C1F180
E7DF00
7F9F00
7F1F00
1E0E00
ENDCHAR
STARTCHAR 1F05
ENCODING 7941
SWIDTH 588 0
DWIDTH 20 0
BBX 17 26 2 0
BITMAP
038600
07CF00
07CE00
07CE00
061C00
021800
031000
01B000
000000
078700
0FCF00
1FCF00
3FDE00
787E00
707C00
607C00
E07800
C07800
C07000
C0F000
C1E080
C1F180
E7DF00
7F9F00
7F1F00
1E0E00
ENDCHAR
STARTCHAR 1F06
ENCODING 7942
SWIDTH 588 0
DWIDTH 20 0
BBX 17 30 2 0
BITMAP
03C200
07FE00
087800
000000
000000
01E000
03E000
01E000
003000
002000
006000
004000
000000
078700
0FCF00
1FCF00
3FDE00
787E00
707C00
607C00
E07800
C07800
C07000
C0F000
C1E080
C1F180
E7DF00
7F9F00
7F1F00
1E0E00
ENDCHAR
STARTCHAR 1F07
ENCODING 7943
SWIDTH 588 0
DWIDTH 20 0
BBX 17 30 2 0
BITMAP
03C200
0FFC00
087800
000000
000000
01E000
03F000
03E000
030000
030000
010000
018000
000000
078700
0FCF00
1FCF00
3FDE00
787E00
707C00
607C00
E07800
C07800
C07000
C0F000
C1E080
C1F180
E7DF00
7F9F00
7F1F00
1E0E00
ENDCHAR
STARTCHAR 1F08
ENCODING 7944
SWIDTH 764 0
DWIDTH 26 0
BBX 23 26 2 0
BITMAP
E01000
F03800
F03800
F83800
107C00
107C00
207C00
607E00
00FE00
00FE00
009F00
019F00
019F00
011F80
030F80
030F80
020FC0
0607C0
07FFC0
0407C0
0C07E0
0C03E0
0803E0
1803F0
3C03F8
FF9FFE
ENDCHAR
STARTCHAR 1F09
ENCODING 7945
SWIDTH 794 0
DWIDTH 27 0
BBX 24 26 2 0
BITMAP
700800
F81C00
F81C00
F01C00
C03E00
403E00
403E00
207F00
005F00
005F00
00DF80
008F80
008F80
018FC0
0107C0
0107C0
0307E0
0203E0
03FFE0
0603E0
0403F0
0401F0
0C01F0
0C01F8
3C01FC
FF8FFF
ENDCHAR
STARTCHAR 1F0A
ENCODING 7946
SWIDTH 852 0
DWIDTH 29 0
BBX 29 26 -1 0
BITMAP
E7004000
F700E000
F780E000
FB80E000
1181F000
11C1F000
20C1F000
C043F800
0003F800
0002F800
0006FC00
0004FC00
00047C00
000C7E00
00087E00
00083E00
00183F00
00101F00
001FFF00
00301F00
00201F80
00200F80
00600F80
00600FC0
01E00FE0
07FC7FF8
ENDCHAR
STARTCHAR 1F0B
ENCODING 7947
SWIDTH 823 0
DWIDTH 28 0
BBX 29 26 -2 0
BITMAP
73804000
FB80E000
FBC0E000
F9C0E000
C0C1F000
40E1F000
6061F000
3021F800
0003F800
0003F800
00027C00
00067C00
00067C00
00047E00
000C3E00
000C3E00
000C3F00
00181F00
001FFF00
00181F00
00301F80
00300F80
00300F80
00700FC0
00F00FE0
03FE7FF8
ENDCHAR
STARTCHAR 1F0C
ENCODING 7948
SWIDTH 852 0
DWIDTH 29 0
BBX 28 26 0 0
BITMAP
E1C08000
F1C1C000
F3C1C000
FB81C000
1303E000
1303E000
2603E000
C407F000
0007F000
0005F000
000DF800
0009F800
0008F800
0018FC00
0010FC00
00107C00
00307E00
00203E00
003FFE00
00603E00
00403F00
00401F00
00C01F00
00C01F80
03C01FC0
0FF8FFF0
ENDCHAR
STARTCHAR 1F0D
ENCODING 7949
SWIDTH 852 0
DWIDTH 29 0
BBX 28 26 0 0
BITMAP
70C08000
F9E1C000
F9E1C000
F1C1C000
C383E000
4303E000
6303E000
3603F000
0007F000
0007F000
0004F800
000CF800
000CF800
0008FC00
00187C00
00187C00
00187E00
00303E00
003FFE00
00303E00
00603F00
00601F00
00601F00
00E01F80
01E01FC0
07FCFFF0
ENDCHAR
STARTCHAR 1F0E
ENCODING 7950
SWIDTH 794 0
DWIDTH 27 0
BBX 28 30 -2 0
BITMAP
3C100000
7E300000
47E00000
81C00000
00008000
1E00C000
1F01C000
1F01C000
0301E000
0303E000
0203E000
0603F000
0007F000
0007F000
0004F800
000CF800
000CF800
0008FC00
00187C00
00187C00
00107C00
00303E00
003FFE00
00203E00
00603F00
00601F00
00401F00
00C01F80
01E01FC0
07FCFFF0
ENDCHAR
STARTCHAR 1F0F
ENCODING 7951
SWIDTH 823 0
DWIDTH 28 0
BBX 29 30 -2 0
BITMAP
3C100000
7F100000
47E00000
81C00000
00004000
0F00E000
1F00E000
1F00E000
1801F000
1801F000
0801F000
0C03F800
0003F800
0002F800
0006FC00
0004FC00
00047C00
000C7E00
00087E00
00083E00
00183E00
00101F00
001FFF00
00301F00
00201F80
00200F80
00600F80
00600FC0
01E00FE0
07FC7FF8
ENDCHAR
STARTCHAR 1F10
ENCODING 7952
SWIDTH 441 0
DWIDTH 15 0
BBX 12 26 2 0
BITMAP
0E00
0F00
1F00
0F80
0100
0100
0200
0400
0000
1F80
3FE0
7FE0
7FE0
E060
4000
4F80
7FC0
3FC0
4780
C000
C010
E070
FFE0
7FE0
7FC0
1F00
ENDCHAR
STARTCHAR 1F11
ENCODING 7953
SWIDTH 441 0
DWIDTH 15 0
BBX 12 26 2 0
BITMAP
0700
0F80
1F80
1F00
0800
0800
0400
0600
0000
1F80
3FE0
7FE0
7FE0
E060
4000
4F80
7FC0
3FC0
4780
C000
C010
E070
FFE0
7FE0
7FC0
1F00
ENDCHAR
STARTCHAR 1F12
ENCODING 7954
SWIDTH 441 0
DWIDTH 15 0
BBX 12 26 2 0
BITMAP
7300
FB80
FB80
F9C0
19C0
10C0
3060
6020
0000
1F80
3FE0
7FE0
7FE0
E060
4000
4F80
7FC0
3FC0
4780
C000
C010
E070
FFE0
7FE0
7FC0
1F00
ENDCHAR
STARTCHAR 1F13
ENCODING 7955
SWIDTH 441 0
DWIDTH 15 0
BBX 12 26 2 0
BITMAP
7300
FB80
FB80
F1C0
C1C0
40C0
6060
3020
0000
1F80
3FE0
7FE0
7FE0
E060
4000
4F80
7FC0
3FC0
4780
C000
C010
E070
FFE0
7FE0
7FC0
1F00
ENDCHAR
STARTCHAR 1F14
ENCODING 7956
SWIDTH 470 0
DWIDTH 16 0
BBX 13 26 2 0
BITMAP
1C30
3E78
3E70
3E70
06E0
04C0
0C80
1980
0000
1F80
3FC0
7FE0
7FE0
E060
4000
4F80
7FC0
3FC0
4780
C000
C010
E070
FFE0
7FE0
7FC0
1F00
ENDCHAR
STARTCHAR 1F15
ENCODING 7957
SWIDTH 470 0
DWIDTH 16 0
BBX 13 26 2 0
BITMAP
1C30
3E78
3E70
3C70
30E0
10C0
1880
0D80
0000
1F80
3FC0
7FE0
7FE0
E060
4000
4780
7FC0
3FC0
4780
C000
C010
E070
FFE0
7FE0
7FC0
1F00
ENDCHAR
STARTCHAR 1F18
ENCODING 7960
SWIDTH 911 0
DWIDTH 31 0
BBX 27 26 2 0
BITMAP
E0000000
F0FFFFE0
F01F03E0
F81F01E0
101F00E0
101F00E0
201F0060
401F0060
001F0C60
001F0C00
001F0C00
001F1C00
001F1C00
001FFC00
001F3C00
001F1C00
001F0C00
001F0C20
001F0C20
001F0060
001F0060
001F0060
001F00E0
001F01E0
001F03E0
00FFFFE0
ENDCHAR
STARTCHAR 1F19
ENCODING 7961
SWIDTH 911 0
DWIDTH 31 0
BBX 27 26 2 0
BITMAP
70000000
F8FFFFE0
F81F03E0
F81F01E0
C01F00E0
C01F0060
401F0060
201F0020
001F0620
001F0600
001F0E00
001F0E00
001F1E00
001FFE00
001F1E00
001F0E00
001F0E00
001F0620
001F0620
001F0020
001F0060
001F0060
001F00E0
001F00E0
001F03E0
00FFFFE0
ENDCHAR
STARTCHAR 1F1A
ENCODING 7962
SWIDTH 970 0
DWIDTH 33 0
BBX 33 26 -1 0
BITMAP
E300000000
F787FFFF00
F380F81F00
FB80F80F00
11C0F80700
10C0F80300
20C0F80300
C060F80100
0000F83100
0000F83000
0000F87000
0000F87000
0000F8F000
0000FFF000
0000F8F000
0000F87000
0000F87000
0000F83180
0000F83180
0000F80180
0000F80380
0000F80380
0000F80780
0000F80780
0000F81F80
0007FFFF80
ENDCHAR
STARTCHAR 1F1B
ENCODING 7963
SWIDTH 970 0
DWIDTH 33 0
BBX 33 26 -2 0
BITMAP
7380000000
FB83FFFF80
FBC07C0F80
F9C07C0780
C0C07C0380
40E07C0380
60607C0180
30207C0180
00007C3180
00007C3000
00007C3000
00007C7000
00007C7000
00007FF000
00007CF000
00007C7000
00007C3000
00007C3080
00007C3080
00007C0180
00007C0180
00007C0180
00007C0380
00007C0780
00007C0F80
0003FFFF80
ENDCHAR
STARTCHAR 1F1C
ENCODING 7964
SWIDTH 970 0
DWIDTH 33 0
BBX 32 26 0 0
BITMAP
E1C00000
F1CFFFFE
F1C1F03E
FB81F01E
1381F00E
1301F006
2601F006
C401F002
0001F062
0001F060
0001F0E0
0001F0E0
0001F1E0
0001FFE0
0001F1E0
0001F0E0
0001F0E0
0001F063
0001F063
0001F003
0001F007
0001F007
0001F00F
0001F00F
0001F03F
000FFFFF
ENDCHAR
STARTCHAR 1F1D
ENCODING 7965
SWIDTH 1000 0
DWIDTH 34 0
BBX 32 26 0 0
BITMAP
70E00000
F8E7FFFF
F9E0F81F
F9C0F80F
C380F807
4300F807
6300F803
3600F803
0000F863
0000F860
0000F860
0000F8E0
0000F8E0
0000FFE0
0000F9E0
0000F8E0
0000F860
0000F861
0000F861
0000F803
0000F803
0000F803
0000F807
0000F80F
0000F81F
0007FFFF
ENDCHAR
STARTCHAR 1F20
ENCODING 7968
SWIDTH 617 0
DWIDTH 21 0
BBX 18 36 2 -10
BITMAP
00E000
00F000
00F000
00F800
001000
001000
002000
004000
000000
701E00
F87F00
FCF180
FCE080
C5E080
87C0C0
03C0C0
0380C0
0780C0
078080
078180
078180
0F8180
0F8180
0F0380
0F0380
060380
000780
000780
000780
000780
000F80
000F80
000F80
000F80
000F80
000700
ENDCHAR
STARTCHAR 1F21
ENCODING 7969
SWIDTH 617 0
DWIDTH 21 0
BBX 18 36 1 -10
BITMAP
007000
00F800
00F800
00F000
00C000
00C000
004000
002000
000000
381E00
7C3F80
7C7980
FEF0C0
C7E0C0
83E0C0
83C0C0
03C0C0
03C0C0
03C0C0
0380C0
0781C0
0781C0
0781C0
078180
070380
070380
000380
000780
000780
000780
000F80
000F80
000F80
000F80
000F80
000700
ENDCHAR
STARTCHAR 1F22
ENCODING 7970
SWIDTH 617 0
DWIDTH 21 0
BBX 19 36 1 -10
BITMAP
071800
07B800
07FC00
07DC00
008C00
008600
010600
060200
000000
380F00
7C3F80
7C78C0
FEF040
C6E040
83E060
83E060
03C060
03C040
03C0C0
03C0C0
07C0C0
0780C0
0781C0
0781C0
0783C0
070380
000380
000780
000780
000780
000F80
000F80
000F80
000F80
000F80
000700
ENDCHAR
STARTCHAR 1F23
ENCODING 7971
SWIDTH 617 0
DWIDTH 21 0
BBX 18 36 2 -10
BITMAP
073000
0FB800
0FB800
0F9C00
0C0C00
040C00
060400
030200
000000
701E00
F87F00
FCF180
FCE080
C5E080
87C0C0
03C0C0
0380C0
0380C0
078080
078180
078180
078180
0F8180
0F0380
0F0380
060380
000780
000780
000780
000780
000F80
000F80
000F80
000F80
000F80
000700
ENDCHAR
STARTCHAR 1F24
ENCODING 7972
SWIDTH 617 0
DWIDTH 21 0
BBX 18 36 2 -10
BITMAP
038700
03C700
03E700
03EE00
004E00
004C00
009800
011800
000000
701E00
F87F00
FCF180
FCE080
C5C080
87C0C0
03C0C0
0380C0
0780C0
078080
078180
078180
0F8180
0F8180
0F0380
0F0380
060380
000780
000780
000780
000780
000F80
000F80
000F80
000F80
000F80
000700
ENDCHAR
STARTCHAR 1F25
ENCODING 7973
SWIDTH 617 0
DWIDTH 21 0
BBX 18 36 1 -10
BITMAP
01C300
03E780
03E780
03C700
030E00
010C00
018C00
00D800
000000
381E00
7C3F80
7C7880
FEF0C0
C7E040
83E040
83C040
03C040
03C0C0
03C0C0
07C0C0
0780C0
0781C0
0781C0
0F8180
0F8380
070380
000380
000780
000780
000780
000F80
000F80
000F80
000F80
000F80
000700
ENDCHAR
STARTCHAR 1F26
ENCODING 7974
SWIDTH 647 0
DWIDTH 22 0
BBX 18 40 2 -10
BITMAP
03C100
07F300
047E00
081C00
000000
01F000
01F000
01F000
001800
001000
003000
002000
000000
701E00
787F80
FCF980
FCE0C0
C5E0C0
87C0C0
03C0C0
03C0C0
03C0C0
0780C0
0780C0
0781C0
0781C0
0F81C0
0F8180
0F0380
070380
000380
000780
000780
000780
000F80
000F80
000F80
000F80
000F80
000700
ENDCHAR
STARTCHAR 1F27
ENCODING 7975
SWIDTH 647 0
DWIDTH 22 0
BBX 18 40 2 -10
BITMAP
03C100
07F300
047E00
081C00
000000
00F000
01F800
01F000
018000
018000
008000
00C000
000000
701E00
787F80
FCF980
FCE0C0
C5E0C0
87C0C0
03C0C0
03C0C0
0780C0
0780C0
0780C0
0781C0
0781C0
0F81C0
0F0180
0F0380
060380
000380
000780
000780
000780
000F80
000F80
000F80
000F80
000F80
000700
ENDCHAR
STARTCHAR 1F28
ENCODING 7976
SWIDTH 1029 0
DWIDTH 35 0
BBX 32 26 2 0
BITMAP
E0000000
F1FFCFFF
F01F00F8
F81F00F8
101F00F8
101F00F8
201F00F8
401F00F8
001F00F8
001F00F8
001F00F8
001F00F8
001FFFF8
001F00F8
001F00F8
001F00F8
001F00F8
001F00F8
001F00F8
001F00F8
001F00F8
001F00F8
001F00F8
001F00F8
001F00F8
01FFCFFF
ENDCHAR
STARTCHAR 1F29
ENCODING 7977
SWIDTH 1029 0
DWIDTH 35 0
BBX 32 26 2 0
BITMAP
70000000
F8FFEFFF
F81F00F8
F81F00F8
C01F00F8
401F00F8
401F00F8
301F00F8
001F00F8
001F00F8
001F00F8
001F00F8
001FFFF8
001F00F8
001F00F8
001F00F8
001F00F8
001F00F8
001F00F8
001F00F8
001F00F8
001F00F8
001F00F8
001F00F8
001F00F8
00FFEFFF
ENDCHAR
STARTCHAR 1F2A
ENCODING 7978
SWIDTH 1117 0
DWIDTH 38 0
BBX 38 26 -1 0
BITMAP
E300000000
F787FF3FFC
FB80F807C0
FB80F807C0
11C0F807C0
10C0F807C0
2040F807C0
C060F807C0
0000F807C0
0000F807C0
0000F807C0
0000F807C0
0000FFFFC0
0000F807C0
0000F807C0
0000F807C0
0000F807C0
0000F807C0
0000F807C0
0000F807C0
0000F807C0
0000F807C0
0000F807C0
0000F807C0
0000F807C0
0007FF3FFC
ENDCHAR
STARTCHAR 1F2B
ENCODING 7979
SWIDTH 1088 0
DWIDTH 37 0
BBX 38 26 -2 0
BITMAP
7380000000
FB83FFBFFC
FBC07C03E0
F9C07C03E0
C0E07C03E0
40607C03E0
60607C03E0
30307C03E0
00007C03E0
00007C03E0
00007C03E0
00007C03E0
00007FFFE0
00007C03E0
00007C03E0
00007C03E0
00007C03E0
00007C03E0
00007C03E0
00007C03E0
00007C03E0
00007C03E0
00007C03E0
00007C03E0
00007C03E0
0003FFBFFC
ENDCHAR
STARTCHAR 1F2C
ENCODING 7980
SWIDTH 1088 0
DWIDTH 37 0
BBX 36 26 0 0
BITMAP
E0C0000000
F1CFFE7FF0
F9C1F00F80
FB81F00F80
1381F00F80
1301F00F80
2601F00F80
C401F00F80
0001F00F80
0001F00F80
0001F00F80
0001F00F80
0001FFFF80
0001F00F80
0001F00F80
0001F00F80
0001F00F80
0001F00F80
0001F00F80
0001F00F80
0001F00F80
0001F00F80
0001F00F80
0001F00F80
0001F00F80
000FFE7FF0
ENDCHAR
STARTCHAR 1F2D
ENCODING 7981
SWIDTH 1117 0
DWIDTH 38 0
BBX 37 26 0 0
BITMAP
70E0000000
F8E7FF3FF8
F9E0F807C0
F9C0F807C0
C180F807C0
4380F807C0
6300F807C0
3200F807C0
0000F807C0
0000F807C0
0000F807C0
0000F807C0
0000FFFFC0
0000F807C0
0000F807C0
0000F807C0
0000F807C0
0000F807C0
0000F807C0
0000F807C0
0000F807C0
0000F807C0
0000F807C0
0000F807C0
0000F807C0
0007FF3FF8
ENDCHAR
STARTCHAR 1F2E
ENCODING 7982
SWIDTH 1058 0
DWIDTH 36 0
BBX 37 30 -2 0
BITMAP
3C08000000
7F10000000
47F0000000
81C0000000
0000000000
1F07FF7FF8
1F00F807C0
1F00F807C0
0180F807C0
0100F807C0
0300F807C0
0200F807C0
0000F807C0
0000F807C0
0000F807C0
0000F807C0
0000FFFFC0
0000F807C0
0000F807C0
0000F807C0
0000F807C0
0000F807C0
0000F807C0
0000F807C0
0000F807C0
0000F807C0
0000F807C0
0000F807C0
0000F807C0
0007FF7FF8
ENDCHAR
STARTCHAR 1F2F
ENCODING 7983
SWIDTH 1058 0
DWIDTH 36 0
BBX 37 30 -2 0
BITMAP
3C08000000
7F10000000
47F0000000
81C0000000
0000000000
0F07FF7FF8
1F80F807C0
1F00F807C0
1800F807C0
1800F807C0
0800F807C0
0400F807C0
0000F807C0
0000F807C0
0000F807C0
0000F807C0
0000FFFFC0
0000F807C0
0000F807C0
0000F807C0
0000F807C0
0000F807C0
0000F807C0
0000F807C0
0000F807C0
0000F807C0
0000F807C0
0000F807C0
0000F807C0
0007FF7FF8
ENDCHAR
STARTCHAR 1F30
ENCODING 7984
SWIDTH 323 0
DWIDTH 11 0
BBX 7 26 3 0
BITMAP
70
F8
F8
F8
18
10
10
20
00
70
F0
F0
F0
F0
E0
E0
C0
C0
C0
C0
C2
C6
FC
FC
7C
38
ENDCHAR
STARTCHAR 1F31
ENCODING 7985
SWIDTH 323 0
DWIDTH 11 0
BBX 7 26 3 0
BITMAP
70
F8
F8
F8
C0
40
40
20
00
70
F0
F8
F0
F0
E0
E0
C0
C0
C0
C0
C2
C6
FC
FC
7C
38
ENDCHAR
STARTCHAR 1F32
ENCODING 7986
SWIDTH 323 0
DWIDTH 11 0
BBX 11 26 0 0
BITMAP
E700
F700
FF80
FB80
11C0
10C0
20C0
C060
0000
0E00
1E00
1F00
1E00
1E00
1C00
1C00
1800
1800
1800
1800
1840
1840
1FC0
1F80
0F80
0700
ENDCHAR
STARTCHAR 1F33
ENCODING 7987
SWIDTH 323 0
DWIDTH 11 0
BBX 11 26 -1 0
BITMAP
7380
FB80
FB80
F9C0
C0C0
40C0
6060
3020
0000
0E00
0F00
1F00
1F00
1E00
1E00
1C00
1C00
1800
1800
1800
1800
1C40
1FC0
0FC0
0F80
0700
ENDCHAR
STARTCHAR 1F34
ENCODING 7988
SWIDTH 323 0
DWIDTH 11 0
BBX 11 26 1 0
BITMAP
70E0
F8E0
F9E0
F9C0
0B80
1300
3300
6600
0000
1C00
3C00
3E00
3C00
3C00
3800
3800
3000
3000
3000
3000
3080
3080
3F80
3F00
1F00
0E00
ENDCHAR
STARTCHAR 1F35
ENCODING 7989
SWIDTH 323 0
DWIDTH 11 0
BBX 11 26 1 0
BITMAP
70C0
F9E0
F9C0
F9C0
C380
4300
6300
3600
0000
1C00
3C00
3E00
3C00
3C00
3800
3800
3000
3000
2000
2000
2080
3180
3F00
3F00
3E00
1C00
ENDCHAR
STARTCHAR 1F36
ENCODING 7990
SWIDTH 294 0
DWIDTH 10 0
BBX 12 30 -1 0
BITMAP
3E10
7FE0
C3C0
0000
0000
1E00
1F00
1F00
0300
0300
0200
0600
0000
0E00
1F00
1F00
1E00
1E00
1E00
1C00
1800
1800
1800
1800
1840
1840
1FC0
1F80
0F80
0700
ENDCHAR
STARTCHAR 1F37
ENCODING 7991
SWIDTH 294 0
DWIDTH 10 0
BBX 11 30 0 0
BITMAP
3C20
7FC0
8780
0000
0000
1E00
3E00
3E00
3000
3000
1000
0800
0000
1C00
1E00
3E00
3E00
3C00
3C00
3800
3800
3000
3000
3000
3080
3880
3F80
1F00
1F00
0E00
ENDCHAR
STARTCHAR 1F38
ENCODING 7992
SWIDTH 617 0
DWIDTH 21 0
BBX 18 26 2 0
BITMAP
E00000
F1FFC0
F01F00
F81F00
101F00
101F00
201F00
601F00
001F00
001F00
001F00
001F00
001F00
001F00
001F00
001F00
001F00
001F00
001F00
001F00
001F00
001F00
001F00
001F00
001F00
01FFC0
ENDCHAR
STARTCHAR 1F39
ENCODING 7993
SWIDTH 647 0
DWIDTH 22 0
BBX 19 26 2 0
BITMAP
700000
F8FFE0
F81F00
F81F00
C01F00
401F00
401F00
301F00
001F00
001F00
001F00
001F00
001F00
001F00
001F00
001F00
001F00
001F00
001F00
001F00
001F00
001F00
001F00
001F00
001F00
00FFE0
ENDCHAR
STARTCHAR 1F3A
ENCODING 7994
SWIDTH 705 0
DWIDTH 24 0
BBX 24 26 -1 0
BITMAP
E30000
F787FF
F380F8
FB80F8
11C0F8
10C0F8
2040F8
4060F8
0000F8
0000F8
0000F8
0000F8
0000F8
0000F8
0000F8
0000F8
0000F8
0000F8
0000F8
0000F8
0000F8
0000F8
0000F8
0000F8
0000F8
0007FF
ENDCHAR
STARTCHAR 1F3B
ENCODING 7995
SWIDTH 705 0
DWIDTH 24 0
BBX 25 26 -2 0
BITMAP
73800000
FB83FF80
FBC07C00
F9C07C00
C0E07C00
40607C00
60607C00
30307C00
00007C00
00007C00
00007C00
00007C00
00007C00
00007C00
00007C00
00007C00
00007C00
00007C00
00007C00
00007C00
00007C00
00007C00
00007C00
00007C00
00007C00
0003FF80
ENDCHAR
STARTCHAR 1F3C
ENCODING 7996
SWIDTH 705 0
DWIDTH 24 0
BBX 23 26 0 0
BITMAP
E0C000
F1CFFE
F1C1F0
FB81F0
1381F0
1301F0
2601F0
4401F0
0001F0
0001F0
0001F0
0001F0
0001F0
0001F0
0001F0
0001F0
0001F0
0001F0
0001F0
0001F0
0001F0
0001F0
0001F0
0001F0
0001F0
000FFE
ENDCHAR
STARTCHAR 1F3D
ENCODING 7997
SWIDTH 735 0
DWIDTH 25 0
BBX 24 26 0 0
BITMAP
70E000
F8E7FF
F9E0F8
F9C0F8
C180F8
4380F8
6300F8
3200F8
0000F8
0000F8
0000F8
0000F8
0000F8
0000F8
0000F8
0000F8
0000F8
0000F8
0000F8
0000F8
0000F8
0000F8
0000F8
0000F8
0000F8
0007FF
ENDCHAR
STARTCHAR 1F3E
ENCODING 7998
SWIDTH 676 0
DWIDTH 23 0
BBX 24 30 -2 0
BITMAP
3C0800
7F1000
47F000
81C000
000000
1F07FF
1F00F8
1F00F8
0180F8
0100F8
0300F8
0600F8
0000F8
0000F8
0000F8
0000F8
0000F8
0000F8
0000F8
0000F8
0000F8
0000F8
0000F8
0000F8
0000F8
0000F8
0000F8
0000F8
0000F8
0007FF
ENDCHAR
STARTCHAR 1F3F
ENCODING 7999
SWIDTH 676 0
DWIDTH 23 0
BBX 24 30 -2 0
BITMAP
3C0800
7F1000
47F000
81C000
000000
0F07FF
1F80F8
1F00F8
1800F8
1800F8
0800F8
0C00F8
0000F8
0000F8
0000F8
0000F8
0000F8
0000F8
0000F8
0000F8
0000F8
0000F8
0000F8
0000F8
0000F8
0000F8
0000F8
0000F8
0000F8
0007FF
ENDCHAR
STARTCHAR 1F40
ENCODING 8000
SWIDTH 500 0
DWIDTH 17 0
BBX 13 26 2 0
BITMAP
0700
0F80
0F80
0780
0180
0100
0100
0600
0000
0F80
1FE0
3FE0
7FF0
7E10
F818
F018
E018
C018
C038
C078
C0F8
43F0
7FF0
3FE0
3FC0
0F80
ENDCHAR
STARTCHAR 1F41
ENCODING 8001
SWIDTH 500 0
DWIDTH 17 0
BBX 13 26 2 0
BITMAP
0300
0780
0F80
0F80
0400
0400
0600
0300
0100
0F80
1FE0
3FE0
7FF0
7E10
F818
F018
E018
C018
C038
C078
C0F8
43F0
7FF0
3FE0
3FC0
0F80
ENDCHAR
STARTCHAR 1F42
ENCODING 8002
SWIDTH 500 0
DWIDTH 17 0
BBX 13 26 2 0
BITMAP
3180
7B80
7DC0
7DC0
08E0
0860
1060
2030
0000
0F80
1FE0
3FE0
7FF0
7E10
F818
F018
E018
C018
C038
C078
C0F8
43F0
7FF0
3FE0
3FC0
0F80
ENDCHAR
STARTCHAR 1F43
ENCODING 8003
SWIDTH 500 0
DWIDTH 17 0
BBX 13 26 2 0
BITMAP
3980
7B80
FBC0
F9C0
40E0
4060
2060
1830
0000
0F80
1FE0
3FE0
7FF0
7E10
F818
F018
E018
C018
C038
C078
C0F8
43F0
7FF0
3FE0
3FC0
0F80
ENDCHAR
STARTCHAR 1F44
ENCODING 8004
SWIDTH 500 0
DWIDTH 17 0
BBX 13 26 2 0
BITMAP
1C38
1E38
1F78
1F70
0260
02E0
04C0
1880
0000
0F80
1FE0
3FE0
7FF0
7E10
F818
F018
E018
C018
C038
C078
C0F8
43F0
7FF0
3FE0
3FC0
0F80
ENDCHAR
STARTCHAR 1F45
ENCODING 8005
SWIDTH 500 0
DWIDTH 17 0
BBX 13 26 2 0
BITMAP
0C38
1E38
3E78
3E70
1060
10E0
08C0
0480
0000
0F80
1FE0
3FE0
7FF0
7E10
F818
F018
E018
C018
C038
C078
C0F8
43F0
7FF0
3FE0
3FC0
0F80
ENDCHAR
STARTCHAR 1F48
ENCODING 8008
SWIDTH 852 0
DWIDTH 29 0
BBX 25 26 2 0
BITMAP
E0000000
F01FE000
F0387000
F8703800
10E01C00
11E01E00
21E01E00
63E01F00
03E01F00
03E01F00
07E01F80
07E01F80
07E01F80
07E01F80
07E01F80
07E01F80
07E01F80
03E01F00
03E01F00
03E01F00
01E01E00
01E01E00
00E01C00
00703800
00307000
001FE000
ENDCHAR
STARTCHAR 1F49
ENCODING 8009
SWIDTH 882 0
DWIDTH 30 0
BBX 26 26 2 0
BITMAP
70010000
F00FE000
F0383800
F0701C00
C0E00E00
C1E00F00
41E00F00
23E00F80
03E00F80
03E00F80
07E00FC0
07E00FC0
07E00FC0
07E00FC0
07E00FC0
07E00FC0
07E00FC0
03E00F80
03E00F80
03E00F80
01E00F00
01E00F00
00E00E00
00701C00
00383800
000FE000
ENDCHAR
STARTCHAR 1F4A
ENCODING 8010
SWIDTH 941 0
DWIDTH 32 0
BBX 31 26 -1 0
BITMAP
E3000000
F7807F80
F380E1C0
FBC1C0E0
11C38070
10C78078
20678078
406F807C
000F807C
000F807C
001F807E
001F807E
001F807E
001F807E
001F807E
001F807E
001F807E
000F807C
000F807C
000F807C
00078078
00078078
00038070
0001C0E0
0000C1C0
00007F80
ENDCHAR
STARTCHAR 1F4B
ENCODING 8011
SWIDTH 911 0
DWIDTH 31 0
BBX 31 26 -2 0
BITMAP
73000000
FB807F80
FB80E1C0
F1C1C0E0
C1C38070
40C78078
60678078
302F807C
000F807C
000F807C
001F807E
001F807E
001F807E
001F807E
001F807E
001F807E
001F807E
000F807C
000F807C
000F807C
00078078
00078078
00038070
0001C0E0
0000C1C0
00007F80
ENDCHAR
STARTCHAR 1F4C
ENCODING 8012
SWIDTH 941 0
DWIDTH 32 0
BBX 30 26 0 0
BITMAP
E0C00000
F1E0FF00
F1C1C380
FBC381C0
138700E0
130F00F0
260F00F0
441F00F8
001F00F8
001F00F8
003F00FC
003F00FC
003F00FC
003F00FC
003F00FC
003F00FC
003F00FC
001F00F8
001F00F8
001F00F8
000F00F0
000F00F0
000700E0
000381C0
0001C380
0000FF00
ENDCHAR
STARTCHAR 1F4D
ENCODING 8013
SWIDTH 941 0
DWIDTH 32 0
BBX 30 26 0 0
BITMAP
70C00000
F9E0FF00
F9C1C380
F1C381C0
C38700E0
430F00F0
620F00F0
361F00F8
001F00F8
001F00F8
003F00FC
003F00FC
003F00FC
003F00FC
003F00FC
003F00FC
003F00FC
001F00F8
001F00F8
001F00F8
000F00F0
000F00F0
000700E0
000381C0
0001C380
0000FF00
ENDCHAR
STARTCHAR 1F50
ENCODING 8016
SWIDTH 558 0
DWIDTH 19 0
BBX 16 26 1 0
BITMAP
0E00
1F00
1F00
1F00
0300
0200
0200
0400
0000
6040
F030
F838
F81C
781C
380E
380E
180F
180F
180F
180F
180F
181F
181E
0C3C
07FC
03F0
ENDCHAR
STARTCHAR 1F51
ENCODING 8017
SWIDTH 558 0
DWIDTH 19 0
BBX 16 26 1 0
BITMAP
0E00
1F00
1F00
1F00
1800
1800
0800
0400
0000
6040
F030
F838
F81C
781C
380E
380E
180F
180F
180F
180F
180F
181F
181E
0C3C
07FC
03F0
ENDCHAR
STARTCHAR 1F52
ENCODING 8018
SWIDTH 558 0
DWIDTH 19 0
BBX 16 26 1 0
BITMAP
E300
F780
FB80
FB80
11C0
10C0
20C0
C060
0000
6040
F030
F838
F81C
781C
380E
380E
180F
180F
180F
180F
180F
181F
181E
0E7C
07FC
03F0
ENDCHAR
STARTCHAR 1F53
ENCODING 8019
SWIDTH 588 0
DWIDTH 20 0
BBX 17 26 1 0
BITMAP
738000
FB8000
FBC000
F9C000
C0C000
40E000
606000
302000
000000
302000
783000
781C00
780C00
380E00
380F00
180700
180780
180780
180780
180780
180780
080F80
0C0F00
0E3E00
07FC00
01F800
ENDCHAR
STARTCHAR 1F54
ENCODING 8020
SWIDTH 558 0
DWIDTH 19 0
BBX 16 26 1 0
BITMAP
3860
7CF0
7CF0
3CE0
05C0
0980
1900
3300
0000
6040
F070
F838
F81C
781C
380E
380E
180F
180F
180F
180F
180F
181F
181E
0E7C
07FC
03F0
ENDCHAR
STARTCHAR 1F55
ENCODING 8021
SWIDTH 558 0
DWIDTH 19 0
BBX 16 26 1 0
BITMAP
3870
7C70
7CF0
7CE0
60C0
2180
3180
0900
0000
6040
F030
F838
F81C
781C
380E
380E
180F
180F
180F
180F
180F
181F
181E
0E7C
07FC
03F0
ENDCHAR
STARTCHAR 1F56
ENCODING 8022
SWIDTH 558 0
DWIDTH 19 0
BBX 16 30 1 0
BITMAP
3C30
7FE0
87C0
0000
0000
1E00
1F00
1F00
0300
0300
0200
0600
0000
6040
F030
F838
F81C
781C
380E
380E
180F
180F
180F
180F
180F
181F
181E
0C3C
07FC
03F0
ENDCHAR
STARTCHAR 1F57
ENCODING 8023
SWIDTH 558 0
DWIDTH 19 0
BBX 16 30 1 0
BITMAP
3C30
FFE0
87C0
0000
0000
1F00
1F00
3F00
3000
1000
1800
0800
0000
6040
F030
F838
F81C
781C
380E
380E
180F
180F
180F
180F
180F
181F
181E
0C3C
07FC
03F0
ENDCHAR
STARTCHAR 1F59
ENCODING 8025
SWIDTH 941 0
DWIDTH 32 0
BBX 29 26 2 0
BITMAP
70000000
F9E003F0
F87806F0
F83C0CF8
C01E19F8
400F11F8
400731F8
2007A0F0
0007A000
0003E000
0003E000
0003E000
0003E000
0003E000
0003E000
0003E000
0003E000
0003E000
0003E000
0003E000
0003E000
0003E000
0003E000
0003E000
0003E000
001FFC00
ENDCHAR
STARTCHAR 1F5B
ENCODING 8027
SWIDTH 970 0
DWIDTH 33 0
BBX 34 26 -2 0
BITMAP
7380000000
FB87801F80
FBC1E037C0
F1C0F027C0
C0C07847C0
40E03C4FC0
60601CCFC0
30201E8780
00001E8000
00000F8000
00000F8000
00000F8000
00000F8000
00000F8000
00000F8000
00000F8000
00000F8000
00000F8000
00000F8000
00000F8000
00000F8000
00000F8000
00000F8000
00000F8000
00000F8000
00007FF000
ENDCHAR
STARTCHAR 1F5D
ENCODING 8029
SWIDTH 1000 0
DWIDTH 34 0
BBX 33 26 0 0
BITMAP
70C0000000
F9EF003F00
F9E3C06F80
F1C1E04F80
C380F08F80
4300789F80
6300399F80
36003D0F00
00003D0000
00001F0000
00001F0000
00001F0000
00001F0000
00001F0000
00001F0000
00001F0000
00001F0000
00001F0000
00001F0000
00001F0000
00001F0000
00001F0000
00001F0000
00001F0000
00001F0000
0000FFE000
ENDCHAR
STARTCHAR 1F5F
ENCODING 8031
SWIDTH 941 0
DWIDTH 32 0
BBX 33 30 -2 0
BITMAP
3C10000000
7F10000000
47E0000000
81C0000000
0000000000
0F0F003F00
1F03C06F80
1F01E04F80
1800F08F80
1800789F80
0800399F80
0C003D0F00
00003D0000
00001F0000
00001F0000
00001F0000
00001F0000
00001F0000
00001F0000
00001F0000
00001F0000
00001F0000
00001F0000
00001F0000
00001F0000
00001F0000
00001F0000
00001F0000
00001F0000
0000FFE000
ENDCHAR
STARTCHAR 1F60
ENCODING 8032
SWIDTH 705 0
DWIDTH 24 0
BBX 20 26 2 0
BITMAP
00E000
01F000
01F000
00F000
003000
002000
006000
00C000
000000
1C0200
3C0180
7C01C0
7C01C0
7C70E0
F870E0
F8F8F0
F0F8F0
F0F8F0
F0F8F0
F0F0F0
F0F0F0
7071E0
7861E0
3863E0
1FFFC0
0F0F00
ENDCHAR
STARTCHAR 1F61
ENCODING 8033
SWIDTH 705 0
DWIDTH 24 0
BBX 20 26 2 0
BITMAP
00F000
01F000
01F800
01F000
018000
008000
00C000
006000
000000
1C0300
3C0180
7C01C0
7C01C0
7C70E0
F870E0
F8F8F0
F0F8F0
F0F8F0
F0F8F0
F0F0F0
F0F0F0
7071E0
7861E0
3863E0
1FDFC0
0F0F80
ENDCHAR
STARTCHAR 1F62
ENCODING 8034
SWIDTH 705 0
DWIDTH 24 0
BBX 20 26 2 0
BITMAP
063000
0F7800
0FB800
0FB800
011C00
010C00
020400
040200
000000
1C0200
3C0180
7C01C0
7C01C0
7C70E0
F870E0
F8F8F0
F0F8F0
F0F8F0
F0F8F0
F0F0F0
F0F0F0
7071E0
7861E0
3863E0
1FDFC0
0F0F80
ENDCHAR
STARTCHAR 1F63
ENCODING 8035
SWIDTH 705 0
DWIDTH 24 0
BBX 20 26 2 0
BITMAP
073000
0F7800
1FB800
1F3800
081C00
080C00
040400
030200
000000
1C0200
3C0180
7C01C0
7C01C0
7C70E0
F870E0
F8F8F0
F0F8F0
F0F8F0
F0F8F0
F0F0F0
F070F0
7071E0
7861E0
3863E0
1FDFC0
0F8F80
ENDCHAR
STARTCHAR 1F64
ENCODING 8036
SWIDTH 705 0
DWIDTH 24 0
BBX 20 26 2 0
BITMAP
038600
03C700
03EE00
03EE00
004C00
005800
009800
031000
000000
1C0200
3C0180
7C01C0
7C01C0
7C70E0
F870E0
F8F8F0
F0F8F0
F0F8F0
F0F8F0
F0F0F0
F070F0
7071E0
7861E0
3863E0
1FDFC0
0F0F80
ENDCHAR
STARTCHAR 1F65
ENCODING 8037
SWIDTH 705 0
DWIDTH 24 0
BBX 20 26 2 0
BITMAP
01C600
03C700
07CE00
07CE00
020C00
021C00
011800
009000
000000
1C0200
3C0180
7C01C0
7C01C0
7C70E0
F870E0
F8F8F0
F0F8F0
F0F8F0
F0F8F0
F0F0F0
F070F0
7071E0
7861E0
3863E0
1FDFC0
0F8F80
ENDCHAR
STARTCHAR 1F66
ENCODING 8038
SWIDTH 705 0
DWIDTH 24 0
BBX 20 30 2 0
BITMAP
03C200
07FE00
087C00
000000
000000
01E000
01F000
01F000
003000
003000
002000
004000
000000
1C0200
3C0180
7C01C0
7C01C0
7C70E0
F870E0
F8F8F0
F0F8F0
F0F8F0
F0F8F0
F0F0F0
F0F0F0
7071E0
7861E0
3863E0
1FDFC0
0F0F00
ENDCHAR
STARTCHAR 1F67
ENCODING 8039
SWIDTH 705 0
DWIDTH 24 0
BBX 20 30 2 0
BITMAP
03C200
07FE00
087C00
000000
000000
01F000
01F000
03F000
030000
010000
018000
008000
000000
1C0200
3C0180
7C01C0
7C01C0
7870E0
F870E0
F8F8F0
F0F8F0
F0F8F0
F0F8F0
F0F0F0
F070F0
7071E0
7861E0
3863E0
1FDFC0
0F8F80
ENDCHAR
STARTCHAR 1F68
ENCODING 8040
SWIDTH 882 0
DWIDTH 30 0
BBX 26 26 2 0
BITMAP
E0000000
F01FF800
F03C3C00
F8781E00
10F81F00
11F00F80
21F00F80
63F00FC0
03F00FC0
03F00FC0
03F00FC0
03F00FC0
03F00FC0
03F00FC0
01F00F80
01F00F80
00F81F00
00781E00
003C3C00
020E7040
02066040
02066040
03FE7FC0
03FE7FC0
03FE7FC0
03FE7FC0
ENDCHAR
STARTCHAR 1F69
ENCODING 8041
SWIDTH 911 0
DWIDTH 31 0
BBX 27 26 2 0
BITMAP
70008000
F80FF800
F83C1E00
F0780F00
C0F80F80
C1F80FC0
41F007C0
23F007E0
03F007E0
03F007E0
03F007E0
03F007E0
03F007E0
01F007C0
01F007C0
00F80F80
00F80F80
00780F00
001C1C00
02077020
02036020
02036060
03FF7FE0
03FF7FE0
03FF7FE0
03FF7FE0
ENDCHAR
STARTCHAR 1F6A
ENCODING 8042
SWIDTH 970 0
DWIDTH 33 0
BBX 32 26 -1 0
BITMAP
E3000000
F7807FE0
F380F0F0
FB81E078
11C3E07C
10C7C03E
2067C03E
406FC03F
000FC03F
000FC03F
000FC03F
000FC03F
000FC03F
000FC03E
0007C03E
0007C03E
0003E07C
0001E078
0000F0F0
000839C1
00081981
00081981
000FF9FF
000FF9FF
000FF9FF
000FF9FF
ENDCHAR
ENDFONT
